<svg id="Head_Front_Short-2" data-name="Head/Front/Short-2" xmlns="http://www.w3.org/2000/svg" width="48.585" height="80" viewBox="0 0 48.585 80">
  <g id="Head" transform="translate(2.585 7)">
    <path id="Path_14" data-name="Path 14" d="M33.738,34.49c4.608-5.409,7.727-12.037,7.206-19.465C39.442-6.375,9.652-1.667,3.857,9.134s-5.106,38.2,2.383,40.13c2.987.77,9.349-1.116,15.825-5.019L18,73H42Z" fill="#b28b67" fill-rule="evenodd"/>
  </g>
  <path id="Hair" d="M88.167,70.308c3.012-13.4,11.594-22.536,10.283-28.526a9.085,9.085,0,0,0-6.986-7.45q-2.935-11.875-18.934-10.1C56.53,26,46.765,32.648,50.982,47.268c3.876,0,8.556-1.4,15.027,1q3.08,1.143,4.406,7.09h2.924q4.257-7.057,8.4-5.187t1.881,9.087l1.44,11.049Z" transform="translate(-50 -24)" fill="#191847" fill-rule="evenodd"/>
</svg>
