<svg xmlns="http://www.w3.org/2000/svg" xmlns:xlink="http://www.w3.org/1999/xlink" width="375" height="812" viewBox="0 0 375 812">
  <defs>
    <clipPath id="clip-iPhone_X_XS_21">
      <rect width="375" height="812"/>
    </clipPath>
  </defs>
  <g id="iPhone_X_XS_21" data-name="iPhone X/XS – 21" clip-path="url(#clip-iPhone_X_XS_21)">
    <rect width="375" height="812"/>
    <rect id="Rectangle_101" data-name="Rectangle 101" width="376" height="48" transform="translate(-1 18)" fill="#a5a5a5"/>
    <path id="ic_person_24px" d="M18.031,18.031a7.016,7.016,0,1,0-7.016-7.016A7.014,7.014,0,0,0,18.031,18.031Zm0,3.508C13.348,21.539,4,23.889,4,28.555v3.508H32.063V28.555C32.063,23.889,22.714,21.539,18.031,21.539Z" transform="translate(332 24.245)" fill="#fff"/>
    <g id="Group_12" data-name="Group 12" transform="translate(-2 -23)">
      <line id="Line_254" data-name="Line 254" x2="27" transform="translate(13.5 56.5)" fill="none" stroke="#fff" stroke-width="4"/>
      <line id="Line_255" data-name="Line 255" x2="27" transform="translate(13.5 65.5)" fill="none" stroke="#fff" stroke-width="4"/>
      <line id="Line_256" data-name="Line 256" x2="27" transform="translate(13.5 74.5)" fill="none" stroke="#fff" stroke-width="4"/>
    </g>
    <text id="Add_New_Account" data-name="Add New Account" transform="translate(188 132)" fill="#96cdef" font-size="40" font-family="HelveticaNeue-Bold, Helvetica Neue" font-weight="700"><tspan x="-171.48" y="0">Add New Account</tspan></text>
    <text id="Name" transform="translate(190 212)" fill="#96cdef" font-size="30" font-family="HelveticaNeue-Medium, Helvetica Neue" font-weight="500"><tspan x="-40.56" y="0">Name</tspan></text>
    <rect id="Rectangle_115" data-name="Rectangle 115" width="355" height="55" rx="10" transform="translate(10 222)" fill="#a5a5a5"/>
    <text id="Category" transform="translate(190 343)" fill="#96cdef" font-size="30" font-family="HelveticaNeue-Medium, Helvetica Neue" font-weight="500"><tspan x="-63.36" y="0">Category</tspan></text>
    <rect id="Rectangle_116" data-name="Rectangle 116" width="355" height="55" rx="10" transform="translate(10 357)" fill="#a5a5a5"/>
    <text id="Goals" transform="translate(190 478)" fill="#96cdef" font-size="30" font-family="HelveticaNeue-Medium, Helvetica Neue" font-weight="500"><tspan x="-40.02" y="0">Goals</tspan></text>
    <rect id="Rectangle_117" data-name="Rectangle 117" width="355" height="55" rx="10" transform="translate(10 492)" fill="#a5a5a5"/>
    <text id="Interest" transform="translate(190 613)" fill="#96cdef" font-size="30" font-family="HelveticaNeue-Medium, Helvetica Neue" font-weight="500"><tspan x="-52.245" y="0">Interest</tspan></text>
    <rect id="Rectangle_118" data-name="Rectangle 118" width="355" height="55" rx="10" transform="translate(10 627)" fill="#a5a5a5"/>
    <rect id="Rectangle_119" data-name="Rectangle 119" width="109" height="61" rx="10" transform="translate(135 719)" fill="#a5a5a5"/>
    <text id="Add" transform="translate(188 761)" fill="#96cdef" font-size="30" font-family="HelveticaNeue-Medium, Helvetica Neue" font-weight="500"><tspan x="-28.335" y="0">Add</tspan></text>
  </g>
</svg>
