<svg xmlns="http://www.w3.org/2000/svg" xmlns:xlink="http://www.w3.org/1999/xlink" width="375" height="812" viewBox="0 0 375 812">
  <defs>
    <clipPath id="clip-iPhone_X_XS_20">
      <rect width="375" height="812"/>
    </clipPath>
  </defs>
  <g id="iPhone_X_XS_20" data-name="iPhone X/XS – 20" clip-path="url(#clip-iPhone_X_XS_20)">
    <rect width="375" height="812"/>
    <rect id="Rectangle_101" data-name="Rectangle 101" width="376" height="48" transform="translate(-1 18)" fill="#a5a5a5"/>
    <path id="ic_person_24px" d="M18.031,18.031a7.016,7.016,0,1,0-7.016-7.016A7.014,7.014,0,0,0,18.031,18.031Zm0,3.508C13.348,21.539,4,23.889,4,28.555v3.508H32.063V28.555C32.063,23.889,22.714,21.539,18.031,21.539Z" transform="translate(332 24.245)" fill="#fff"/>
    <g id="Group_12" data-name="Group 12" transform="translate(-2 -23)">
      <line id="Line_254" data-name="Line 254" x2="27" transform="translate(13.5 56.5)" fill="none" stroke="#fff" stroke-width="4"/>
      <line id="Line_255" data-name="Line 255" x2="27" transform="translate(13.5 65.5)" fill="none" stroke="#fff" stroke-width="4"/>
      <line id="Line_256" data-name="Line 256" x2="27" transform="translate(13.5 74.5)" fill="none" stroke="#fff" stroke-width="4"/>
    </g>
    <rect id="Rectangle_107" data-name="Rectangle 107" width="351" height="87" rx="10" transform="translate(12 99)" fill="#393939"/>
    <text id="Select_an_Account_to_Edit" data-name="Select an Account to Edit" transform="translate(25 153)" fill="#ffe36c" font-size="27" font-family="HelveticaNeue-Light, Helvetica Neue" font-weight="300"><tspan x="0" y="0">Select an Account to Edit</tspan></text>
    <path id="Polygon_2" data-name="Polygon 2" d="M8,0l8,15H0Z" transform="translate(356 154) rotate(180)" fill="#ffe36c"/>
    <text id="Name" transform="translate(188 238)" fill="#ffe36c" font-size="30" font-family="HelveticaNeue-Medium, Helvetica Neue" font-weight="500"><tspan x="-40.56" y="0">Name</tspan></text>
    <rect id="Rectangle_115" data-name="Rectangle 115" width="355" height="55" rx="10" transform="translate(8 265)" fill="#a5a5a5"/>
    <text id="HSBC_Super_Saver" data-name="HSBC Super Saver" transform="translate(84 302)" fill="#ffe36c" font-size="25" font-family="HelveticaNeue-Light, Helvetica Neue" font-weight="300"><tspan x="0" y="0">HSBC Super Saver</tspan></text>
    <text id="Category" transform="translate(188 369)" fill="#ffe36c" font-size="30" font-family="HelveticaNeue-Medium, Helvetica Neue" font-weight="500"><tspan x="-63.36" y="0">Category</tspan></text>
    <rect id="Rectangle_116" data-name="Rectangle 116" width="355" height="55" rx="10" transform="translate(8 383)" fill="#a5a5a5"/>
    <text id="General" transform="translate(146 420)" fill="#ffe36c" font-size="25" font-family="HelveticaNeue-Light, Helvetica Neue" font-weight="300"><tspan x="0" y="0">General</tspan></text>
    <text id="Goals" transform="translate(188 487)" fill="#ffe36c" font-size="30" font-family="HelveticaNeue-Medium, Helvetica Neue" font-weight="500"><tspan x="-40.02" y="0">Goals</tspan></text>
    <rect id="Rectangle_117" data-name="Rectangle 117" width="355" height="55" rx="10" transform="translate(8 501)" fill="#a5a5a5"/>
    <text id="_10_203" data-name="£10,203" transform="translate(143 538)" fill="#ffe36c" font-size="25" font-family="HelveticaNeue-Light, Helvetica Neue" font-weight="300"><tspan x="0" y="0">£10,203</tspan></text>
    <text id="Interest" transform="translate(188 605)" fill="#ffe36c" font-size="30" font-family="HelveticaNeue-Medium, Helvetica Neue" font-weight="500"><tspan x="-52.245" y="0">Interest</tspan></text>
    <rect id="Rectangle_118" data-name="Rectangle 118" width="355" height="55" rx="10" transform="translate(8 619)" fill="#a5a5a5"/>
    <text id="_0.05_" data-name="0.05%" transform="translate(152 656)" fill="#ffe36c" font-size="25" font-family="HelveticaNeue-Light, Helvetica Neue" font-weight="300"><tspan x="0" y="0">0.05%</tspan></text>
    <rect id="Rectangle_119" data-name="Rectangle 119" width="109" height="61" rx="10" transform="translate(133 711)" fill="#a5a5a5"/>
    <text id="Add" transform="translate(186 753)" fill="#ffe36c" font-size="30" font-family="HelveticaNeue-Medium, Helvetica Neue" font-weight="500"><tspan x="-28.335" y="0">Add</tspan></text>
  </g>
</svg>
