<svg xmlns="http://www.w3.org/2000/svg" xmlns:xlink="http://www.w3.org/1999/xlink" width="1920" height="1080" viewBox="0 0 1920 1080">
  <defs>
    <filter id="Rectangle_1" x="-16" y="-25" width="1973" height="1137" filterUnits="userSpaceOnUse">
      <feOffset dx="10" dy="3" input="SourceAlpha"/>
      <feGaussianBlur stdDeviation="15" result="blur"/>
      <feFlood flood-opacity="0.161"/>
      <feComposite operator="in" in2="blur"/>
      <feComposite in="SourceGraphic"/>
    </filter>
    <clipPath id="clip-Web_1920_3">
      <rect width="1920" height="1080"/>
    </clipPath>
  </defs>
  <g id="Web_1920_3" data-name="Web 1920 – 3" clip-path="url(#clip-Web_1920_3)">
    <g transform="matrix(1, 0, 0, 1, 0, 0)" filter="url(#Rectangle_1)">
      <rect id="Rectangle_1-2" data-name="Rectangle 1" width="1883" height="1047" rx="41" transform="translate(19 17)"/>
    </g>
    <line id="Line_1" data-name="Line 1" y2="1047" transform="translate(353.5 17.5)" fill="none" stroke="#707070" stroke-width="1"/>
    <rect id="Rectangle_2" data-name="Rectangle 2" width="335" height="1047" rx="34" transform="translate(19 17)" fill="#393939"/>
    <rect id="Rectangle_3" data-name="Rectangle 3" width="97" height="1047" transform="translate(257 17)" fill="#393939"/>
    <rect id="Rectangle_93" data-name="Rectangle 93" width="1883" height="68" transform="translate(19 65)" fill="#a5a5a5"/>
    <rect id="Rectangle_94" data-name="Rectangle 94" width="254" height="254" rx="28" transform="translate(59 172)" fill="rgba(255,255,255,0.55)"/>
    <line id="Line_253" data-name="Line 253" x2="249" transform="translate(57.5 457.5)" fill="none" stroke="#fff" stroke-width="2"/>
    <path id="ic_home_24px" d="M16,32.75V22.25h7v10.5h8.75v-14H37L19.5,3,2,18.75H7.25v14Z" transform="translate(63 478)" fill="none" stroke="#fff" stroke-width="1"/>
    <g id="ic_border_color_24px" transform="translate(58 678.75)">
      <path id="Path_81" data-name="Path 81" d="M28.063,12.252,21.5,5.689,4,23.189v6.563h6.563Zm5.18-5.18a1.743,1.743,0,0,0,0-2.468L29.148.509a1.743,1.743,0,0,0-2.468,0l-3.43,3.43L29.813,10.5Z" transform="translate(3 0.002)" fill="none" stroke="#f8fcff" stroke-width="1"/>
      <path id="Path_82" data-name="Path 82" d="M0,20H42v7H0Z" transform="translate(0 15.004)" fill="none" stroke="#f8fcff" stroke-width="1"/>
    </g>
    <path id="ic_add_to_photos_24px" d="M5.5,9H2V33.5A3.51,3.51,0,0,0,5.5,37H30V33.5H5.5Zm28-7h-21A3.51,3.51,0,0,0,9,5.5v21A3.51,3.51,0,0,0,12.5,30h21A3.51,3.51,0,0,0,37,26.5V5.5A3.51,3.51,0,0,0,33.5,2ZM31.75,17.75h-7v7h-3.5v-7h-7v-3.5h7v-7h3.5v7h7Z" transform="translate(61.25 575.25)" fill="none" stroke="#fff" stroke-width="1"/>
    <path id="ic_remove_red_eye_24px" d="M20.25,4.5A20.7,20.7,0,0,0,1,17.625a20.679,20.679,0,0,0,38.5,0A20.7,20.7,0,0,0,20.25,4.5Zm0,21.875A8.75,8.75,0,1,1,29,17.625,8.753,8.753,0,0,1,20.25,26.375Zm0-14a5.25,5.25,0,1,0,5.25,5.25A5.243,5.243,0,0,0,20.25,12.375Z" transform="translate(60.5 782.75)" fill="none" stroke="#fff" stroke-width="1"/>
    <rect id="Rectangle_10" data-name="Rectangle 10" width="325" height="379" rx="20" transform="translate(384 169)" fill="#a5a5a5"/>
    <rect id="Rectangle_11" data-name="Rectangle 11" width="657" height="714" rx="20" transform="translate(743 314)" fill="#a5a5a5"/>
    <rect id="Rectangle_12" data-name="Rectangle 12" width="1130" height="106" rx="20" transform="translate(743 169)" fill="#a5a5a5"/>
    <rect id="Rectangle_13" data-name="Rectangle 13" width="439" height="711" rx="20" transform="translate(1434 317)" fill="#a5a5a5"/>
    <rect id="Rectangle_14" data-name="Rectangle 14" width="325" height="446" rx="20" transform="translate(384 582)" fill="#a5a5a5"/>
    <text id="Home" transform="translate(151 511)" fill="#fff" font-size="30" font-family="SourceCodePro-Light, Source Code Pro" font-weight="300" letter-spacing="-0.005em"><tspan x="0" y="0">Home</tspan></text>
    <text id="Add" transform="translate(149 612)" fill="#fff" font-size="30" font-family="SourceCodePro-Light, Source Code Pro" font-weight="300" letter-spacing="-0.005em"><tspan x="0" y="0">Add</tspan></text>
    <text id="Edit" transform="translate(151 713)" fill="#fff" font-size="30" font-family="SourceCodePro-Light, Source Code Pro" font-weight="300" letter-spacing="-0.005em"><tspan x="0" y="0">Edit</tspan></text>
    <text id="View" transform="translate(155 814)" fill="#fff" font-size="30" font-family="SourceCodePro-Light, Source Code Pro" font-weight="300" letter-spacing="-0.005em"><tspan x="0" y="0">View</tspan></text>
    <text id="Welcome_user-name_" data-name="Welcome, [user-name]" transform="translate(34 121)" fill="#fff" font-size="64" font-family="SourceCodePro-Regular, Source Code Pro"><tspan x="0" y="0">Welcome, [user-name]</tspan></text>
    <path id="ic_person_24px" d="M27.81,27.81A11.9,11.9,0,1,0,15.9,15.9,11.9,11.9,0,0,0,27.81,27.81Zm0,5.952C19.863,33.762,4,37.75,4,45.667V51.62H51.62V45.667C51.62,37.75,35.756,33.762,27.81,33.762Z" transform="translate(1831 70.245)" fill="#fff"/>
    <text id="Add_Money_" data-name="Add Money " transform="translate(549 224)" fill="#58ffb8" font-size="43" font-family="SourceCodePro-Bold, Source Code Pro" font-weight="700"><tspan x="-129" y="0">Add Money </tspan></text>
    <rect id="Rectangle_38" data-name="Rectangle 38" width="308" height="62" rx="10" transform="translate(393 251)" fill="rgba(201,201,201,0.73)"/>
    <rect id="Rectangle_68" data-name="Rectangle 68" width="308" height="62" rx="10" transform="translate(393 330)" fill="rgba(201,201,201,0.73)"/>
    <rect id="Rectangle_69" data-name="Rectangle 69" width="308" height="62" rx="10" transform="translate(393 409)" fill="rgba(201,201,201,0.73)"/>
    <rect id="Rectangle_70" data-name="Rectangle 70" width="85" height="60" rx="10" transform="translate(507 480)" fill="#939393"/>
    <path id="Polygon_1" data-name="Polygon 1" d="M8,0l8,15H0Z" transform="translate(680 292) rotate(180)" fill="#fff"/>
    <text id="Name_of_Account" data-name="Name of Account" transform="translate(532 292)" fill="#fff" font-size="28" font-family="HelveticaNeue-Light, Helvetica Neue" font-weight="300"><tspan x="-105.56" y="0">Name of Account</tspan></text>
    <text id="Amount" transform="translate(542 372)" fill="#fff" font-size="28" font-family="HelveticaNeue-Light, Helvetica Neue" font-weight="300"><tspan x="-47.446" y="0">Amount</tspan></text>
    <text id="Date" transform="translate(543 450)" fill="#fff" font-size="28" font-family="HelveticaNeue-Light, Helvetica Neue" font-weight="300"><tspan x="-28.266" y="0">Date</tspan></text>
    <text id="Add-2" data-name="Add" transform="translate(550 521)" fill="#fff" font-size="28" font-family="HelveticaNeue-Medium, Helvetica Neue" font-weight="500"><tspan x="-26.446" y="0">Add</tspan></text>
    <text id="You_have_saved_" data-name="You have saved " transform="translate(950 238)" fill="#ffb9bb" font-size="40" font-family="SourceCodePro-Light, Source Code Pro" font-weight="300"><tspan x="-180" y="0">You have saved </tspan></text>
    <text id="_300_293" data-name="£300,293" transform="translate(1229 238)" fill="#ffb9bb" font-size="40" font-family="SourceCodePro-Bold, Source Code Pro" font-weight="700"><tspan x="-96" y="0">£300,293</tspan></text>
    <text id="during" transform="translate(1415 238)" fill="#ffb9bb" font-size="40" font-family="SourceCodePro-Light, Source Code Pro" font-weight="300"><tspan x="-72" y="0">during</tspan></text>
    <text id="January_2019" data-name="January 2019" transform="translate(1665 238)" fill="#ffb9bb" font-size="40" font-family="SourceCodePro-Bold, Source Code Pro" font-weight="700"><tspan x="-144" y="0">January 2019</tspan></text>
    <path id="Polygon_2" data-name="Polygon 2" d="M8,0l8,15H0Z" transform="translate(1839 232) rotate(180)" fill="#ffb9bb"/>
    <line id="Line_2" data-name="Line 2" x2="288" transform="translate(1521.5 252.5)" fill="none" stroke="#ffb9bb" stroke-width="5"/>
    <text id="Categories" transform="translate(547 647)" fill="#ffe36c" font-size="43" font-family="SourceCodePro-Bold, Source Code Pro" font-weight="700"><tspan x="-129" y="0">Categories</tspan></text>
    <rect id="Rectangle_71" data-name="Rectangle 71" width="308" height="62" rx="10" transform="translate(392 680)" fill="rgba(201,201,201,0.73)"/>
    <text id="General" transform="translate(541 722)" fill="#fff" font-size="28" font-family="HelveticaNeue-Light, Helvetica Neue" font-weight="300"><tspan x="-46.69" y="0">General</tspan></text>
    <rect id="Rectangle_72" data-name="Rectangle 72" width="308" height="62" rx="10" transform="translate(393 765)" fill="rgba(201,201,201,0.73)"/>
    <text id="Birthday" transform="translate(542 807)" fill="#fff" font-size="28" font-family="HelveticaNeue-Light, Helvetica Neue" font-weight="300"><tspan x="-49.784" y="0">Birthday</tspan></text>
    <rect id="Rectangle_73" data-name="Rectangle 73" width="308" height="62" rx="10" transform="translate(393 850)" fill="rgba(201,201,201,0.73)"/>
    <text id="Holiday" transform="translate(542 892)" fill="#fff" font-size="28" font-family="HelveticaNeue-Light, Helvetica Neue" font-weight="300"><tspan x="-44.604" y="0">Holiday</tspan></text>
    <rect id="Rectangle_74" data-name="Rectangle 74" width="308" height="62" rx="10" transform="translate(393 935)" fill="rgba(201,201,201,0.73)"/>
    <text id="Wedding" transform="translate(542 977)" fill="#fff" font-size="28" font-family="HelveticaNeue-Light, Helvetica Neue" font-weight="300"><tspan x="-53.676" y="0">Wedding</tspan></text>
    <g id="Column_Chart1" data-name="Column Chart1" transform="translate(-3936 764.5)">
      <g id="Chart" transform="translate(4685 -407)">
        <g id="m1">
          <rect id="Rectangle_75" data-name="Rectangle 75" width="21.741" height="103.655" rx="10.871" transform="translate(0 525.374)" fill="#b4d0f7"/>
          <rect id="Rectangle_76" data-name="Rectangle 76" width="21.741" height="276.413" rx="10.871" transform="translate(43.483 352.615)" fill="#b4d0f7"/>
          <rect id="Rectangle_77" data-name="Rectangle 77" width="21.741" height="241.862" rx="10.871" transform="translate(112.121 387.167)" fill="#b4d0f7"/>
          <rect id="Rectangle_78" data-name="Rectangle 78" width="21.741" height="103.655" rx="10.871" transform="translate(168.181 525.374)" fill="#b4d0f7"/>
          <rect id="Rectangle_79" data-name="Rectangle 79" width="21.741" height="228.041" rx="10.871" transform="translate(224.241 400.988)" fill="#b4d0f7"/>
          <rect id="Rectangle_80" data-name="Rectangle 80" width="21.741" height="380.068" rx="10.871" transform="translate(280.301 248.96)" fill="#b4d0f7"/>
          <rect id="Rectangle_81" data-name="Rectangle 81" width="21.741" height="207.31" rx="10.871" transform="translate(336.362 421.719)" fill="#b4d0f7"/>
          <rect id="Rectangle_82" data-name="Rectangle 82" width="21.741" height="310.965" rx="10.871" transform="translate(392.422 318.064)" fill="#b4d0f7"/>
          <rect id="Rectangle_83" data-name="Rectangle 83" width="21.741" height="414.62" rx="10.871" transform="translate(448.482 214.409)" fill="#b4d0f7"/>
          <rect id="Rectangle_84" data-name="Rectangle 84" width="21.741" height="380.068" rx="10.871" transform="translate(504.542 248.96)" fill="#b4d0f7"/>
          <rect id="Rectangle_85" data-name="Rectangle 85" width="21.741" height="304.055" rx="10.871" transform="translate(573.18 324.974)" fill="#b4d0f7"/>
          <rect id="Rectangle_86" data-name="Rectangle 86" width="21.741" height="629.029" rx="10.871" transform="translate(616.663)" fill="#b4d0f7"/>
        </g>
      </g>
      <g id="X_Axis" data-name="X Axis" transform="translate(4687.418 226.5)">
        <text id="Jan" transform="translate(8 8)" fill="#b4d0f7" font-size="9" font-family="Arial-BoldMT, Arial" font-weight="700"><tspan x="-7.754" y="0">Jan</tspan></text>
        <text id="Feb" transform="translate(51.483 7)" fill="#b4d0f7" font-size="8" font-family="Arial-BoldMT, Arial" font-weight="700"><tspan x="-7.111" y="0">Feb</tspan></text>
        <text id="Mar" transform="translate(120.036 7)" fill="#b4d0f7" font-size="8" font-family="Arial-BoldMT, Arial" font-weight="700"><tspan x="-7.113" y="0">Mar</tspan></text>
        <text id="Apr" transform="translate(177.036 8)" fill="#b4d0f7" font-size="9" font-family="Arial-BoldMT, Arial" font-weight="700"><tspan x="-7.75" y="0">Apr</tspan></text>
        <text id="May" transform="translate(232.343 7)" fill="#b4d0f7" font-size="8" font-family="Arial-BoldMT, Arial" font-weight="700"><tspan x="-7.781" y="0">May</tspan></text>
        <text id="Jun" transform="translate(288.126 8)" fill="#b4d0f7" font-size="9" font-family="Arial-BoldMT, Arial" font-weight="700"><tspan x="-8" y="0">Jun</tspan></text>
        <text id="Jul" transform="translate(343.446 7)" fill="#b4d0f7" font-size="8" font-family="Arial-BoldMT, Arial" font-weight="700"><tspan x="-5.779" y="0">Jul</tspan></text>
        <text id="Aug" transform="translate(400.583 8)" fill="#b4d0f7" font-size="9" font-family="Arial-BoldMT, Arial" font-weight="700"><tspan x="-8.747" y="0">Aug</tspan></text>
        <text id="Sep" transform="translate(456.672 8)" fill="#b4d0f7" font-size="9" font-family="Arial-BoldMT, Arial" font-weight="700"><tspan x="-8.253" y="0">Sep</tspan></text>
        <text id="Oct" transform="translate(511.718 7)" fill="#b4d0f7" font-size="8" font-family="Arial-BoldMT, Arial" font-weight="700"><tspan x="-6.668" y="0">Oct</tspan></text>
        <text id="Nov" transform="translate(581.435 8)" fill="#b4d0f7" font-size="9" font-family="Arial-BoldMT, Arial" font-weight="700"><tspan x="-8.501" y="0">Nov</tspan></text>
        <text id="Dec" transform="translate(624.918 8)" fill="#b4d0f7" font-size="9" font-family="Arial-BoldMT, Arial" font-weight="700"><tspan x="-8.255" y="0">Dec</tspan></text>
      </g>
    </g>
    <rect id="Rectangle_87" data-name="Rectangle 87" width="415" height="82" rx="10" transform="translate(1446 426)" fill="rgba(201,201,201,0.73)"/>
    <text id="Monthly_Savings" data-name="Monthly Savings" transform="translate(1654 389)" fill="#8579b9" font-size="43" font-family="SourceCodePro-Bold, Source Code Pro" font-weight="700"><tspan x="-193.5" y="0">Monthly Savings</tspan></text>
    <rect id="Rectangle_88" data-name="Rectangle 88" width="415" height="82" rx="10" transform="translate(1447 548)" fill="rgba(201,201,201,0.73)"/>
    <rect id="Rectangle_89" data-name="Rectangle 89" width="415" height="82" rx="10" transform="translate(1446 670)" fill="rgba(201,201,201,0.73)"/>
    <rect id="Rectangle_90" data-name="Rectangle 90" width="415" height="82" rx="10" transform="translate(1446 792)" fill="rgba(201,201,201,0.73)"/>
    <rect id="Rectangle_91" data-name="Rectangle 91" width="415" height="82" rx="10" transform="translate(1446 914)" fill="rgba(201,201,201,0.73)"/>
    <text id="January" transform="translate(1519 478)" fill="#fff" font-size="28" font-family="HelveticaNeue-Light, Helvetica Neue" font-weight="300"><tspan x="-47.46" y="0">January</tspan></text>
    <text id="February" transform="translate(1525 600)" fill="#fff" font-size="28" font-family="HelveticaNeue-Light, Helvetica Neue" font-weight="300"><tspan x="-52.906" y="0">February</tspan></text>
    <text id="March" transform="translate(1472 723)" fill="#fff" font-size="28" font-family="HelveticaNeue-Light, Helvetica Neue" font-weight="300"><tspan x="0" y="0">March</tspan></text>
    <text id="April" transform="translate(1472 844)" fill="#fff" font-size="28" font-family="HelveticaNeue-Light, Helvetica Neue" font-weight="300"><tspan x="0" y="0">April</tspan></text>
    <text id="May-2" data-name="May" transform="translate(1472 966)" fill="#fff" font-size="28" font-family="HelveticaNeue-Light, Helvetica Neue" font-weight="300"><tspan x="0" y="0">May</tspan></text>
    <text id="_3_102" data-name="£3,102" transform="translate(1834 478)" fill="#fff" font-size="28" font-family="HelveticaNeue-Light, Helvetica Neue" font-weight="300"><tspan x="-85.624" y="0">£3,102</tspan></text>
    <text id="_8_001" data-name="£8,001" transform="translate(1834 600)" fill="#fff" font-size="28" font-family="HelveticaNeue-Light, Helvetica Neue" font-weight="300"><tspan x="-85.624" y="0">£8,001</tspan></text>
    <text id="_1_050" data-name="£1,050" transform="translate(1834 722)" fill="#fff" font-size="28" font-family="HelveticaNeue-Light, Helvetica Neue" font-weight="300"><tspan x="-85.624" y="0">£1,050</tspan></text>
    <text id="_1_100" data-name="£1,100" transform="translate(1834 844)" fill="#fff" font-size="28" font-family="HelveticaNeue-Light, Helvetica Neue" font-weight="300"><tspan x="-85.624" y="0">£1,100</tspan></text>
    <text id="_2_202" data-name="£2,202" transform="translate(1834 966)" fill="#fff" font-size="28" font-family="HelveticaNeue-Light, Helvetica Neue" font-weight="300"><tspan x="-85.624" y="0">£2,202</tspan></text>
  </g>
</svg>
