<svg xmlns="http://www.w3.org/2000/svg" xmlns:xlink="http://www.w3.org/1999/xlink" width="375" height="812" viewBox="0 0 375 812">
  <defs>
    <clipPath id="clip-iPhone_X_XS_18">
      <rect width="375" height="812"/>
    </clipPath>
  </defs>
  <g id="iPhone_X_XS_18" data-name="iPhone X/XS – 18" clip-path="url(#clip-iPhone_X_XS_18)">
    <rect width="375" height="812"/>
    <rect id="Rectangle_101" data-name="Rectangle 101" width="376" height="48" transform="translate(-1 18)" fill="#a5a5a5"/>
    <path id="ic_person_24px" d="M18.031,18.031a7.016,7.016,0,1,0-7.016-7.016A7.014,7.014,0,0,0,18.031,18.031Zm0,3.508C13.348,21.539,4,23.889,4,28.555v3.508H32.063V28.555C32.063,23.889,22.714,21.539,18.031,21.539Z" transform="translate(332 24.245)" fill="#fff"/>
    <g id="Group_12" data-name="Group 12" transform="translate(-2 -23)">
      <line id="Line_254" data-name="Line 254" x2="27" transform="translate(13.5 56.5)" fill="none" stroke="#fff" stroke-width="4"/>
      <line id="Line_255" data-name="Line 255" x2="27" transform="translate(13.5 65.5)" fill="none" stroke="#fff" stroke-width="4"/>
      <line id="Line_256" data-name="Line 256" x2="27" transform="translate(13.5 74.5)" fill="none" stroke="#fff" stroke-width="4"/>
    </g>
    <rect id="Rectangle_102" data-name="Rectangle 102" width="351" height="87" rx="10" transform="translate(13 95)" fill="#a5a5a5"/>
    <text id="You_have_saved_" data-name="You have saved " transform="translate(199 129)" fill="#ffb9bb" font-size="30" font-family="SourceCodePro-Light, Source Code Pro" font-weight="300"><tspan x="-135" y="0">You have saved </tspan></text>
    <text id="_300_293" data-name="£300,293" transform="translate(188 167)" fill="#ffb9bb" font-size="30" font-family="SourceCodePro-Bold, Source Code Pro" font-weight="700"><tspan x="-72" y="0">£300,293</tspan></text>
    <rect id="Rectangle_104" data-name="Rectangle 104" width="351" height="87" rx="10" transform="translate(12 203)" fill="#a5a5a5"/>
    <text id="Categories" transform="translate(185 260)" fill="#ffe36c" font-size="43" font-family="SourceCodePro-Bold, Source Code Pro" font-weight="700"><tspan x="-129" y="0">Categories</tspan></text>
    <rect id="Rectangle_103" data-name="Rectangle 103" width="351" height="264" rx="10" transform="translate(12 313)" fill="#a5a5a5"/>
    <g id="Column_Chart1" data-name="Column Chart1" transform="translate(-4661 728.799)">
      <g id="Chart" transform="translate(4685 -407)">
        <g id="m1">
          <rect id="Rectangle_75" data-name="Rectangle 75" width="9.781" height="46.633" rx="4.891" transform="translate(0 202.058)" fill="#b4d0f7"/>
          <rect id="Rectangle_76" data-name="Rectangle 76" width="9.781" height="124.354" rx="4.891" transform="translate(19.562 124.337)" fill="#b4d0f7"/>
          <rect id="Rectangle_77" data-name="Rectangle 77" width="9.781" height="108.81" rx="4.891" transform="translate(57.5 139.881)" fill="#b4d0f7"/>
          <rect id="Rectangle_78" data-name="Rectangle 78" width="9.781" height="46.633" rx="4.891" transform="translate(86.25 202.058)" fill="#b4d0f7"/>
          <rect id="Rectangle_79" data-name="Rectangle 79" width="9.781" height="102.592" rx="4.891" transform="translate(115 146.099)" fill="#b4d0f7"/>
          <rect id="Rectangle_80" data-name="Rectangle 80" width="9.781" height="170.986" rx="4.891" transform="translate(143.75 77.704)" fill="#b4d0f7"/>
          <rect id="Rectangle_81" data-name="Rectangle 81" width="9.781" height="93.265" rx="4.891" transform="translate(172.5 155.425)" fill="#b4d0f7"/>
          <rect id="Rectangle_82" data-name="Rectangle 82" width="9.781" height="139.898" rx="4.891" transform="translate(201.25 108.793)" fill="#b4d0f7"/>
          <rect id="Rectangle_83" data-name="Rectangle 83" width="9.781" height="186.531" rx="4.891" transform="translate(230 62.16)" fill="#b4d0f7"/>
          <rect id="Rectangle_84" data-name="Rectangle 84" width="9.781" height="170.986" rx="4.891" transform="translate(258.75 77.704)" fill="#b4d0f7"/>
          <rect id="Rectangle_85" data-name="Rectangle 85" width="9.781" height="136.789" rx="4.891" transform="translate(296.688 111.902)" fill="#b4d0f7"/>
          <rect id="Rectangle_86" data-name="Rectangle 86" width="9.781" height="248.691" rx="4.891" transform="translate(316.25)" fill="#b4d0f7"/>
        </g>
      </g>
      <g id="X_Axis" data-name="X Axis" transform="translate(4686.088 -156.298)">
        <text id="Jan" transform="translate(3 3)" fill="#b4d0f7" font-size="3" font-family="Arial-BoldMT, Arial" font-weight="700"><tspan x="-2.585" y="0">Jan</tspan></text>
        <text id="Feb" transform="translate(23.012 3)" fill="#b4d0f7" font-size="3" font-family="Arial-BoldMT, Arial" font-weight="700"><tspan x="-2.667" y="0">Feb</tspan></text>
        <text id="Mar" transform="translate(60.966 3)" fill="#b4d0f7" font-size="3" font-family="Arial-BoldMT, Arial" font-weight="700"><tspan x="-2.667" y="0">Mar</tspan></text>
        <text id="Apr" transform="translate(89.684 3)" fill="#b4d0f7" font-size="3" font-family="Arial-BoldMT, Arial" font-weight="700"><tspan x="-2.583" y="0">Apr</tspan></text>
        <text id="May" transform="translate(118.047 3)" fill="#b4d0f7" font-size="3" font-family="Arial-BoldMT, Arial" font-weight="700"><tspan x="-2.918" y="0">May</tspan></text>
        <text id="Jun" transform="translate(146.653 3)" fill="#b4d0f7" font-size="3" font-family="Arial-BoldMT, Arial" font-weight="700"><tspan x="-2.667" y="0">Jun</tspan></text>
        <text id="Jul" transform="translate(174.895 3)" fill="#b4d0f7" font-size="3" font-family="Arial-BoldMT, Arial" font-weight="700"><tspan x="-2.167" y="0">Jul</tspan></text>
        <text id="Aug" transform="translate(203.912 3.499)" fill="#b4d0f7" font-size="3" font-family="Arial-BoldMT, Arial" font-weight="700"><tspan x="-2.916" y="0">Aug</tspan></text>
        <text id="Sep" transform="translate(233.086 3)" fill="#b4d0f7" font-size="3" font-family="Arial-BoldMT, Arial" font-weight="700"><tspan x="-2.751" y="0">Sep</tspan></text>
        <text id="Oct" transform="translate(268.888 3)" fill="#b4d0f7" font-size="3" font-family="Arial-BoldMT, Arial" font-weight="700"><tspan x="-2.5" y="0">Oct</tspan></text>
        <text id="Nov" transform="translate(299.353 3)" fill="#b4d0f7" font-size="3" font-family="Arial-BoldMT, Arial" font-weight="700"><tspan x="-2.834" y="0">Nov</tspan></text>
        <text id="Dec" transform="translate(319.365 3)" fill="#b4d0f7" font-size="3" font-family="Arial-BoldMT, Arial" font-weight="700"><tspan x="-2.752" y="0">Dec</tspan></text>
      </g>
    </g>
    <rect id="Rectangle_106" data-name="Rectangle 106" width="351" height="87" rx="10" transform="translate(12 598)" fill="#a5a5a5"/>
    <text id="Add_Money_" data-name="Add Money " transform="translate(188 657)" fill="#58ffb8" font-size="43" font-family="SourceCodePro-Bold, Source Code Pro" font-weight="700"><tspan x="-129" y="0">Add Money </tspan></text>
    <rect id="Rectangle_105" data-name="Rectangle 105" width="351" height="87" rx="10" transform="translate(12 707)" fill="#a5a5a5"/>
    <text id="Monthly_Savings" data-name="Monthly Savings" transform="translate(187 763)" fill="#8579b9" font-size="35" font-family="SourceCodePro-Bold, Source Code Pro" font-weight="700"><tspan x="-157.5" y="0">Monthly Savings</tspan></text>
  </g>
</svg>
