<svg xmlns="http://www.w3.org/2000/svg" xmlns:xlink="http://www.w3.org/1999/xlink" width="1920" height="1080" viewBox="0 0 1920 1080">
  <defs>
    <clipPath id="clip-Web_1920_22">
      <rect width="1920" height="1080"/>
    </clipPath>
  </defs>
  <g id="Web_1920_22" data-name="Web 1920 – 22" clip-path="url(#clip-Web_1920_22)">
    <rect id="Rectangle_8" data-name="Rectangle 8" width="1881" height="1047" rx="41" transform="translate(19 17)" fill="#393939"/>
    <rect id="Rectangle_34" data-name="Rectangle 34" width="174" height="897" transform="translate(529 167)" fill="#e7e7e7"/>
    <rect id="Rectangle_35" data-name="Rectangle 35" width="174" height="745" transform="translate(1727 167)" fill="snow"/>
    <rect id="Rectangle_32" data-name="Rectangle 32" width="1372" height="1046" rx="41" transform="translate(529 17)"/>
    <rect id="Rectangle_49" data-name="Rectangle 49" width="632" height="662" rx="41" transform="translate(1239 333)" fill="#a5a5a5"/>
    <rect id="Rectangle_33" data-name="Rectangle 33" width="322" height="1046" transform="translate(513 17)"/>
    <rect id="Rectangle_50" data-name="Rectangle 50" width="632" height="662" rx="41" transform="translate(558 333)" fill="#a5a5a5"/>
    <text id="HSBC_Super_Saver" data-name="HSBC Super Saver" transform="translate(558 265)" fill="#58ffb8" font-size="50" font-family="HelveticaNeue-Light, Helvetica Neue" font-weight="300"><tspan x="0" y="0">HSBC Super Saver</tspan></text>
    <text id="General" transform="translate(1089 265)" fill="#58ffb8" font-size="50" font-family="HelveticaNeue-Light, Helvetica Neue" font-weight="300"><tspan x="0" y="0">General</tspan></text>
    <text id="_10_203" data-name="£10,203" transform="translate(1416 265)" fill="#58ffb8" font-size="50" font-family="HelveticaNeue-Light, Helvetica Neue" font-weight="300"><tspan x="0" y="0">£10,203</tspan></text>
    <text id="_0.05_" data-name="0.05%" transform="translate(1719 265)" fill="#58ffb8" font-size="50" font-family="HelveticaNeue-Light, Helvetica Neue" font-weight="300"><tspan x="0" y="0">0.05%</tspan></text>
    <rect id="Rectangle_87" data-name="Rectangle 87" width="563" height="82" rx="20" transform="translate(1283 375)" fill="#bebebe"/>
    <rect id="Rectangle_88" data-name="Rectangle 88" width="563" height="82" rx="20" transform="translate(1284 497)" fill="#bebebe"/>
    <rect id="Rectangle_89" data-name="Rectangle 89" width="563" height="82" rx="20" transform="translate(1283 619)" fill="#bebebe"/>
    <rect id="Rectangle_90" data-name="Rectangle 90" width="563" height="82" rx="20" transform="translate(1283 741)" fill="#bebebe"/>
    <rect id="Rectangle_91" data-name="Rectangle 91" width="563" height="82" rx="20" transform="translate(1283 863)" fill="#bebebe"/>
    <text id="January" transform="translate(1356 427)" fill="#fff" font-size="28" font-family="HelveticaNeue-Light, Helvetica Neue" font-weight="300"><tspan x="-47.46" y="0">January</tspan></text>
    <text id="February" transform="translate(1362 549)" fill="#fff" font-size="28" font-family="HelveticaNeue-Light, Helvetica Neue" font-weight="300"><tspan x="-52.906" y="0">February</tspan></text>
    <text id="March" transform="translate(1309 672)" fill="#fff" font-size="28" font-family="HelveticaNeue-Light, Helvetica Neue" font-weight="300"><tspan x="0" y="0">March</tspan></text>
    <text id="April" transform="translate(1309 793)" fill="#fff" font-size="28" font-family="HelveticaNeue-Light, Helvetica Neue" font-weight="300"><tspan x="0" y="0">April</tspan></text>
    <text id="May" transform="translate(1309 915)" fill="#fff" font-size="28" font-family="HelveticaNeue-Light, Helvetica Neue" font-weight="300"><tspan x="0" y="0">May</tspan></text>
    <text id="_3_102" data-name="£3,102" transform="translate(1819 427)" fill="#fff" font-size="28" font-family="HelveticaNeue-Light, Helvetica Neue" font-weight="300"><tspan x="-85.624" y="0">£3,102</tspan></text>
    <text id="_8_001" data-name="£8,001" transform="translate(1819 549)" fill="#fff" font-size="28" font-family="HelveticaNeue-Light, Helvetica Neue" font-weight="300"><tspan x="-85.624" y="0">£8,001</tspan></text>
    <text id="_1_050" data-name="£1,050" transform="translate(1819 671)" fill="#fff" font-size="28" font-family="HelveticaNeue-Light, Helvetica Neue" font-weight="300"><tspan x="-85.624" y="0">£1,050</tspan></text>
    <text id="_1_100" data-name="£1,100" transform="translate(1819 793)" fill="#fff" font-size="28" font-family="HelveticaNeue-Light, Helvetica Neue" font-weight="300"><tspan x="-85.624" y="0">£1,100</tspan></text>
    <text id="_2_202" data-name="£2,202" transform="translate(1814 916)" fill="#fff" font-size="28" font-family="HelveticaNeue-Light, Helvetica Neue" font-weight="300"><tspan x="-85.624" y="0">£2,202</tspan></text>
    <line id="Line_5" data-name="Line 5" x2="1303" transform="translate(558.5 296.5)" fill="none" stroke="#58ffb8" stroke-width="2"/>
    <rect id="Rectangle_93" data-name="Rectangle 93" width="1883" height="68" transform="translate(19 65)" fill="#a5a5a5"/>
    <path id="ic_home_24px" d="M16,32.75V22.25h7v10.5h8.75v-14H37L19.5,3,2,18.75H7.25v14Z" transform="translate(69 81)" fill="none" stroke="#fff" stroke-width="2"/>
    <g id="Column_Chart1" data-name="Column Chart1" transform="translate(-4107 763.5)">
      <g id="Chart" transform="translate(4685 -407)">
        <g id="m1">
          <rect id="Rectangle_75" data-name="Rectangle 75" width="21.741" height="103.655" rx="10.871" transform="translate(0 494.374)" fill="#58ffb8"/>
          <rect id="Rectangle_76" data-name="Rectangle 76" width="21.741" height="276.413" rx="10.871" transform="translate(43.483 321.615)" fill="#58ffb8"/>
          <rect id="Rectangle_77" data-name="Rectangle 77" width="21.741" height="241.862" rx="10.871" transform="translate(104.138 356.167)" fill="#58ffb8"/>
          <rect id="Rectangle_78" data-name="Rectangle 78" width="21.741" height="103.655" rx="10.871" transform="translate(156.207 494.374)" fill="#58ffb8"/>
          <rect id="Rectangle_79" data-name="Rectangle 79" width="21.741" height="228.041" rx="10.871" transform="translate(208.276 369.988)" fill="#58ffb8"/>
          <rect id="Rectangle_80" data-name="Rectangle 80" width="21.741" height="380.068" rx="10.871" transform="translate(260.345 217.96)" fill="#58ffb8"/>
          <rect id="Rectangle_81" data-name="Rectangle 81" width="21.741" height="207.31" rx="10.871" transform="translate(312.414 390.719)" fill="#58ffb8"/>
          <rect id="Rectangle_82" data-name="Rectangle 82" width="21.741" height="310.965" rx="10.871" transform="translate(364.483 287.064)" fill="#58ffb8"/>
          <rect id="Rectangle_83" data-name="Rectangle 83" width="21.741" height="414.62" rx="10.871" transform="translate(416.552 183.409)" fill="#58ffb8"/>
          <rect id="Rectangle_84" data-name="Rectangle 84" width="21.741" height="380.068" rx="10.871" transform="translate(468.621 217.96)" fill="#58ffb8"/>
          <rect id="Rectangle_85" data-name="Rectangle 85" width="21.741" height="304.055" rx="10.871" transform="translate(529.276 293.974)" fill="#58ffb8"/>
          <rect id="Rectangle_86" data-name="Rectangle 86" width="21.741" height="598.029" rx="10.871" transform="translate(572.759)" fill="#58ffb8"/>
        </g>
      </g>
      <g id="X_Axis" data-name="X Axis" transform="translate(4687.418 195.5)">
        <text id="Jan" transform="translate(8 8)" fill="#58ffb8" font-size="9" font-family="Arial-BoldMT, Arial" font-weight="700"><tspan x="-7.754" y="0">Jan</tspan></text>
        <text id="Feb" transform="translate(51.483 7)" fill="#58ffb8" font-size="8" font-family="Arial-BoldMT, Arial" font-weight="700"><tspan x="-7.111" y="0">Feb</tspan></text>
        <text id="Mar" transform="translate(112.017 7)" fill="#58ffb8" font-size="8" font-family="Arial-BoldMT, Arial" font-weight="700"><tspan x="-7.113" y="0">Mar</tspan></text>
        <text id="Apr" transform="translate(165.006 8)" fill="#58ffb8" font-size="9" font-family="Arial-BoldMT, Arial" font-weight="700"><tspan x="-7.75" y="0">Apr</tspan></text>
        <text id="May-2" data-name="May" transform="translate(216.377 7)" fill="#58ffb8" font-size="8" font-family="Arial-BoldMT, Arial" font-weight="700"><tspan x="-7.781" y="0">May</tspan></text>
        <text id="Jun" transform="translate(268.191 8)" fill="#58ffb8" font-size="9" font-family="Arial-BoldMT, Arial" font-weight="700"><tspan x="-8" y="0">Jun</tspan></text>
        <text id="Jul" transform="translate(319.582 7)" fill="#58ffb8" font-size="8" font-family="Arial-BoldMT, Arial" font-weight="700"><tspan x="-5.779" y="0">Jul</tspan></text>
        <text id="Aug" transform="translate(372.582 8)" fill="#58ffb8" font-size="9" font-family="Arial-BoldMT, Arial" font-weight="700"><tspan x="-8.747" y="0">Aug</tspan></text>
        <text id="Sep" transform="translate(424.741 8)" fill="#58ffb8" font-size="9" font-family="Arial-BoldMT, Arial" font-weight="700"><tspan x="-8.253" y="0">Sep</tspan></text>
        <text id="Oct" transform="translate(475.914 7)" fill="#58ffb8" font-size="8" font-family="Arial-BoldMT, Arial" font-weight="700"><tspan x="-6.668" y="0">Oct</tspan></text>
        <text id="Nov" transform="translate(537.531 8)" fill="#58ffb8" font-size="9" font-family="Arial-BoldMT, Arial" font-weight="700"><tspan x="-8.501" y="0">Nov</tspan></text>
        <text id="Dec" transform="translate(581.014 8)" fill="#58ffb8" font-size="9" font-family="Arial-BoldMT, Arial" font-weight="700"><tspan x="-8.255" y="0">Dec</tspan></text>
      </g>
    </g>
    <path id="ic_add_to_photos_24px" d="M5.5,9H2V33.5A3.51,3.51,0,0,0,5.5,37H30V33.5H5.5Zm28-7h-21A3.51,3.51,0,0,0,9,5.5v21A3.51,3.51,0,0,0,12.5,30h21A3.51,3.51,0,0,0,37,26.5V5.5A3.51,3.51,0,0,0,33.5,2ZM31.75,17.75h-7v7h-3.5v-7h-7v-3.5h7v-7h3.5v7h7Z" transform="translate(178.25 79.25)" fill="none" stroke="#fff" stroke-width="2"/>
    <g id="ic_border_color_24px" transform="translate(290 77.75)">
      <path id="Path_81" data-name="Path 81" d="M28.063,12.252,21.5,5.689,4,23.189v6.563h6.563Zm5.18-5.18a1.743,1.743,0,0,0,0-2.468L29.148.509a1.743,1.743,0,0,0-2.468,0l-3.43,3.43L29.813,10.5Z" transform="translate(3 0.002)" fill="none" stroke="#f8fcff" stroke-width="2"/>
      <path id="Path_82" data-name="Path 82" d="M0,20H42v7H0Z" transform="translate(0 15.004)" fill="none" stroke="#f8fcff" stroke-width="2"/>
    </g>
    <path id="ic_remove_red_eye_24px" d="M20.25,4.5A20.7,20.7,0,0,0,1,17.625a20.679,20.679,0,0,0,38.5,0A20.7,20.7,0,0,0,20.25,4.5Zm0,21.875A8.75,8.75,0,1,1,29,17.625,8.753,8.753,0,0,1,20.25,26.375Zm0-14a5.25,5.25,0,1,0,5.25,5.25A5.243,5.243,0,0,0,20.25,12.375Z" transform="translate(405.5 81.75)" fill="none" stroke="#fff" stroke-width="2"/>
    <text id="_user-name_" data-name="[user-name]" transform="translate(1555 112)" fill="#fff" font-size="40" font-family="SourceCodePro-Light, Source Code Pro" font-weight="300"><tspan x="0" y="0">[user-name]</tspan></text>
    <rect id="Rectangle_31" data-name="Rectangle 31" width="376" height="206" rx="20" transform="translate(49 201)" fill="rgba(255,255,255,0.55)"/>
    <g id="Group_3" data-name="Group 3" transform="translate(-107 -81)">
      <g id="Group_2" data-name="Group 2" transform="translate(552 303)">
        <circle id="Ellipse_3" data-name="Ellipse 3" cx="21" cy="21" r="21" fill="#58ffb8"/>
      </g>
      <path id="ic_edit_24px" d="M3,16.362v3.516H6.516L16.888,9.508,13.371,5.991ZM19.607,6.788a.934.934,0,0,0,0-1.322L17.413,3.272a.934.934,0,0,0-1.322,0L14.375,4.988,17.891,8.5l1.716-1.716Z" transform="translate(562.02 313.022)" fill="#fff"/>
    </g>
    <rect id="Rectangle_36" data-name="Rectangle 36" width="376" height="206" rx="20" transform="translate(49 454)" fill="rgba(255,255,255,0.55)"/>
    <rect id="Rectangle_38" data-name="Rectangle 38" width="376" height="206" rx="20" transform="translate(49 707)" fill="rgba(255,255,255,0.55)"/>
    <rect id="Rectangle_39" data-name="Rectangle 39" width="376" height="104" rx="20" transform="translate(49 960)" fill="rgba(255,255,255,0.55)"/>
    <text id="HSBC_Super_Saver-2" data-name="HSBC Super Saver" transform="translate(88 256)" fill="#58ffb8" font-size="27" font-family="HelveticaNeue-Bold, Helvetica Neue" font-weight="700"><tspan x="0" y="0">HSBC Super Saver</tspan></text>
    <text id="RBS_Savings" data-name="RBS Savings" transform="translate(88 509)" fill="#58ffb8" font-size="27" font-family="HelveticaNeue-Bold, Helvetica Neue" font-weight="700"><tspan x="0" y="0">RBS Savings</tspan></text>
    <text id="Santander_Saver" data-name="Santander Saver" transform="translate(88 762)" fill="#58ffb8" font-size="27" font-family="HelveticaNeue-Bold, Helvetica Neue" font-weight="700"><tspan x="0" y="0">Santander Saver</tspan></text>
    <text id="ISA_Cash" data-name="ISA Cash" transform="translate(88 1015)" fill="#58ffb8" font-size="27" font-family="HelveticaNeue-Bold, Helvetica Neue" font-weight="700"><tspan x="0" y="0">ISA Cash</tspan></text>
    <text id="Goal_" data-name="Goal " transform="translate(111 323)" fill="#58ffb8" font-size="28" font-family="HelveticaNeue-Light, Helvetica Neue" font-weight="300"><tspan x="-31.906" y="0">Goal </tspan></text>
    <text id="Category" transform="translate(79 365)" fill="#58ffb8" font-size="28" font-family="HelveticaNeue-Light, Helvetica Neue" font-weight="300"><tspan x="0" y="0">Category</tspan></text>
    <text id="_10_203-2" data-name="£10,203" transform="translate(365 323)" fill="#58ffb8" font-size="28" font-family="HelveticaNeue-Light, Helvetica Neue" font-weight="300"><tspan x="-50.596" y="0">£10,203</tspan></text>
    <text id="General-2" data-name="General" transform="translate(411 365)" fill="#58ffb8" font-size="28" font-family="HelveticaNeue-Light, Helvetica Neue" font-weight="300"><tspan x="-93.38" y="0">General</tspan></text>
    <text id="Goal_2" data-name="Goal " transform="translate(111 576)" fill="#58ffb8" font-size="28" font-family="HelveticaNeue-Light, Helvetica Neue" font-weight="300"><tspan x="-31.906" y="0">Goal </tspan></text>
    <text id="Category-2" data-name="Category" transform="translate(79 618)" fill="#58ffb8" font-size="28" font-family="HelveticaNeue-Light, Helvetica Neue" font-weight="300"><tspan x="0" y="0">Category</tspan></text>
    <text id="_1_101" data-name="£1,101" transform="translate(365 576)" fill="#58ffb8" font-size="28" font-family="HelveticaNeue-Light, Helvetica Neue" font-weight="300"><tspan x="-42.812" y="0">£1,101</tspan></text>
    <text id="Birthday" transform="translate(411 618)" fill="#58ffb8" font-size="28" font-family="HelveticaNeue-Light, Helvetica Neue" font-weight="300"><tspan x="-99.568" y="0">Birthday</tspan></text>
    <text id="Goal_3" data-name="Goal " transform="translate(111 829)" fill="#58ffb8" font-size="28" font-family="HelveticaNeue-Light, Helvetica Neue" font-weight="300"><tspan x="-31.906" y="0">Goal </tspan></text>
    <text id="Category-3" data-name="Category" transform="translate(79 871)" fill="#58ffb8" font-size="28" font-family="HelveticaNeue-Light, Helvetica Neue" font-weight="300"><tspan x="0" y="0">Category</tspan></text>
    <text id="_3_763" data-name="£3,763" transform="translate(365 829)" fill="#58ffb8" font-size="28" font-family="HelveticaNeue-Light, Helvetica Neue" font-weight="300"><tspan x="-42.812" y="0">£3,763</tspan></text>
    <text id="Holiday" transform="translate(411 871)" fill="#58ffb8" font-size="28" font-family="HelveticaNeue-Light, Helvetica Neue" font-weight="300"><tspan x="-89.208" y="0">Holiday</tspan></text>
    <g id="Group_9" data-name="Group 9" transform="translate(-107 170)">
      <g id="Group_2-2" data-name="Group 2" transform="translate(552 303)">
        <circle id="Ellipse_3-2" data-name="Ellipse 3" cx="21" cy="21" r="21" fill="#58ffb8"/>
      </g>
      <path id="ic_edit_24px-2" data-name="ic_edit_24px" d="M3,16.362v3.516H6.516L16.888,9.508,13.371,5.991ZM19.607,6.788a.934.934,0,0,0,0-1.322L17.413,3.272a.934.934,0,0,0-1.322,0L14.375,4.988,17.891,8.5l1.716-1.716Z" transform="translate(562.02 313.022)" fill="#fff"/>
    </g>
    <g id="Group_10" data-name="Group 10" transform="translate(-107 428)">
      <g id="Group_2-3" data-name="Group 2" transform="translate(552 303)">
        <circle id="Ellipse_3-3" data-name="Ellipse 3" cx="21" cy="21" r="21" fill="#58ffb8"/>
      </g>
      <path id="ic_edit_24px-3" data-name="ic_edit_24px" d="M3,16.362v3.516H6.516L16.888,9.508,13.371,5.991ZM19.607,6.788a.934.934,0,0,0,0-1.322L17.413,3.272a.934.934,0,0,0-1.322,0L14.375,4.988,17.891,8.5l1.716-1.716Z" transform="translate(562.02 313.022)" fill="#fff"/>
    </g>
    <g id="Group_11" data-name="Group 11" transform="translate(-107 681)">
      <g id="Group_2-4" data-name="Group 2" transform="translate(552 303)">
        <circle id="Ellipse_3-4" data-name="Ellipse 3" cx="21" cy="21" r="21" fill="#58ffb8"/>
      </g>
      <path id="ic_edit_24px-4" data-name="ic_edit_24px" d="M3,16.362v3.516H6.516L16.888,9.508,13.371,5.991ZM19.607,6.788a.934.934,0,0,0,0-1.322L17.413,3.272a.934.934,0,0,0-1.322,0L14.375,4.988,17.891,8.5l1.716-1.716Z" transform="translate(562.02 313.022)" fill="#fff"/>
    </g>
    <path id="ic_person_24px" d="M27.81,27.81A11.9,11.9,0,1,0,15.9,15.9,11.9,11.9,0,0,0,27.81,27.81Zm0,5.952C19.863,33.762,4,37.75,4,45.667V51.62H51.62V45.667C51.62,37.75,35.756,33.762,27.81,33.762Z" transform="translate(1831 70.245)" fill="#fff"/>
  </g>
</svg>
