<svg xmlns="http://www.w3.org/2000/svg" xmlns:xlink="http://www.w3.org/1999/xlink" width="1920" height="1080" viewBox="0 0 1920 1080">
  <defs>
    <linearGradient id="linear-gradient" x2="1.054" y2="0.947" gradientUnits="objectBoundingBox">
      <stop offset="0" stop-color="#fff"/>
      <stop offset="1"/>
    </linearGradient>
    <filter id="Rectangle_36" x="66.5" y="-13.5" width="1987" height="1208" filterUnits="userSpaceOnUse">
      <feOffset dx="100" dy="50" input="SourceAlpha"/>
      <feGaussianBlur stdDeviation="49.5" result="blur"/>
      <feFlood flood-opacity="0.161"/>
      <feComposite operator="in" in2="blur"/>
      <feComposite in="SourceGraphic"/>
    </filter>
    <linearGradient id="linear-gradient-2" x2="1.054" y2="0.947" gradientUnits="objectBoundingBox">
      <stop offset="0" stop-color="#fff"/>
      <stop offset="0.966"/>
      <stop offset="1" stop-color="#fc00ff"/>
    </linearGradient>
    <clipPath id="clip-path">
      <rect id="Rectangle_33" data-name="Rectangle 33" width="284.706" height="168.12" rx="13" fill="url(#linear-gradient)"/>
    </clipPath>
    <linearGradient id="linear-gradient-3" y1="0.38" x2="1.107" y2="0.241" xlink:href="#linear-gradient"/>
    <filter id="Path_49" x="1315.207" y="192.335" width="577.361" height="493.123" filterUnits="userSpaceOnUse">
      <feOffset dy="3" input="SourceAlpha"/>
      <feGaussianBlur stdDeviation="30" result="blur-2"/>
      <feFlood flood-opacity="0.251"/>
      <feComposite operator="in" in2="blur-2"/>
      <feComposite in="SourceGraphic"/>
    </filter>
    <filter id="Path_48" x="1313.271" y="194.915" width="503.615" height="490.543" filterUnits="userSpaceOnUse">
      <feOffset dy="3" input="SourceAlpha"/>
      <feGaussianBlur stdDeviation="30" result="blur-3"/>
      <feFlood flood-opacity="0.251"/>
      <feComposite operator="in" in2="blur-3"/>
      <feComposite in="SourceGraphic"/>
    </filter>
    <linearGradient id="linear-gradient-5" x1="0.5" x2="0.5" y2="1" xlink:href="#linear-gradient"/>
    <filter id="Path_47" x="1311.027" y="189.347" width="376.627" height="451.054" filterUnits="userSpaceOnUse">
      <feOffset dy="3" input="SourceAlpha"/>
      <feGaussianBlur stdDeviation="30" result="blur-4"/>
      <feFlood flood-opacity="0.251"/>
      <feComposite operator="in" in2="blur-4"/>
      <feComposite in="SourceGraphic"/>
    </filter>
    <linearGradient id="linear-gradient-6" x1="0.5" y1="-0.103" x2="0.365" y2="1.524" gradientUnits="objectBoundingBox">
      <stop offset="0"/>
      <stop offset="1" stop-color="#fff"/>
    </linearGradient>
    <filter id="Path_50" x="1621.389" y="177.308" width="230.787" height="225.161" filterUnits="userSpaceOnUse">
      <feOffset input="SourceAlpha"/>
      <feGaussianBlur stdDeviation="14.5" result="blur-5"/>
      <feFlood flood-opacity="0.161"/>
      <feComposite operator="in" in2="blur-5"/>
      <feComposite in="SourceGraphic"/>
    </filter>
    <linearGradient id="linear-gradient-7" x1="0.699" y1="-0.056" x2="0.5" y2="1" xlink:href="#linear-gradient"/>
    <filter id="Ellipse_7" x="1276.64" y="243.611" width="511.105" height="511.106" filterUnits="userSpaceOnUse">
      <feOffset dy="3" input="SourceAlpha"/>
      <feGaussianBlur stdDeviation="37" result="blur-6"/>
      <feFlood flood-opacity="0.251"/>
      <feComposite operator="in" in2="blur-6"/>
      <feComposite in="SourceGraphic"/>
    </filter>
    <clipPath id="clip-path-2">
      <rect width="803.027" height="266.989" fill="none"/>
    </clipPath>
    <clipPath id="clip-path-3">
      <rect width="803.686" height="243.358" fill="none"/>
    </clipPath>
    <linearGradient id="linear-gradient-8" x1="0.5" x2="0.5" y2="1" gradientUnits="objectBoundingBox">
      <stop offset="0" stop-color="#707070"/>
      <stop offset="1" stop-color="#fff"/>
    </linearGradient>
    <clipPath id="clip-Web_1920_17">
      <rect width="1920" height="1080"/>
    </clipPath>
  </defs>
  <g id="Web_1920_17" data-name="Web 1920 – 17" clip-path="url(#clip-Web_1920_17)">
    <rect width="1920" height="1080" fill="#f5f5f5"/>
    <g transform="matrix(1, 0, 0, 1, 0, 0)" filter="url(#Rectangle_36)">
      <rect id="Rectangle_36-2" data-name="Rectangle 36" width="1690" height="911" rx="43" transform="translate(115 85)" fill="#fff"/>
    </g>
    <line id="Line_9" data-name="Line 9" x2="1690" transform="translate(115.5 255.5)" fill="none" stroke="#707070" stroke-width="1"/>
    <text id="User" transform="translate(1583 198)" fill="#707070" font-size="63" font-family="HelveticaNeue, Helvetica Neue"><tspan x="0" y="0">User</tspan></text>
    <g id="card3" transform="translate(1454.294 154.238)">
      <path id="background" d="M9.873,0H274.833a9.873,9.873,0,0,1,9.873,9.873V158.247a9.873,9.873,0,0,1-9.873,9.873H9.873A9.873,9.873,0,0,1,0,158.247V9.873A9.873,9.873,0,0,1,9.873,0Z" transform="translate(-14 132)" fill="url(#linear-gradient-2)"/>
      <g id="Card_Design" data-name="Card Design" transform="translate(-14 132)" clip-path="url(#clip-path)">
        <g id="Group_38" data-name="Group 38" transform="translate(-52.654 -65.429)">
          <g transform="matrix(1, 0, 0, 1, -1387.64, -220.81)" filter="url(#Path_49)">
            <path id="Path_49-2" data-name="Path 49" d="M0,0S258.821,7.749,317.723,73.947s79.638,195.224,79.638,195.224L90.423,313.123Z" transform="translate(1405.21 279.33)" fill="url(#linear-gradient-3)"/>
          </g>
          <g transform="matrix(1, 0, 0, 1, -1387.64, -220.81)" filter="url(#Path_48)">
            <path id="Path_48-2" data-name="Path 48" d="M0,0S176.676,24.055,235.578,90.253,323.615,266.59,323.615,266.59L16.677,310.543Z" transform="translate(1403.27 281.91)" fill="url(#linear-gradient-3)"/>
          </g>
          <g transform="matrix(1, 0, 0, 1, -1387.64, -220.81)" filter="url(#Path_47)">
            <path id="Path_47-2" data-name="Path 47" d="M12.909,0S104,46.614,149.609,102.079s47.018,130.068,47.018,130.068L0,271.054Z" transform="translate(1401.03 276.35)" fill="url(#linear-gradient-5)"/>
          </g>
          <g transform="matrix(1, 0, 0, 1, -1387.64, -220.81)" filter="url(#Path_50)">
            <path id="Path_50-2" data-name="Path 50" d="M0,0S.392,40.467,28.127,75.007s82.812,63.152,82.812,63.152,50.144.7,26.524-26.561S0,0,0,0Z" transform="translate(1664.89 220.81)" fill="url(#linear-gradient-6)"/>
          </g>
          <g transform="matrix(1, 0, 0, 1, -1387.64, -220.81)" filter="url(#Ellipse_7)">
            <ellipse id="Ellipse_7-2" data-name="Ellipse 7" cx="118.027" cy="118.027" rx="118.027" ry="118.027" transform="matrix(-0.26, 0.97, -0.97, -0.26, 1676.75, 412.71)" opacity="0.702" fill="url(#linear-gradient-7)"/>
          </g>
        </g>
      </g>
      <g id="Card_Text" data-name="Card Text" transform="translate(-1.302 132.409)">
        <text id="OLLI_FARLEY" data-name="OLLI FARLEY" transform="translate(1.69 134.493)" fill="#fff" font-size="15" font-family="ProximaNovaT-Thin, Proxima Nova" font-weight="200" letter-spacing="0.012em"><tspan x="0" y="0">OLLI FARLEY</tspan></text>
        <text id="Regalia" transform="translate(1.69 10)" fill="#fff" font-size="11" font-family="ProximaNovaT-Thin, Proxima Nova" font-weight="200" letter-spacing="0.012em"><tspan x="0" y="0">Regalia</tspan></text>
        <text id="_5535_" data-name="5535 " transform="translate(0 68.904)" fill="#fff" font-size="19" font-family="ProximaNovaT-Thin, Proxima Nova" font-weight="200" letter-spacing="0.012em"><tspan x="0" y="0">5535</tspan><tspan y="0" fill="#000"> </tspan></text>
        <text id="_" data-name="••••" transform="translate(65.052 69.3)" fill="#fff" font-size="28" font-family="ProximaNovaT-Thin, Proxima Nova" font-weight="200" letter-spacing="0.012em"><tspan x="0" y="0">••••</tspan></text>
        <text id="_2" data-name="••••" transform="translate(120.81 69.3)" fill="#fff" font-size="28" font-family="ProximaNovaT-Thin, Proxima Nova" font-weight="200" letter-spacing="0.012em"><tspan x="0" y="0">••••</tspan></text>
        <text id="_2296" data-name="2296" transform="translate(174.879 68.904)" fill="#fff" font-size="19" font-family="ProximaNovaT-Thin, Proxima Nova" font-weight="200" letter-spacing="0.012em"><tspan x="0" y="0">2296</tspan></text>
        <g id="visa_logo" data-name="visa logo" transform="translate(196.746 97.103)">
          <g id="Group_46" data-name="Group 46" transform="translate(4.994 22.919)">
            <path id="Path_67" data-name="Path 67" d="M23,16.928h-4.33L21.38.3h4.33ZM15.031.3,10.9,11.736l-.488-2.463h0L8.958,1.795A1.854,1.854,0,0,0,6.9.3H.08L0,.579a16.2,16.2,0,0,1,4.529,1.9L8.291,16.929H12.8L19.691.3ZM49.088,16.928h3.976L49.6.3H46.117a1.99,1.99,0,0,0-2,1.239L37.66,16.928h4.514l.9-2.47h5.5Zm-4.765-5.883L46.6,4.821l1.28,6.224ZM38,4.3,38.617.725A12.5,12.5,0,0,0,34.722,0c-2.149,0-7.251.939-7.251,5.506,0,4.3,5.989,4.35,5.989,6.607s-5.372,1.852-7.145.429l-.644,3.734a12.134,12.134,0,0,0,4.887.939c2.955,0,7.412-1.53,7.412-5.694,0-4.324-6.043-4.727-6.043-6.607S36.146,3.276,38,4.3Z" transform="translate(0 0)" fill="#fff"/>
          </g>
          <path id="Path_68" data-name="Path 68" d="M10.415,8.977,8.958,1.5A1.854,1.854,0,0,0,6.9,0H.08L0,.282A16.776,16.776,0,0,1,6.426,3.508,12.969,12.969,0,0,1,10.415,8.977Z" transform="translate(4.994 23.216)" fill="#fff"/>
          <path id="Path_69" data-name="Path 69" d="M0,0H63.052V63.052H0Z" fill="none"/>
        </g>
      </g>
    </g>
    <g id="Rectangle_48" data-name="Rectangle 48" transform="translate(147 289)" fill="#fff" stroke="#707070" stroke-width="1">
      <rect width="399" height="115" rx="15" stroke="none"/>
      <rect x="0.5" y="0.5" width="398" height="114" rx="14.5" fill="none"/>
    </g>
    <text id="New_Account" data-name="New Account" transform="translate(346 364)" fill="#707070" font-size="52" font-family="HelveticaNeue, Helvetica Neue"><tspan x="-156.468" y="0">New Account</tspan></text>
    <g id="Rectangle_48-2" data-name="Rectangle 48" transform="translate(147 450)" fill="#fff" stroke="#707070" stroke-width="1">
      <rect width="399" height="115" rx="15" stroke="none"/>
      <rect x="0.5" y="0.5" width="398" height="114" rx="14.5" fill="none"/>
    </g>
    <text id="Home" transform="translate(346 525)" fill="#707070" font-size="52" font-family="HelveticaNeue, Helvetica Neue"><tspan x="-69.836" y="0">Home</tspan></text>
    <g id="Rectangle_50" data-name="Rectangle 50" transform="translate(147 611)" fill="#fff" stroke="#707070" stroke-width="1">
      <rect width="399" height="342" rx="15" stroke="none"/>
      <rect x="0.5" y="0.5" width="398" height="341" rx="14.5" fill="none"/>
    </g>
    <text id="Account_Name" data-name="Account Name" transform="translate(346 692)" fill="#707070" font-size="52" font-family="HelveticaNeue, Helvetica Neue"><tspan x="-172.9" y="0">Account Name</tspan></text>
    <text id="Interest_on_Acc." data-name="Interest on Acc." transform="translate(346 787)" fill="#707070" font-size="52" font-family="HelveticaNeue, Helvetica Neue"><tspan x="-182.52" y="0">Interest on Acc.</tspan></text>
    <text id="Savings_Goal" data-name="Savings Goal" transform="translate(346 882)" fill="#707070" font-size="52" font-family="HelveticaNeue, Helvetica Neue"><tspan x="-153.582" y="0">Savings Goal</tspan></text>
    <g id="Repeat_Grid_4" data-name="Repeat Grid 4" transform="translate(597.314 289.955)" clip-path="url(#clip-path-2)">
      <g transform="translate(-633.5 -468)">
        <line id="Line_12" data-name="Line 12" x2="802" transform="translate(633.5 468.5)" fill="none" stroke="#707070" stroke-width="1"/>
      </g>
      <g transform="translate(-633.5 -431)">
        <line id="Line_12-2" data-name="Line 12" x2="802" transform="translate(633.5 468.5)" fill="none" stroke="#707070" stroke-width="1"/>
      </g>
      <g transform="translate(-633.5 -394)">
        <line id="Line_12-3" data-name="Line 12" x2="802" transform="translate(633.5 468.5)" fill="none" stroke="#707070" stroke-width="1"/>
      </g>
      <g transform="translate(-633.5 -357)">
        <line id="Line_12-4" data-name="Line 12" x2="802" transform="translate(633.5 468.5)" fill="none" stroke="#707070" stroke-width="1"/>
      </g>
      <g transform="translate(-633.5 -320)">
        <line id="Line_12-5" data-name="Line 12" x2="802" transform="translate(633.5 468.5)" fill="none" stroke="#707070" stroke-width="1"/>
      </g>
      <g transform="translate(-633.5 -283)">
        <line id="Line_12-6" data-name="Line 12" x2="802" transform="translate(633.5 468.5)" fill="none" stroke="#707070" stroke-width="1"/>
      </g>
      <g transform="translate(-633.5 -246)">
        <line id="Line_12-7" data-name="Line 12" x2="802" transform="translate(633.5 468.5)" fill="none" stroke="#707070" stroke-width="1"/>
      </g>
      <g transform="translate(-633.5 -209)">
        <line id="Line_12-8" data-name="Line 12" x2="802" transform="translate(633.5 468.5)" fill="none" stroke="#707070" stroke-width="1"/>
      </g>
    </g>
    <g id="Repeat_Grid_5" data-name="Repeat Grid 5" transform="translate(596.984 290.285)" clip-path="url(#clip-path-3)">
      <g transform="translate(-632 -478.5)">
        <line id="Line_13" data-name="Line 13" y2="445" transform="translate(632.5 478.5)" fill="none" stroke="#707070" stroke-width="1"/>
      </g>
      <g transform="translate(-522 -478.5)">
        <line id="Line_13-2" data-name="Line 13" y2="445" transform="translate(632.5 478.5)" fill="none" stroke="#707070" stroke-width="1"/>
      </g>
      <g transform="translate(-412 -478.5)">
        <line id="Line_13-3" data-name="Line 13" y2="445" transform="translate(632.5 478.5)" fill="none" stroke="#707070" stroke-width="1"/>
      </g>
      <g transform="translate(-302 -478.5)">
        <line id="Line_13-4" data-name="Line 13" y2="445" transform="translate(632.5 478.5)" fill="none" stroke="#707070" stroke-width="1"/>
      </g>
      <g transform="translate(-192 -478.5)">
        <line id="Line_13-5" data-name="Line 13" y2="445" transform="translate(632.5 478.5)" fill="none" stroke="#707070" stroke-width="1"/>
      </g>
      <g transform="translate(-82 -478.5)">
        <line id="Line_13-6" data-name="Line 13" y2="445" transform="translate(632.5 478.5)" fill="none" stroke="#707070" stroke-width="1"/>
      </g>
      <g transform="translate(28 -478.5)">
        <line id="Line_13-7" data-name="Line 13" y2="445" transform="translate(632.5 478.5)" fill="none" stroke="#707070" stroke-width="1"/>
      </g>
      <g transform="translate(138 -478.5)">
        <line id="Line_13-8" data-name="Line 13" y2="445" transform="translate(632.5 478.5)" fill="none" stroke="#707070" stroke-width="1"/>
      </g>
    </g>
    <path id="Path_77" data-name="Path 77" d="M6603,1966.067s6.139-171.037,46.711-171.182,16.58,71.93,49.607,72.053,11.563-121.411,45-121.221,56.06,145.9,93.48,145.945,17.218-121.589,49.429-121.627,23.447,30.321,47.549,48.5,18.82,14.279,42.414,27.108,30.371,16.618,55.932,30.625,44.063,15.824,44.063,15.824,22.024.554,45.927-23.8,29.017-41.766,45.245-73.622,21.605-49.157,45.276-49.157,31.224,16.707,49.3,49.157,19.239,73.155,46.771,72.991,24.323-126.777,48.688-145.573,44.457,72.581,44.457,72.581v171.412Z" transform="translate(-6005.356 -1432.424)" fill="url(#linear-gradient-8)"/>
    <text id="JAN" transform="translate(616 586)" fill="#707070" font-size="22" font-family="HelveticaNeue, Helvetica Neue"><tspan x="-20.779" y="0">JAN</tspan></text>
    <text id="FEB" transform="translate(753 586)" fill="#707070" font-size="22" font-family="HelveticaNeue, Helvetica Neue"><tspan x="-20.57" y="0">FEB</tspan></text>
    <text id="MARCH" transform="translate(909 586)" fill="#707070" font-size="22" font-family="HelveticaNeue, Helvetica Neue"><tspan x="-40.128" y="0">MARCH</tspan></text>
    <text id="APRIL" transform="translate(1075 586)" fill="#707070" font-size="22" font-family="HelveticaNeue, Helvetica Neue"><tspan x="-30.756" y="0">APRIL</tspan></text>
    <text id="MAY" transform="translate(1224 586)" fill="#707070" font-size="22" font-family="HelveticaNeue, Helvetica Neue"><tspan x="-23.023" y="0">MAY</tspan></text>
    <text id="JUNE" transform="translate(1370 586)" fill="#707070" font-size="22" font-family="HelveticaNeue, Helvetica Neue"><tspan x="-28.314" y="0">JUNE</tspan></text>
    <text id="_0" data-name="0" transform="translate(585 536)" fill="#707070" font-size="22" font-family="HelveticaNeue, Helvetica Neue"><tspan x="-6.116" y="0">0</tspan></text>
    <text id="_5" data-name="5" transform="translate(585 462)" fill="#707070" font-size="22" font-family="HelveticaNeue, Helvetica Neue"><tspan x="-6.116" y="0">5</tspan></text>
    <text id="_10" data-name="10" transform="translate(578 385)" fill="#707070" font-size="22" font-family="HelveticaNeue, Helvetica Neue"><tspan x="-12.232" y="0">10</tspan></text>
    <text id="_15" data-name="15" transform="translate(578 307)" fill="#707070" font-size="22" font-family="HelveticaNeue, Helvetica Neue"><tspan x="-12.232" y="0">15</tspan></text>
    <g id="Rectangle_51" data-name="Rectangle 51" transform="translate(579 642)" fill="#fff" stroke="#707070" stroke-width="1">
      <rect width="818" height="311" rx="15" stroke="none"/>
      <rect x="0.5" y="0.5" width="817" height="310" rx="14.5" fill="none"/>
    </g>
    <line id="Line_14" data-name="Line 14" y2="272" transform="translate(668.5 659.5)" fill="none" stroke="#707070" stroke-width="1"/>
    <line id="Line_15" data-name="Line 15" x2="758" transform="translate(597.5 737.5)" fill="none" stroke="#707070" stroke-width="1"/>
    <line id="Line_16" data-name="Line 16" x2="758" transform="translate(597.5 862.5)" fill="none" stroke="#707070" stroke-width="1"/>
    <text id="AUG" transform="translate(631 808)" fill="#707070" font-size="25" font-family="HelveticaNeue, Helvetica Neue"><tspan x="-26.612" y="0">AUG</tspan></text>
    <text id="SEP" transform="translate(634 903)" fill="#707070" font-size="25" font-family="HelveticaNeue, Helvetica Neue"><tspan x="-23.837" y="0">SEP</tspan></text>
    <text id="Money_In" data-name="Money In" transform="translate(753 698)" fill="#707070" font-size="25" font-family="HelveticaNeue, Helvetica Neue"><tspan x="-51.638" y="0">Money In</tspan></text>
    <text id="With_Interest" data-name="With Interest" transform="translate(1005 698)" fill="#707070" font-size="25" font-family="HelveticaNeue, Helvetica Neue"><tspan x="-70.387" y="0">With Interest</tspan></text>
    <text id="Total" transform="translate(1290 698)" fill="#707070" font-size="25" font-family="HelveticaNeue, Helvetica Neue"><tspan x="-26.387" y="0">Total</tspan></text>
  </g>
</svg>
