<svg xmlns="http://www.w3.org/2000/svg" xmlns:xlink="http://www.w3.org/1999/xlink" width="1920" height="1080" viewBox="0 0 1920 1080">
  <defs>
    <filter id="Rectangle_36" x="66.5" y="-13.5" width="1987" height="1208" filterUnits="userSpaceOnUse">
      <feOffset dx="100" dy="50" input="SourceAlpha"/>
      <feGaussianBlur stdDeviation="49.5" result="blur"/>
      <feFlood flood-opacity="0.161"/>
      <feComposite operator="in" in2="blur"/>
      <feComposite in="SourceGraphic"/>
    </filter>
    <clipPath id="clip-Web_1920_15">
      <rect width="1920" height="1080"/>
    </clipPath>
  </defs>
  <g id="Web_1920_15" data-name="Web 1920 – 15" clip-path="url(#clip-Web_1920_15)">
    <rect width="1920" height="1080" fill="#f5f5f5"/>
    <g transform="matrix(1, 0, 0, 1, 0, 0)" filter="url(#Rectangle_36)">
      <rect id="Rectangle_36-2" data-name="Rectangle 36" width="1690" height="911" rx="43" transform="translate(115 85)" fill="#fff"/>
    </g>
    <line id="Line_9" data-name="Line 9" x2="1690" transform="translate(115.5 255.5)" fill="none" stroke="#707070" stroke-width="1"/>
    <text id="User" transform="translate(1583 198)" fill="#707070" font-size="63" font-family="HelveticaNeue, Helvetica Neue"><tspan x="0" y="0">User</tspan></text>
    <g id="Rectangle_43" data-name="Rectangle 43" transform="translate(199 315)" fill="#fff" stroke="#707070" stroke-width="1">
      <rect width="632" height="331" rx="15" stroke="none"/>
      <rect x="0.5" y="0.5" width="631" height="330" rx="14.5" fill="none"/>
    </g>
    <text id="Welcome" transform="translate(224 461)" fill="#707070" font-size="86" font-family="HelveticaNeue, Helvetica Neue"><tspan x="0" y="0">Welcome</tspan></text>
    <text id="User_Name" data-name="User Name" transform="translate(224 563)" fill="#707070" font-size="86" font-family="HelveticaNeue-Bold, Helvetica Neue" font-weight="700"><tspan x="0" y="0">User Name</tspan></text>
    <g id="Rectangle_44" data-name="Rectangle 44" transform="translate(856 454)" fill="#fff" stroke="#707070" stroke-width="1">
      <rect width="872" height="477" rx="15" stroke="none"/>
      <rect x="0.5" y="0.5" width="871" height="476" rx="14.5" fill="none"/>
    </g>
    <text id="Savings_Goals" data-name="Savings Goals" transform="translate(1292 542)" fill="#707070" font-size="72" font-family="HelveticaNeue, Helvetica Neue"><tspan x="-230.652" y="0">Savings Goals</tspan></text>
    <g id="Ellipse_8" data-name="Ellipse 8" transform="translate(884 582)" fill="#fff" stroke="#707070" stroke-width="1">
      <circle cx="61.5" cy="61.5" r="61.5" stroke="none"/>
      <circle cx="61.5" cy="61.5" r="61" fill="none"/>
    </g>
    <g id="Ellipse_9" data-name="Ellipse 9" transform="translate(1115 582)" fill="#fff" stroke="#707070" stroke-width="1">
      <circle cx="61.5" cy="61.5" r="61.5" stroke="none"/>
      <circle cx="61.5" cy="61.5" r="61" fill="none"/>
    </g>
    <g id="Ellipse_10" data-name="Ellipse 10" transform="translate(884 769)" fill="#fff" stroke="#707070" stroke-width="1">
      <circle cx="61.5" cy="61.5" r="61.5" stroke="none"/>
      <circle cx="61.5" cy="61.5" r="61" fill="none"/>
    </g>
    <g id="Ellipse_11" data-name="Ellipse 11" transform="translate(1115 769)" fill="#fff" stroke="#707070" stroke-width="1">
      <circle cx="61.5" cy="61.5" r="61.5" stroke="none"/>
      <circle cx="61.5" cy="61.5" r="61" fill="none"/>
    </g>
    <g id="Rectangle_45" data-name="Rectangle 45" transform="translate(199 669)" fill="#fff" stroke="#707070" stroke-width="1">
      <rect width="632" height="259" rx="15" stroke="none"/>
      <rect x="0.5" y="0.5" width="631" height="258" rx="14.5" fill="none"/>
    </g>
    <text id="Total_Savings_Goals" data-name="Total Savings Goals" transform="translate(515 766)" fill="#707070" font-size="58" font-family="HelveticaNeue, Helvetica Neue"><tspan x="-255.084" y="0">Total Savings Goals</tspan></text>
    <g id="Rectangle_46" data-name="Rectangle 46" transform="translate(224 798)" fill="#fff" stroke="#707070" stroke-width="1">
      <rect width="579" height="79" rx="15" stroke="none"/>
      <rect x="0.5" y="0.5" width="578" height="78" rx="14.5" fill="none"/>
    </g>
    <line id="Line_10" data-name="Line 10" y2="79" transform="translate(304.5 798.5)" fill="none" stroke="#707070" stroke-width="1"/>
    <text id="_" data-name="£" transform="translate(260 855)" fill="#707070" font-size="47" font-family="HelveticaNeue, Helvetica Neue"><tspan x="-13.066" y="0">£</tspan></text>
    <g id="Rectangle_47" data-name="Rectangle 47" transform="translate(863 319)" fill="#fff" stroke="#707070" stroke-width="1">
      <rect width="865" height="110" rx="15" stroke="none"/>
      <rect x="0.5" y="0.5" width="864" height="109" rx="14.5" fill="none"/>
    </g>
    <text id="Add_New_Account" data-name="Add New Account" transform="translate(1304 397)" fill="#707070" font-size="57" font-family="HelveticaNeue, Helvetica Neue"><tspan x="-231.705" y="0">Add New Account</tspan></text>
    <g id="Ellipse_12" data-name="Ellipse 12" transform="translate(1346 582)" fill="#fff" stroke="#707070" stroke-width="1">
      <circle cx="61.5" cy="61.5" r="61.5" stroke="none"/>
      <circle cx="61.5" cy="61.5" r="61" fill="none"/>
    </g>
    <g id="Ellipse_13" data-name="Ellipse 13" transform="translate(1346 769)" fill="#fff" stroke="#707070" stroke-width="1">
      <circle cx="61.5" cy="61.5" r="61.5" stroke="none"/>
      <circle cx="61.5" cy="61.5" r="61" fill="none"/>
    </g>
    <g id="Ellipse_14" data-name="Ellipse 14" transform="translate(1577 582)" fill="#fff" stroke="#707070" stroke-width="1">
      <circle cx="61.5" cy="61.5" r="61.5" stroke="none"/>
      <circle cx="61.5" cy="61.5" r="61" fill="none"/>
    </g>
    <g id="Ellipse_15" data-name="Ellipse 15" transform="translate(1577 769)" fill="#fff" stroke="#707070" stroke-width="1">
      <circle cx="61.5" cy="61.5" r="61.5" stroke="none"/>
      <circle cx="61.5" cy="61.5" r="61" fill="none"/>
    </g>
  </g>
</svg>
