<svg xmlns="http://www.w3.org/2000/svg" xmlns:xlink="http://www.w3.org/1999/xlink" width="1796" height="674" viewBox="0 0 1796 674">
  <defs>
    <clipPath id="clip-path">
      <rect id="Rectangle_42" data-name="Rectangle 42" width="1796" height="674" transform="translate(1430 1525)" fill="#fff" stroke="#707070" stroke-width="1"/>
    </clipPath>
  </defs>
  <g id="Mask_Group_1" data-name="Mask Group 1" transform="translate(-1430 -1525)" clip-path="url(#clip-path)">
    <g id="Component_1_1" data-name="Component 1 – 1" transform="translate(1449.411 1524.994)">
      <g id="Bottom_Standing_Skinny-Jeans-Walk" data-name="Bottom/Standing/Skinny-Jeans-Walk" transform="translate(468.1 573.611)">
        <path id="Leg" d="M379.46,0,229.267,397.428,123.987,690.356H63.958L208.672,0Z" transform="translate(60.993)" fill="#1f28cf" fill-rule="evenodd"/>
        <path id="Leg-2" data-name="Leg" d="M222.168,0c1.633,136.366.452,319.961,4.257,328.463q3.8,8.5,236.639,193.7l-30.943,52.612Q155.693,396.513,141.56,372.765C127.429,349.016,56.428,130.459,19.487,0Z" transform="translate(255.406)" fill="#2b44ff" fill-rule="evenodd"/>
        <g id="Accessories_Shoe_Flat-Pointy" data-name="Accessories/Shoe/Flat-Pointy" transform="matrix(-0.643, 0.766, -0.766, -0.643, 772.904, 557.568)">
          <path id="Shoe" d="M0,0,3.124,65.606H68.73Q115.393,32.8,190.569,12.5V0H71.854L31.24,6.248V0Z" fill="#191847" fill-rule="evenodd"/>
        </g>
        <g id="Accessories_Shoe_Flat-Pointy-2" data-name="Accessories/Shoe/Flat-Pointy" transform="translate(0 680.984)">
          <path id="Shoe-2" data-name="Shoe" d="M190.551,75.093l-3.123-65.6h-65.6Q75.167,42.293,0,62.6v12.5H118.7l40.61-6.247v6.247Z" transform="translate(0 -9.494)" fill="#191847" fill-rule="evenodd"/>
        </g>
      </g>
      <g id="Bottom_Standing_Skinny-Jeans" data-name="Bottom/Standing/Skinny-Jeans" transform="translate(1345.51 395.489) rotate(15.009)">
        <path id="Leg-3" data-name="Leg" d="M0,0,61.1,214.417l44.58,158.035h32.514L90.823,0Z" transform="translate(94.378 0.001)" fill="#191847" fill-rule="evenodd"/>
        <path id="Leg-4" data-name="Leg" d="M75.027,0c-1.417,110.512-6.232,170.79-7.716,180.83S43.389,254.746,0,372.453H33.683q82.858-169.381,92.506-191.624C132.622,166,152.473,105.726,182.375,0Z" transform="translate(3.011 0)" fill="#2f3676" fill-rule="evenodd"/>
        <g id="Accessories_Shoe_Flat-Pointy-3" data-name="Accessories/Shoe/Flat-Pointy" transform="translate(0 367.398)">
          <path id="Shoe-3" data-name="Shoe" d="M0,35.391,1.686,0H37.077Q62.249,17.7,102.8,28.65v6.741H38.762l-21.91-3.37v3.37Z" fill="#191847" fill-rule="evenodd"/>
        </g>
        <g id="Accessories_Shoe_Flat-Pointy-4" data-name="Accessories/Shoe/Flat-Pointy" transform="translate(195.496 367.398)">
          <path id="Shoe-4" data-name="Shoe" d="M0,35.391,1.686,0H37.077Q62.249,17.7,102.8,28.65v6.741H38.762l-21.91-3.37v3.37Z" fill="#191847" fill-rule="evenodd"/>
        </g>
      </g>
      <g id="Head_Front_Wavy" data-name="Head/Front/Wavy" transform="translate(1495.228 97.164) rotate(15.009)">
        <g id="Head" transform="translate(64.042 13.483)">
          <path id="Path_20" data-name="Path 20" d="M13.924,58.126C6.159,49.011.9,37.84,1.781,25.323c2.526-36.067,52.741-28.132,62.5-9.929S72.889,79.77,60.27,83.024c-5.033,1.3-15.759-1.88-26.67-8.459l6.852,48.462H0Z" transform="translate(0 0)" fill="#b28b67" fill-rule="evenodd"/>
        </g>
        <path id="hair" d="M132.145,37.049a46.245,46.245,0,0,0-2.17-7.212,33.748,33.748,0,0,0-4.256-7.918A59.841,59.841,0,0,0,114.462,9.707C106.736,3.4,96.9-.231,87.227.949a27.957,27.957,0,0,0-13.659,5.56c-3.645,2.8-7.152,6.925-11.872,7.222-5.136.322-9.844-4.209-13.964-7.012A37.524,37.524,0,0,0,32.717.369C23.623-1.129,15.08,1.944,8.81,9.4,2.144,17.344-2.7,28.988,1.676,39.507A13.5,13.5,0,0,0,5.04,44.478c1.378,1.253,3.484,2.586,4.043,4.588.593,2.128-1.18,4.874-1.868,6.794a20,20,0,0,0-1.506,8.63c.473,4.911,3.558,9.6,6.818,12.823a22.661,22.661,0,0,0,11.757,6.037,32.987,32.987,0,0,0,8.844.685,27.523,27.523,0,0,0,4.188-.841,3.787,3.787,0,0,1,3.328.81,27.329,27.329,0,0,0,17.619,4.366C63.577,87.927,69.7,86.639,74.038,83c4.815-4.045,4.719-9.621,3.587-15.579,1.2.6,4.521.963,2.537-1.408-.783-.939-2.272-1.321-3.28-1.874A11.934,11.934,0,0,1,73.6,61.614c-3.682-4.236.037-12.857,4.665-14.278,6.876-2.11,8.418,7.614,13.326,10.13,2.823,1.447,5.775-.531,7.891-2.545,2.833-2.7,4.763-6.287,6.43-9.932,1.37-3,2.651-6.047,4.05-9.035.654-1.395,2.916-5.339,1.78-6.917,4.926-.979,10.412,1.065,14.653,3.749a10.02,10.02,0,0,1,4.025,4.292c.2.42.636,1.664,1.184,1.719,1.02.1.638-1.151.538-1.743" transform="translate(0 0)" fill="#191847" fill-rule="evenodd"/>
      </g>
      <g id="Body_Pointing-Forward" data-name="Body/Pointing-Forward" transform="translate(1465.571 207.847) rotate(15.009)">
        <path id="Skin" d="M0,59.684,58.5,27.646Q73.089,10.32,87.251.727c2.885-1.2,7.929-1.933,3.212,6.441s-9.3,17.394-6.9,19.974,8.4-1.024,11.265,3.263q2.863,4.29-30.719,13.549L21.6,82.869ZM91.62,86.716,117.315,72.6q5.408-20.578,12.93-20.708c3.852-1.792-2.856,15.543,4.446,14.04s25.124-14.758,28.191-12.067c4.543,3.982.489,16.208-4.281,22.289-8.92,11.366-16.307,15.253-34.562,20.343q-14.318,3.992-30.959,16Z" transform="translate(137.209 12.279)" fill="#997659" fill-rule="evenodd"/>
        <path id="Sleeve" d="M9.278,10.725C29.549,13.717,57.212,13.717,88.9,0l7.314,27.009C73.232,43.575,42.739,55.346,18.428,50.8-.73,47.2-6.878,22.37,9.278,10.725Z" transform="translate(97.88 55.685) rotate(-9)" fill="#2026a2" fill-rule="evenodd"/>
        <path id="Clothes" d="M136.309,105.773q32.628,8.137,109.43-19.192,19.05,39.411,17.612,56.195c-43.923,22.944-81.57,33.173-112.584,33.849.986,18.4-1.254,35.914-8.779,51.915-15.466,32.894-106.054,2.43-136.512,8.427C-13.6,175.023,23.281,149.848,23.311,110.215,23.343,66.809,58.2,0,63.323,0h46.762C112.666,33.149,125.652,69.68,136.309,105.773Z" transform="translate(0 0)" fill="#1f28cf" fill-rule="evenodd"/>
      </g>
      <g id="Head_Front_Turban-1" data-name="Head/Front/Turban-1" transform="translate(1127.057 82.329)">
        <g id="Head-2" data-name="Head" transform="translate(40.366 12.752)">
          <path id="Path_17" data-name="Path 17" d="M14.512,60.583C6.419,51.078.941,39.436,1.86,26.39,4.5-11.194,56.821-2.929,67,16.042s8.969,67.094-4.186,70.484c-5.246,1.353-16.421-1.957-27.8-8.815l7.137,50.5H0Z" transform="translate(0 -0.001)" fill="#b28b67" fill-rule="evenodd"/>
        </g>
        <g id="Turban" transform="translate(0 0)">
          <path id="Path_18" data-name="Path 18" d="M104.618,21.808c-.369-2.292.362-3.418-8.855-9.875S71.665-2.143,56.678,1.172C37.226,5.479,29.5,18.3,22,24.542,15.238,30.165,8.454,30.821,4.434,37.8S-1.726,64.85,1.77,72.83C6.593,83.84,16.1,86.8,23.045,89.976c11.906,5.44,28.737-.305,29.144-1.257,3.153-7.361,20.129-28.128,30.341-36.852C90.035,45.45,106.351,32.567,104.618,21.808Z" transform="translate(-0.009 -0.37)" fill="#5c63ab"/>
          <path id="SHade" d="M16.853,6q4.743,29.982,24.9,54.84Q18.246,42.6,10.781,9.837Zm-7.83,7.626Q16.8,45.834,49.423,74.5,11.676,51.713,2,15.693Z" transform="translate(4.995 13.78)" fill="rgba(0,0,0,0.2)" fill-rule="evenodd"/>
        </g>
      </g>
      <g id="Body_Long-Sleeve" data-name="Body/Long-Sleeve" transform="translate(995.33 192.984)">
        <path id="Skin-2" data-name="Skin" d="M314.4,50.62l69.348-9.459q20.809-11.575,38.284-15.671c3.279-.1,8.494,1.1.724,7.574s-15.655,13.644-14.27,17.1,8.613,2.171,9.808,7.488q1.2,5.317-35.185,1.728L326.844,81.69ZM96.555,66.671l38.464.144q-63.26,142.36-65.967,149.074c-4.065,10.072,4.536,25.412,8.215,33.656-11.979,5.36-10.7-14.491-25.813-7.461-13.792,6.417-24.284,18.044-40.22,8.212-1.957-1.209-4.111-5.761,1.077-9.318,12.919-8.861,31.547-24.37,34.06-29.476Q51.518,201.061,96.555,66.671Z" transform="translate(-9.078 64.094)" fill="#997659" fill-rule="evenodd"/>
        <path id="Clothes-Back" d="M0,.626,30.174,0C43.411,66.2,87.347,104.894,176.2,82.718l19.5,85.03C112.437,186,35.633,158.75,12.509,68.784,6.524,45.5,1.278,21.174,0,.626Z" transform="translate(192.88 8.16) rotate(5)" fill="#afb9c5" fill-rule="evenodd"/>
        <path id="Clothes-2" data-name="Clothes" d="M156.589.028l45.627,10.45c0,78.476,25,128.544,37.82,186.241H116.809c-1.736,19.937-2.8,40.429-3.357,61.475H21.186Q52.55,91.327,153.577,0h2.988Z" transform="translate(21.38)" fill="#c5cfd6" fill-rule="evenodd"/>
        <path id="Shade-2" data-name="Shade" d="M67.832,24.114q-4.763,73.351,5.6,111.955H48.391C51.829,96.574,57.9,59.255,67.832,24.114Z" transform="translate(89.801 60.649)" fill="rgba(0,0,0,0.1)" fill-rule="evenodd"/>
      </g>
      <g id="Bottom_Standing_Skirt" data-name="Bottom/Standing/Skirt" transform="translate(0 514.724)">
        <path id="Skirt-Shadow" d="M263.105,71.7Q193.334,91.218,142.712,91.218T48.672,61.165Q116.95,41.134,161.129,41.134T263.105,71.7Z" transform="translate(65.724 127.865)" fill="#1f28cf" fill-rule="evenodd"/>
        <path id="Leg-5" data-name="Leg" d="M152.074,228.455a10.972,10.972,0,0,0,1.127-2.2C159.418,209.81,259.006,32.43,268.927,0H156.806c-7.543,24.657-41.5,179.39-46.274,210.262C95.46,258.959,64.416,416.669,60.454,427.6c-4.168,11.493,19.286,23.467,25.536,9.337,9.945-22.483,33.641-84.694,44.192-122.679C140.073,278.645,148.127,246.6,152.074,228.455Z" transform="translate(16.097 9.382)" fill="#997659" fill-rule="evenodd"/>
        <path id="Leg-6" data-name="Leg" d="M73.006,250.111c45.53,11.5,212.068,32.311,223.495,35.573,11.757,3.356,22.065-20.876,7.536-26.125-23.123-8.353-86.834-27.651-125.464-35.528-31.071-6.334-59.423-11.5-78.458-14.53C101.726,156.034,109.1,27.715,104.266,0H5.06c4.633,26.577,43.8,220.492,51.08,239.9C58.451,246.837,65.344,249.9,73.006,250.111Z" transform="translate(186.895 9.382)" fill="#b28b67" fill-rule="evenodd"/>
        <g id="Accessories_Shoe_Flat-Sneaker" data-name="Accessories/Shoe/Flat-Sneaker" transform="translate(518.315 264.2) rotate(100)">
          <path id="shoe-5" data-name="shoe" d="M3.254,28.305Q0,19.619,0,15.306A97.291,97.291,0,0,1,1.747,0H111.108q4.262,14.094-4.921,15.216T90.925,17.245L40.1,39.906a1.939,1.939,0,0,1-2.56-.979l-.022-.051-3.267-7.928q-8.5-3.967-13.818-3.967-4.319,0-11.929,3.488h0a3.878,3.878,0,0,1-5.141-1.91Q3.3,28.435,3.254,28.305Z" transform="translate(0 0)" fill="#e4e4e4" fill-rule="evenodd"/>
        </g>
        <g id="Accessories_Shoe_Flat-Sneaker-2" data-name="Accessories/Shoe/Flat-Sneaker" transform="translate(0 432.71)">
          <path id="shoe-6" data-name="shoe" d="M109.7,21.431q3.253,8.686,3.253,13a97.29,97.29,0,0,1-1.747,15.306H1.851Q-2.411,35.642,6.772,34.52t15.259-2.029L72.861,9.826a1.939,1.939,0,0,1,2.56.979l.022.051,3.267,7.928q8.5,3.967,13.818,3.967,4.319,0,11.929-3.488h0a3.878,3.878,0,0,1,5.141,1.91Q109.656,21.3,109.7,21.431Z" transform="translate(-0.5 -9.657)" fill="#e4e4e4" fill-rule="evenodd"/>
        </g>
        <path id="Skirt" d="M223.234,6.963q-65.575-18.761-124.093,0C85.569,68.888,52.59,93.466,46.79,188.407c65.927,32.755,147.358-23.361,215.224,8.581C281.4,152.309,254.257,44.7,223.234,6.963Z" transform="translate(67.607 2.418)" fill="#2b44ff" fill-rule="evenodd"/>
      </g>
      <g id="Head_Front_Pony" data-name="Head/Front/Pony" transform="translate(173.183 150.203)">
        <g id="Head-3" data-name="Head" transform="translate(0 21.33)">
          <path id="Path_11" data-name="Path 11" d="M65.416,66.873C74.351,56.386,80.4,43.534,79.387,29.132,76.476-12.361,18.714-3.23,7.478,17.71s-9.9,74.066,4.621,77.809c5.791,1.493,18.128-2.164,30.683-9.732L34.9,141.543H81.436Z" transform="translate(0 -0.001)" fill="#b28b67" fill-rule="evenodd"/>
        </g>
        <path id="hair-2" data-name="hair" d="M50.869,95.278C56.644,106.355,64.62,114.7,72.6,114.7c15.145,0,25.913-20.248,25.913-42.018q0-1.147-.045-2.278c16.02,10.993,28.367,32.663,49.564,32.663,28.839,0,40.293-58.168,0-58.168-27.4,0-40.881,4-52.5,9.9A37.734,37.734,0,0,0,85.473,39.117a15.631,15.631,0,0,0-4.636-3.29,21.476,21.476,0,0,0-3.85-1.65C69.981,31.6,59.834,29.786,48.5,29.391c-2.116-.074-4.195-.1-6.223-.069a19.39,19.39,0,1,0-20.44,19.422,97.864,97.864,0,0,0,21.692,3.687,40.434,40.434,0,0,0-1.248,10.4,58.812,58.812,0,0,0,1.077,10.817A9.059,9.059,0,0,1,50.032,70.1,11.628,11.628,0,0,1,61.666,81.735C61.666,89.338,57.277,94.839,50.869,95.278Z" transform="translate(-1.559 -9.994)" fill="#191847" fill-rule="evenodd"/>
      </g>
      <g id="Body_Hoodie" data-name="Body/Hoodie" transform="translate(1.524 276.235)">
        <path id="Skin-3" data-name="Skin" d="M123.545,46.076,61.7,91.489q-25.162,6.793-42.044,16.9c-2.658,2.422-5.872,7.329,5.154,6.48s22.662-1.244,24.183,2.517-5.151,8.259-2.076,13.332q3.075,5.074,29.058-25.447l61.247-25.4Zm237.469,1.566-40.52.16q37.528,121.146,40.52,128.559c4.487,11.119-5.007,28.052-9.068,37.153,13.224,5.917,11.814-16,28.5-8.236,15.226,7.084,26.808,19.919,44.4,9.064,2.163-1.334,4.533-6.362-1.193-10.286-14.266-9.782-34.825-26.9-37.6-32.538q-5.683-11.528-25.032-123.873Z" transform="translate(-17.07 139.529)" fill="#b28b67" fill-rule="evenodd"/>
        <path id="Coat-Back" d="M0,216.5l16.451,4.326C83.1,172.714,117.554,72.1,198.284,24.262L181.984,0C48.779,4.787,5.141,127.375,0,216.5Z" transform="translate(247.667 232.83) rotate(175)" fill="#e87613" fill-rule="evenodd"/>
        <path id="Shirt" d="M198.632,221.039H50.28c-6.779,0-5.5-9.787-4.522-14.728,11.309-57.005,55.458-118.455,55.458-199.6L144.008,0C179.4,56.924,191.642,127.009,198.632,221.039Z" transform="translate(103.252 6.813)" fill="#dde3e9" fill-rule="evenodd"/>
        <path id="Coat-Front" d="M134.8,61.011q9.322-2.68,14.765-12.5c15.64-28.222,9.992-43.759-6.723-48.867S111.228,5.057,84.594,5.057a26.8,26.8,0,0,0-3.98.272l-13.4.764Q9.568,201.482,35.419,266.814H152.182a398.294,398.294,0,0,0,19.861,40.715h31.816Q208.35,162.306,134.8,61.011Z" transform="translate(165.887 1.756)" fill="#ff9b21" fill-rule="evenodd"/>
        <path id="Shade-3" data-name="Shade" d="M58.705,50.217Q53.2,96.305,40.8,117.116H84.131Q72.026,88.887,58.705,50.217Z" transform="translate(233.939 151.457)" fill="rgba(0,0,0,0.1)" fill-rule="evenodd"/>
      </g>
      <g id="Bottom_Standing_Sweatpants" data-name="Bottom/Standing/Sweatpants" transform="translate(887.787 435.502) rotate(-13)">
        <path id="Leg-7" data-name="Leg" d="M144.239,0,69.979,255.882,35.055,448H0L34.994,0Z" transform="translate(78.75 0)" fill="#997659" fill-rule="evenodd"/>
        <path id="Leg-8" data-name="Leg" d="M129.121,0c-5.181,132.93-3.138,205.436-1.978,217.51s7.743,92.962,52.6,234.547H143.287C83.877,316.229,63.135,235.345,56.32,217.51S29.382,127.171,0,0Z" transform="translate(127.239 0)" fill="#b28b67" fill-rule="evenodd"/>
        <path id="Pant" d="M152.042,0Q123.072,132.074,51.82,421.649H.548C-3.24,223.5,12.87,93.088,40.769,0Z" transform="translate(72.541 0)" fill="#69a1ac" fill-rule="evenodd"/>
        <path id="Pant-2" data-name="Pant" d="M137.23,0c-5.075,132.93,8.077,263.89,48.812,423.718H131.337C71.817,289.919,29.155,159.6,0,0Z" transform="translate(119.39 0)" fill="#89c5cc" fill-rule="evenodd"/>
        <g id="Accessories_Shoe_Flat-Simple" data-name="Accessories/Shoe/Flat-Simple" transform="translate(190.553 441.921)">
          <path id="Shoe-7" data-name="Shoe" d="M121.631,36.489,119.619,4.054Q101.951,9.222,75.362,0,46.768,20.253,3.372,27.659h0a4.054,4.054,0,0,0-3.218,5.1l2.782,9.814H117.608Z" transform="translate(0 0)" fill="#191847" fill-rule="evenodd"/>
        </g>
        <g id="Accessories_Shoe_Flat-Simple-2" data-name="Accessories/Shoe/Flat-Simple" transform="translate(0 441.921)">
          <path id="Shoe-8" data-name="Shoe" d="M121.631,36.489,119.619,4.054Q101.951,9.222,75.362,0,46.768,20.253,3.372,27.659h0a4.054,4.054,0,0,0-3.218,5.1l2.782,9.814H117.608Z" transform="translate(0 0)" fill="#191847" fill-rule="evenodd"/>
        </g>
      </g>
      <g id="Bottom_Standing_Jogging" data-name="Bottom/Standing/Jogging" transform="translate(887.787 479.204)">
        <path id="Leg-9" data-name="Leg" d="M431.226,0,239.583,320.394,95.9,591.261H64.958L305.692,0Z" transform="translate(30.433)" fill="#997659" fill-rule="evenodd"/>
        <g id="Accessories_Shoe_Flat-Sneaker-3" data-name="Accessories/Shoe/Flat-Sneaker" transform="translate(0 563.094)">
          <path id="shoe-9" data-name="shoe" d="M145.759,25.318q4.328,11.549,4.328,17.289,0,6.976-2.324,20.358H2.3q-5.67-18.746,6.547-20.24t20.3-2.7L96.752,9.88a2.579,2.579,0,0,1,3.406,1.306l.028.068L104.532,21.8q11.309,5.276,18.38,5.276,5.745,0,15.867-4.64h0a5.158,5.158,0,0,1,6.838,2.54Q145.694,25.146,145.759,25.318Z" transform="translate(-0.5 -9.656)" fill="#e4e4e4" fill-rule="evenodd"/>
        </g>
        <path id="Pant-3" data-name="Pant" d="M118.464,547.886l-59.68-18.054Q98.006,412.58,154.927,271.771T277.194,0H445.75Q373.1,165.66,291.722,301.047T118.464,547.886Z" transform="translate(47.776)" fill="#db2721" fill-rule="evenodd"/>
        <path id="Leg-10" data-name="Leg" d="M131.762,0c18.088,112.589,52.974,256.434,56.265,260.873q3.292,4.44,237.049,79.432l-6.685,27.289Q139.64,327.375,124.635,305.187C109.632,283,34.71,107.712,5.691,0Z" transform="translate(342.488)" fill="#b28b67" fill-rule="evenodd"/>
        <path id="Pant-4" data-name="Pant" d="M390.712,316.718l-11.775,43.945q-208.491,18.286-255.494-26.426T16.3,0H177.036q38.1,237.087,42.6,247.039T390.712,316.718Z" transform="translate(322.076)" fill="#ff4133" fill-rule="evenodd"/>
        <g id="Accessories_Shoe_Flat-Sneaker-4" data-name="Accessories/Shoe/Flat-Sneaker" transform="translate(797.765 331.211) rotate(100)">
          <path id="shoe-10" data-name="shoe" d="M4.328,37.65Q0,26.1,0,20.358,0,13.384,2.324,0H147.789q5.67,18.746-6.547,20.24t-20.3,2.7L53.334,53.085a2.579,2.579,0,0,1-3.406-1.306l-.028-.068L45.555,41.166q-11.309-5.276-18.38-5.276-5.745,0-15.867,4.64h0A5.158,5.158,0,0,1,4.47,37.99Q4.393,37.822,4.328,37.65Z" fill="#e4e4e4" fill-rule="evenodd"/>
        </g>
      </g>
      <g id="Bottom_Standing_Shorts" data-name="Bottom/Standing/Shorts" transform="translate(268.299 517.698) rotate(8)">
        <path id="Leg-11" data-name="Leg" d="M0,0,91.1,297.819,135.228,551.1h34.6L123.2,0Z" transform="translate(104.095 0)" fill="#997659" fill-rule="evenodd"/>
        <path id="Leg-12" data-name="Leg" d="M67.72,0c6.188,163.518-1.094,247.865-2.479,262.721S44.893,373.907,0,556.082l36.87-12.663C107.818,376.337,132,289.5,140.133,267.563S169.883,156.435,204.97,0Z" transform="translate(3.786 0)" fill="#b28b67" fill-rule="evenodd"/>
        <g id="Accessories_Shoe_Flat-Sneaker-5" data-name="Accessories/Shoe/Flat-Sneaker" transform="translate(0 528.542)">
          <path id="shoe-11" data-name="shoe" d="M4.063,14.694Q0,25.539,0,30.923A121.485,121.485,0,0,0,2.182,50.034H138.72q5.322-17.595-6.145-19T113.524,28.5L50.062.21a2.42,2.42,0,0,0-3.2,1.225l-.027.063-4.079,9.9q-10.614,4.951-17.251,4.951-5.392,0-14.893-4.355h0A4.842,4.842,0,0,0,4.2,14.373Q4.123,14.532,4.063,14.694Z" transform="translate(0 0)" fill="#e4e4e4" fill-rule="evenodd"/>
        </g>
        <g id="Accessories_Shoe_Flat-Sneaker-6" data-name="Accessories/Shoe/Flat-Sneaker" transform="translate(227.557 528.541)">
          <path id="shoe-12" data-name="shoe" d="M4.063,14.694Q0,25.539,0,30.923A121.485,121.485,0,0,0,2.182,50.034H138.72q5.322-17.595-6.145-19T113.524,28.5L50.062.21a2.42,2.42,0,0,0-3.2,1.225l-.027.063-4.079,9.9q-10.614,4.951-17.251,4.951-5.392,0-14.893-4.355h0A4.842,4.842,0,0,0,4.2,14.373Q4.123,14.532,4.063,14.694Z" transform="translate(0 0)" fill="#e4e4e4" fill-rule="evenodd"/>
        </g>
        <path id="Bottom" d="M0,0,38.733,151.735H157.039L139.4,0Z" transform="translate(91.991 0)" fill="#69a1ac" fill-rule="evenodd"/>
        <path id="Bottom-2" data-name="Bottom" d="M11.8,0Q-7.317,57.3,4.537,151.735H125.264L158.457,0Z" transform="translate(58.404 0)" fill="#89c5cc" fill-rule="evenodd"/>
      </g>
      <g id="Head_Front_Airy" data-name="Head/Front/Airy" transform="translate(152.777 0.318) rotate(8)">
        <g id="Head-4" data-name="Head" transform="translate(297.761 91.991)">
          <path id="Path_3" data-name="Path 3" d="M20,83.494C8.847,70.4,1.3,54.354,2.558,36.374,6.193-15.433,78.313-4.036,92.338,22.112s12.361,92.473-5.769,97.146c-7.23,1.86-22.633-2.7-38.31-12.15l9.84,69.613H0Z" transform="translate(0 0)" fill="#b28b67" fill-rule="evenodd"/>
        </g>
        <path id="hair-3" data-name="hair" d="M356.983,83.967c-7.658-1.256-28.275-2.119-32.077-2.119-2.43,0-5.063.555-6.5-1.676-1.175-1.827-.747-4.917-1.1-7.037-.408-2.462-.989-4.894-1.575-7.319A74.422,74.422,0,0,0,308,46.186a60.336,60.336,0,0,0-28.6-25.893c-13.538-5.82-28.858-7.153-43.421-5.97-15.583,1.263-29.69,6.408-44.4,11.249C177.553,30.184,162.868,32,148.2,29.748c-14.779-2.27-25.936-10.277-38.4-17.879C97.048,4.086,82.467-1,67.384.167c-14.078,1.092-27.054,6.9-38.7,14.671C17.8,22.1,8.809,30.846,3.734,43.148-1.725,56.383-1.72,70.91,7.256,82.605c13.011,16.954,37.166,21.336,57.261,20.9A109.4,109.4,0,0,0,98.53,97.274C113.165,92.126,125.813,83.4,139.5,76.323a106.623,106.623,0,0,1,20.03-8.015c6.753-1.908,13.409-2.783,19.526,1.3,6.47,4.317,12.268,8.558,19.673,11.26a63.44,63.44,0,0,0,22.187,3.99c14.72-.114,29.231-4.7,43.527-7.772,11.659-2.5,24.133-5,36.017-2.594,4.959,1.005,12.2,3.079,14,8.234-30.145,5.464-41.988,42.751-33.491,70.123,4.587,14.774,32.163,32.045,42.885,24.273,6.792-4.92,2.669-11.38,0-15.644-5.111-8.167-6.86-18.657,2.6-24.342,8.158-4.9,16.736,6.742,16.9,6.729,2.242-.177,21.615-11.133,34.962-27.121,13.168.783,15.166-7.9,12.021-15S367.563,85.7,356.983,83.967Z" transform="translate(0 0)" fill="#191847" fill-rule="evenodd"/>
      </g>
      <g id="Body_Trench-Coat" data-name="Body/Trench-Coat" transform="translate(121.781 220.866) rotate(8)">
        <path id="Skin-4" data-name="Skin" d="M485.626,47.937,558.7,109.891q30.748,10.648,50.894,24.7c3.1,3.248,6.675,9.639-6.983,7.622s-28.116-3.523-30.341,1.029,5.7,10.734,1.424,16.786q-4.272,6.051-33.975-34.224L465.654,88.84ZM138.681,0l41.988,10.675Q96.356,152.424,90.494,160.5c-8.794,12.115-2.407,35.5-.237,47.747-17.807,3.174-9.481-22.947-32.034-18.584C37.638,193.646,19.731,205.7,1.7,187.233c-2.217-2.27-3.57-9.073,4.552-12.1,20.237-7.541,50.314-22.072,55.381-28.06Q72,134.825,138.681,0Z" transform="translate(0 192.142) rotate(-4)" fill="#b28b67" fill-rule="evenodd"/>
        <path id="Back-Arm" d="M183.38,207.31c9.935-.714,20.742.933,32.33,4.837a10.894,10.894,0,0,1,.116,20.607q3.328,2.426,6.71,4.825l-19.477,39.769C121.079,236.475,44.029,205.659,8.92,138.181-2.864,115.533,1.125,38.6,0,10.618L25.89,0C61.981,74.6,110.825,146.173,183.38,207.31Z" transform="translate(322.398 4.942)" fill="#69a1ac" fill-rule="evenodd"/>
        <path id="Shirt-2" data-name="Shirt" d="M0,271.633q114.16,12.541,179.712,0c5.414-1.036,5.177-24.376,2.666-30.751C143.277,141.616,117.556,68.948,117.556,0Q106.79,5.622,79.887,1.685C31.68,72.739,9.52,154.264,0,271.633Z" transform="translate(231.45 4.121)" fill="#191847" fill-rule="evenodd"/>
        <path id="Coat-Front-2" data-name="Coat-Front" d="M147.139,287.491a10.885,10.885,0,0,1-3.27-9.833l1.261-7.152a10.9,10.9,0,0,1,9.439-8.928q1.218-5.448,2.092-10.821c4.887-30.251-3.463-59.912-3.07-89.04Q95.2,211.534,48.828,333.76L3.106,320.307q2.617-9.722,5.421-19.2c-5.277-3-11.443-16.736-7.006-19.037a53.393,53.393,0,0,1,14.553-5.03Q78.957,87.632,221.741,0h27.532c-8.106,107.2,103.855,341.226,64.979,541.1-71.857,16.051-174.441-33.88-274.3,6.008,3.719-80.49,78.145-175.048,107.183-259.613Z" transform="translate(70.17 0)" fill="#89c5cc" fill-rule="evenodd"/>
        <path id="Shade-Lapel" d="M22.325,0,9.836,38.408,34.99,67.2,12.257,89.825l54.99,94.154L0,90.013,22.325,67.2,0,41.756Z" transform="translate(279.584 2.42)" fill="rgba(0,0,0,0.1)" fill-rule="evenodd"/>
        <path id="Buttons" d="M9.684,19.367a9.684,9.684,0,1,1,9.684-9.684A9.684,9.684,0,0,1,9.684,19.367Zm12.1,55.679a9.684,9.684,0,1,1,9.684-9.684A9.684,9.684,0,0,1,21.788,75.046Zm2.42,55.679a9.684,9.684,0,1,1,9.684-9.684,9.684,9.684,0,0,1-9.684,9.684Z" transform="translate(321.02 203.348)" fill="rgba(0,0,0,0.4)" fill-rule="evenodd"/>
      </g>
      <g id="Head_Front_Rad" data-name="Head/Front/Rad" transform="translate(1253.88 14.407)">
        <g id="Head-5" data-name="Head" transform="translate(16.943 38.733)">
          <path id="Path_12" data-name="Path 12" d="M81.672,83.494c11.158-13.093,18.7-29.14,17.443-47.12C95.48-15.433,23.361-4.036,9.336,22.112S-3.026,114.584,15.1,119.258c7.23,1.86,22.633-2.7,38.31-12.15l-9.84,69.611h58.1Z" transform="translate(-0.001 0)" fill="#b28b67" fill-rule="evenodd"/>
        </g>
        <path id="hair-4" data-name="hair" d="M141.39,57.862c1.876-1.86,2.9-4.514,3.786-7.034a71.145,71.145,0,0,0,2.423-7.988c1.22-5.445,1.231-11.707-2.652-15.935-3.115-3.39-7.79-4.911-12.1-5.242a22.241,22.241,0,0,0-8.582,1.087c-2.734.9-5.089,2.69-7.74,3.8-.1-5.872-1.106-12.007-4.083-17.017A16.966,16.966,0,0,0,99.806,1.292a25.049,25.049,0,0,0-15.39,3.1c-1.2.647-2.382,1.325-3.517,2.093a9.856,9.856,0,0,1-3.052,1.678c-1.242.294-1.86-.426-2.666-1.332A20.259,20.259,0,0,0,72.041,4C67.049.333,60.5-1.176,54.717,1.023a16.1,16.1,0,0,0-7.063,5.105c-1.611,2.113-2.76,5.466-4.984,6.938-.944.625-1.61-.2-2.469-.815-1.291-.92-2.521-1.935-3.828-2.83a17.531,17.531,0,0,0-5.947-2.689c-3.114-.72-7.418-.552-8.307,3.523a16.834,16.834,0,0,0,.03,4.715c.148,2.12.3,4.238.489,6.355a45.885,45.885,0,0,0,.62,4.737c.161.841.668,2.41.307,3.251-.451,1.053-2.531.454-3.42.489A13.513,13.513,0,0,0,15,30.934a5.533,5.533,0,0,0-3.111,2.878,5.171,5.171,0,0,0-.086,2.707,8.073,8.073,0,0,1-.164,2.778C9.285,38.136,1.115,35.556.086,39.787c-.343,1.407.437,3,1.032,4.183a36.261,36.261,0,0,0,3.808,5.8A51.834,51.834,0,0,0,15.065,59.6,6.648,6.648,0,0,0,13.33,70.739,8.236,8.236,0,0,0,19.377,72.5a13.374,13.374,0,0,1,2.5-.2,5.979,5.979,0,0,0,1.133.382,33.717,33.717,0,0,0,9.277-1.174,30.589,30.589,0,0,0,14.151-7.4,4.362,4.362,0,0,1,3.273-1.5c1.217.013,2.411.345,3.626.377,3.216.082,6.117-1.491,9.1-2.537a34.354,34.354,0,0,0,2.982,12.109c1.346,2.961,4.157,3.39,6.919,3.65,8.832.831,17.7-.1,26.539-.084-8.561,1.935-17.407,2.733-25.892,5.01-3.836,1.029-.906,3.614.733,5.406a31.155,31.155,0,0,1,6.1,10.459c4.188-5.462,11.587-9.059,18.145-7.383,7.243,1.853,12.349,11.647,7.714,18.694-2.691,4.089-7.548,5.668-11.59,7.426,3.153,3.279,3.915,8.123,5.814,12.2.936,2.011,2.251,4.286,4.344,4.987a5.08,5.08,0,0,1,2.294.913c.757.783.938,1.656,1.9,2.327,3.857,2.682,9.885,2.475,13.3-1.025,3.092-3.164,2.287-8.172-.294-11.382,4.111-1.713,11.6-3.915,9.964-10.32,8.906-.587,30.53-15.035,18.576-25.59,6.558-3.707,12.587-12.769,8.373-20.755-3.245-6.15-10.791-8.9-16.982-9.226" transform="translate(-0.002 0)" fill="#191847" fill-rule="evenodd"/>
      </g>
      <g id="Body_Jacket" data-name="Body/Jacket" transform="translate(1057.79 208.072)">
        <path id="Skin-5" data-name="Skin" d="M137.191,44.533l-68.577,66.9Q38.685,124.2,19.568,139.625c-2.866,3.457-5.986,10.081,7.5,7.117s27.8-5.475,30.341-1.09-4.934,11.1-.25,16.844q4.684,5.739,31.5-36.507l71.311-42.042Zm304.386,9.435-50.589.2q46.854,151.253,50.589,160.512c5.6,13.882-6.252,35.025-11.321,46.386,16.51,7.388,14.751-19.972,35.578-10.283,19.01,8.844,33.473,24.869,55.434,11.317,2.7-1.664,5.659-7.939-1.49-12.842-17.813-12.214-43.479-33.589-46.948-40.624q-7.1-14.393-31.255-154.663Z" transform="translate(-17.07 171.217)" fill="#b28b67" fill-rule="evenodd"/>
        <path id="Coat-Back-2" data-name="Coat-Back" d="M0,310.667l20.541,5.4Q86.164,186.252,229.976,88.045L169.559,0C70.977,96.54,6.419,199.392,0,310.667Z" transform="translate(307.82 322.396) rotate(175)" fill="#191847" fill-rule="evenodd"/>
        <path id="Shirt-3" data-name="Shirt" d="M231.374,275.973H44.971q64.777-157.5,64.777-267.595L165.978,0C210.167,71.072,222.647,158.574,231.374,275.973Z" transform="translate(140.62)" fill="#dde3e9" fill-rule="evenodd"/>
        <path id="Coat-Front-3" data-name="Coat-Front" d="M90.009.04,89.986,0h-3.67Q79.728.227,66.252.817L52.661,39.646q-2.156,71.01-25.179,286.21H149.673q-.481,14.863-1.585,30h90.855Q218.557,125.873,90.054,0Z" transform="translate(217.779)" fill="#2f3676" fill-rule="evenodd"/>
        <path id="Shade-4" data-name="Shade" d="M71.952,41.09q-5.217,92.65-26.12,127.738H79.99A638.7,638.7,0,0,0,71.952,41.09Z" transform="translate(287.428 157.981)" fill="rgba(0,0,0,0.1)" fill-rule="evenodd"/>
        <path id="Light" d="M111.774,74.2,51.522,46.185v28.01Z" transform="translate(228.48 177.57)" fill="rgba(255,255,255,0.2)" fill-rule="evenodd"/>
      </g>
      <g id="Head_Front_Chongo" data-name="Head/Front/Chongo" transform="translate(923.564 25.856) rotate(-13)">
        <g id="Head-6" data-name="Head" transform="translate(0 54.421)">
          <path id="Path_5" data-name="Path 5" d="M68.016,69.533c9.29-10.907,15.578-24.268,14.526-39.241C79.515-12.853,19.457-3.361,7.775,18.414s-10.294,77.013,4.8,80.9C18.6,100.869,31.428,97.066,44.486,89.2L36.292,147.17H84.673Z" transform="translate(0 0)" fill="#b28b67" fill-rule="evenodd"/>
        </g>
        <path id="hair-5" data-name="hair" d="M23.863,49.12c6.611-2.016,16.209-2.7,20.246-2.237a34.822,34.822,0,0,1-2.465-17.6c.722-5.8,3.314-10.739,5.711-15.914a21.771,21.771,0,0,1,4.225-6.584,14.426,14.426,0,0,1,6.833-3.671A18.285,18.285,0,0,1,66.285,3.1c1.144.241,2.172.763,3.294,1.055,1.149.294,1.707-.422,2.545-1.144a14.393,14.393,0,0,1,7.5-2.91A19.346,19.346,0,0,1,88.159,1.13a16.71,16.71,0,0,1,7.11,4.557A11.922,11.922,0,0,1,97.4,8.952c.206.5.241.79.735.972.458.168.993.173,1.468.333a18.437,18.437,0,0,1,10.6,9.608c1.241,2.643,1.828,7.3,1.664,12.516s-4.872,18.831-9.278,23.8a29.6,29.6,0,0,1-15.293,8.637c3.7,4.233,6.166,9.522,7.991,14.9a72.923,72.923,0,0,1,3.658,18.1c.43,5.877.47,12.093-.908,17.845-1.289,5.383-4.045,9.787-8.647,12.591a41.3,41.3,0,0,1-6.655,3.126,43.819,43.819,0,0,1-6.858,2.2c-4.457.921-9.592.763-13.025-2.785a24.453,24.453,0,0,1-3.5-4.448c-.325-.562-.521-.929-.126-1.479a10.571,10.571,0,0,1,1.843-1.677,17.373,17.373,0,0,0,6.143-11.5c.548-4.722-.72-10.817-5.312-12.878-5.667-2.545-11.908.376-16.946,3.1-2.14-7.556-6.536-14.359-13.428-17.825C23.9,80.244,15.151,79.8,7.316,76.508a14.442,14.442,0,0,1-5.625-3.577A7.273,7.273,0,0,1,.076,70.288c-.33-1.272.489-2.331,1.121-3.32C4.546,61.726,17.251,51.134,23.863,49.12Z" transform="translate(3.024 0)" fill="#191847" fill-rule="evenodd"/>
      </g>
      <g id="Body_Jacket-2" data-name="Body/Jacket-2" transform="translate(770.509 241.188) rotate(-13)">
        <path id="Skin-6" data-name="Skin" d="M116.256,61.725,43.206,29.644Q24.011,10.516,6.136.568C2.572-.566-3.517-.909,2.979,8.578s12.9,19.759,10.306,23.083S3.171,31.319.2,36.725q-2.97,5.407,38.02,12.936l54.71,41.949Zm295.332,8.836-41.312,8.2Q432.6,194.9,437.118,201.866c6.784,10.453.454,29.61-1.883,39.7,14.666,3.414,8.882-18.661,27.443-14.052,16.941,4.209,31.3,15,47.1.442,1.942-1.79,3.364-7.386-3.258-10.255-16.5-7.15-40.87-20.538-44.826-25.741q-8.08-10.627-50.106-121.4Z" transform="translate(0 94.753)" fill="#b28b67" fill-rule="evenodd"/>
        <path id="Coat-Back-3" data-name="Coat-Back" d="M0,199.187l17.106,4.5C58.141,170.3,81.29,83.5,107.519,74.036c24.8-8.947,57.647,4.684,96.548,22.609l14.7-26.4C185.734,27.57,110.914-12.577,77.743,3.7,24.7,29.742,3.562,137.448,0,199.187Z" transform="translate(275.356 209.18) rotate(175)" fill="#db2721" fill-rule="evenodd"/>
        <path id="Shirt-4" data-name="Shirt" d="M159.769,229.828H5.519c-7.047,0-5.721-10.179-4.7-15.313C12.577,155.242,58.48,91.349,58.48,6.977L102.974,0C139.775,59.188,152.5,132.06,159.769,229.828Z" transform="translate(174.219 0)" fill="#dde3e9" fill-rule="evenodd"/>
        <path id="Coat-Front-4" data-name="Coat-Front" d="M128.286,169.817q47.167,85.08,79.293,122.508l32.332-6.332Q208.666,92.247,58.976,0H41.358Q-18.555,204.235,8.324,272.164H147.173C144.977,239.027,137.933,203.985,128.286,169.817Z" transform="translate(221.087 0)" fill="#ff4133" fill-rule="evenodd"/>
      </g>
      <g id="Head_Front_Long" data-name="Head/Front/Long" transform="translate(731.622 14.455)">
        <path id="Hair-Back" d="M42.051,70.626C31.285,110.3,17.251,199.493,31.57,213.484h90.59l.027-.481a67.171,67.171,0,0,0,59.691-66.75v-65.6a67.162,67.162,0,0,0-67.162-67.162h-6.247a67.176,67.176,0,0,0-66.417,57.13Z" transform="translate(-25.484 -13.491)" fill="#191847" fill-rule="evenodd"/>
        <g id="Head-7" data-name="Head" transform="translate(15.825 12.497)">
          <path id="Path_9" data-name="Path 9" d="M105.389,107.739c14.394-16.9,24.137-37.6,22.511-60.8-4.69-66.848-97.749-52.144-115.851-18.4S-3.9,147.86,19.493,153.891c9.33,2.4,29.205-3.486,49.434-15.678l-12.7,89.822H131.2Z" transform="translate(-0.001 -0.001)" fill="#b28b67" fill-rule="evenodd"/>
        </g>
        <path id="Hair-Front" d="M89.081,119.809c-3.454,37.1-2.07,79.473,8.221,89.535h90.59c5.047-87.695-43.733-53.732-43.733-136.3-3.041-2.971-5.915-5.913-8.759-8.449l.1-2.428q-23.524-48.17-59.7-48.17c-36.172,0-47.591,16.834-57.313,31.124,7.269,24.944,35.481,28.643,60.548,44.191a17.181,17.181,0,1,1,10.826,30.522Q89.47,119.826,89.081,119.809Z" transform="translate(11.866 -10.867)" fill="#191847" fill-rule="evenodd"/>
      </g>
      <g id="Bottom_Standing_Baggy-Pants" data-name="Bottom/Standing/Baggy-Pants" transform="translate(299.585 549.568)">
        <path id="Leg-13" data-name="Leg" d="M66.957,0,181.181,289.1l76.61,244.413h30.252L170.923,0Z" transform="translate(204.821)" fill="#997659" fill-rule="evenodd"/>
        <path id="Leg-14" data-name="Leg" d="M232.785,0C231.568,101.593,213.83,238.372,211,244.7q-2.838,6.332-195.668,161.065l20.836,22.3Q263.692,295.4,274.22,277.709C284.749,260.015,319.027,97.188,346.548,0Z" transform="translate(15.992)" fill="#b28b67" fill-rule="evenodd"/>
        <g id="Accessories_Shoe_Flat-Sneaker-7" data-name="Accessories/Shoe/Flat-Sneaker" transform="matrix(0.643, 0.766, -0.766, 0.643, 36.844, 386.254)">
          <path id="shoe-13" data-name="shoe" d="M3.906,14.128Q0,24.554,0,29.73A116.788,116.788,0,0,0,2.1,48.1H133.371q5.117-16.916-5.907-18.265t-18.317-2.431L48.132.2a2.328,2.328,0,0,0-3.074,1.175l-.026.061-3.921,9.517Q30.9,15.717,24.525,15.717q-5.188,0-14.319-4.187h0a4.655,4.655,0,0,0-6.167,2.291Q3.964,13.972,3.906,14.128Z" transform="translate(0 0)" fill="#e4e4e4" fill-rule="evenodd"/>
        </g>
        <g id="Accessories_Shoe_Flat-Sneaker-8" data-name="Accessories/Shoe/Flat-Sneaker" transform="translate(446.32 508.107)">
          <path id="shoe-14" data-name="shoe" d="M4.4,23.786Q.5,34.211.5,39.387A116.776,116.776,0,0,0,2.6,57.759h131.26q5.117-16.914-5.907-18.263T109.635,37.06L48.627,9.862a2.327,2.327,0,0,0-3.073,1.174l-.026.061-3.921,9.516Q31.4,25.375,25.022,25.375q-5.187,0-14.318-4.187h0A4.655,4.655,0,0,0,4.538,23.48Q4.464,23.63,4.4,23.786Z" transform="translate(-0.5 -9.66)" fill="#e4e4e4" fill-rule="evenodd"/>
        </g>
        <path id="Pant-5" data-name="Pant" d="M155.371,508.343,299.2,492.733,192.606,0H63.781Z" transform="translate(193.206)" fill="#69a1ac" fill-rule="evenodd"/>
        <path id="Pant-6" data-name="Pant" d="M21.716,369.8l94.35,111.674q149.054-162.795,173.8-212.453T334.353,0H189.314q-10.785,192.987-14.54,201.968T21.716,369.8Z" transform="translate(39.355)" fill="#89c5cc" fill-rule="evenodd"/>
      </g>
      <g id="Head_Front_Short-2" data-name="Head/Front/Short-2" transform="translate(590.485 193.502)">
        <g id="Head-8" data-name="Head" transform="translate(9.31 16.292)">
          <path id="Path_14" data-name="Path 14" d="M19.228,80.266C8.5,67.678,1.247,52.253,2.46,34.967c3.494-49.8,72.823-38.847,86.312-13.71s11.884,88.9-5.546,93.391c-6.949,1.792-21.758-2.6-36.828-11.68l9.459,66.921H0Z" transform="translate(0 0)" fill="#b28b67" fill-rule="evenodd"/>
        </g>
        <path id="Hair-6" data-name="Hair" d="M49.23,119.761C42.22,88.574,22.244,67.314,25.3,53.374q3.05-13.939,16.259-17.337Q48.389,8.4,85.622,12.528c37.236,4.127,59.958,19.59,50.144,53.614-9.021,0-19.911-3.262-34.971,2.327q-7.167,2.66-10.252,16.5H83.738Q73.83,68.546,64.2,72.9T59.822,94.048l-3.353,25.713Z" transform="translate(-24.983 -11.992)" fill="#191847" fill-rule="evenodd"/>
      </g>
      <g id="Body_Long-Sleeve-2" data-name="Body/Long-Sleeve" transform="translate(369.399 337.79)">
        <path id="Skin-7" data-name="Skin" d="M413.634,58.788,505.52,46.254Q533.09,30.918,556.248,25.49c4.345-.127,11.255,1.452.96,10.036S536.466,53.6,538.3,58.185s11.409,2.877,13,9.921q1.586,7.047-46.618,2.289L430.121,99.953ZM124.988,80.056l50.96.2Q92.129,268.875,88.539,277.772c-5.383,13.346,6.01,33.668,10.884,44.593-15.872,7.1-14.181-19.2-34.2-9.885-18.275,8.5-32.177,23.908-53.291,10.88-2.6-1.6-5.441-7.634,1.433-12.345,17.128-11.745,41.8-32.29,45.132-39.051q6.822-13.843,66.494-191.907Z" transform="translate(-9.075 93.205)" fill="#997659" fill-rule="evenodd"/>
        <path id="Clothes-Back-2" data-name="Clothes-Back" d="M0,.83,39.98,0c17.538,87.708,75.754,138.98,193.479,109.6L259.3,222.264C148.977,246.444,47.212,210.335,16.575,91.138,8.644,60.282,1.694,28.055,0,.83Z" transform="translate(255.571 10.811) rotate(5)" fill="#afb9c5" fill-rule="evenodd"/>
        <path id="Clothes-3" data-name="Clothes" d="M200.588.037l60.453,13.845c0,103.979,33.122,170.318,50.111,246.766H147.886c-2.3,26.416-3.712,53.567-4.448,81.453H21.186Q62.741,121.006,196.6,0h3.959Z" transform="translate(35.223)" fill="#c5cfd6" fill-rule="evenodd"/>
        <path id="Shade-5" data-name="Shade" d="M74.148,24.114Q67.836,121.3,81.572,172.453H48.393c4.556-52.33,12.6-101.777,25.759-148.339Z" transform="translate(134.721 88.196)" fill="rgba(0,0,0,0.1)" fill-rule="evenodd"/>
      </g>
      <g id="Body_Lab-Coat" data-name="Body/Lab-Coat" transform="translate(481.342 236.247)">
        <path id="Skin-8" data-name="Skin" d="M165.94,73.336l-94.3,79.942Q31.971,167.02,5.971,185.157c-4,4.192-8.613,12.438,9.011,9.836s36.281-4.546,39.149,1.327-7.35,13.851-1.837,21.66q5.513,7.809,43.84-44.162l95.578-47.7Zm427-34.593-55.328,8.035q89.084,193.281,95.519,204.437c9.651,16.736-1.7,45.878-6.137,61.307,22.424,6.475,15.262-28.17,43.615-19.529,25.88,7.888,47.236,25.767,72.868,4.5,3.151-2.614,5.806-11.158-4.209-16.142-24.958-12.407-61.592-35.112-67.287-43.48Q660.326,220.761,592.935,38.743Z" transform="translate(-2.281 205.078)" fill="#b28b67" fill-rule="evenodd"/>
        <path id="Coat-Back-4" data-name="Coat-Back" d="M0,339.556l33.164,14.283C89.617,242.166,168.507,136.23,292.221,51.748L267.984,0C161.3,50.888,61.2,88.911,14.381,175.179-1.332,204.134,2.082,303.475,0,339.556Z" transform="translate(389.005 356.539) rotate(175)" fill="#c5cfd6" fill-rule="evenodd"/>
        <path id="Shirt-5" data-name="Shirt" d="M283.458,339.148q-147.309,15.619-231.9,0c-6.986-1.29-8.089-12.988-4.849-20.926C97.167,194.593,131.763,86.72,131.763.851q13.887,7,48.607,2.1C242.577,91.441,271.173,192.973,283.458,339.148Z" transform="translate(193.701 6.084)" fill="#323337" fill-rule="evenodd"/>
        <path id="Coat-Front-5" data-name="Coat-Front" d="M124.16,1.36H98.236C92.2,36.861,73.161,517.605,14.387,674.865H332.4c-6.894-144.07-61.28-317.121-116.371-461.938q73.075,66.87,127.381,226.613l59.568-15.291Q336.542,137.971,129.793,3.418L128.9,1.362h-2.294q-1.266-.813-2.539-1.62Z" transform="translate(265.379 0.257)" fill="#dde3e9" fill-rule="evenodd"/>
      </g>
    </g>
  </g>
</svg>
