<svg xmlns="http://www.w3.org/2000/svg" xmlns:xlink="http://www.w3.org/1999/xlink" width="1920" height="1080" viewBox="0 0 1920 1080">
  <defs>
    <linearGradient id="linear-gradient" x1="3.558" y1="1" x2="-3.391" y2="0.014" gradientUnits="objectBoundingBox">
      <stop offset="0" stop-color="#f6c7cf" stop-opacity="0.051"/>
      <stop offset="0" stop-color="#f6bfc9" stop-opacity="0.188"/>
      <stop offset="0" stop-color="#c1e9ff" stop-opacity="0.729"/>
      <stop offset="1" stop-color="#f88fa5" stop-opacity="0.188"/>
    </linearGradient>
    <filter id="Path_70" x="-8" y="375" width="791.072" height="501.517" filterUnits="userSpaceOnUse">
      <feOffset dx="30" dy="30" input="SourceAlpha"/>
      <feGaussianBlur stdDeviation="25" result="blur"/>
      <feFlood flood-opacity="0.161"/>
      <feComposite operator="in" in2="blur"/>
      <feComposite in="SourceGraphic"/>
    </filter>
    <linearGradient id="linear-gradient-2" x1="1" y1="0.5" x2="0.042" y2="0.66" gradientUnits="objectBoundingBox">
      <stop offset="0" stop-color="#c1e9ff" stop-opacity="0.729"/>
      <stop offset="1" stop-color="#f6bfc9" stop-opacity="0.188"/>
    </linearGradient>
    <clipPath id="clip-Web_1920_5">
      <rect width="1920" height="1080"/>
    </clipPath>
  </defs>
  <g id="Web_1920_5" data-name="Web 1920 – 5" clip-path="url(#clip-Web_1920_5)">
    <rect width="1920" height="1080" fill="#fff"/>
    <rect id="Rectangle_6" data-name="Rectangle 6" width="1961" height="1106" transform="translate(0 117)" fill="#e6e6e6"/>
    <rect id="Rectangle_5" data-name="Rectangle 5" width="1920" height="101" fill="#f0f0f0"/>
    <rect id="Rectangle_4" data-name="Rectangle 4" width="16" height="1920" transform="translate(0 117) rotate(-90)" fill="url(#linear-gradient)"/>
    <text id="Welcome_User" data-name="Welcome, User" transform="translate(1570 75)" fill="#a5a5a5" font-size="45" font-family="HelveticaNeue-Bold, Helvetica Neue" font-weight="700"><tspan x="0" y="0">Welcome, User</tspan></text>
    <g id="Head_Front_Short-2" data-name="Head/Front/Short-2" transform="translate(1508 11)">
      <g id="Head" transform="translate(2.585 7)">
        <path id="Path_14" data-name="Path 14" d="M33.738,34.49c4.608-5.409,7.727-12.037,7.206-19.465C39.442-6.375,9.652-1.667,3.857,9.134s-5.106,38.2,2.383,40.13c2.987.77,9.349-1.116,15.825-5.019L18,73H42Z" fill="#b28b67" fill-rule="evenodd"/>
      </g>
      <path id="Hair" d="M88.167,70.308c3.012-13.4,11.594-22.536,10.283-28.526a9.085,9.085,0,0,0-6.986-7.45q-2.935-11.875-18.934-10.1C56.53,26,46.765,32.648,50.982,47.268c3.876,0,8.556-1.4,15.027,1q3.08,1.143,4.406,7.09h2.924q4.257-7.057,8.4-5.187t1.881,9.087l1.44,11.049Z" transform="translate(-50 -24)" fill="#191847" fill-rule="evenodd"/>
    </g>
    <g transform="matrix(1, 0, 0, 1, 0, 0)" filter="url(#Path_70)">
      <path id="Path_70-2" data-name="Path 70" d="M44.089,0H596.983a44.089,44.089,0,0,1,44.089,44.089v263.34a44.089,44.089,0,0,1-44.089,44.089H44.089A44.089,44.089,0,0,1,0,307.428V44.089A44.089,44.089,0,0,1,44.089,0Z" transform="translate(37 420)" fill="#ead3d3"/>
    </g>
    <rect id="Rectangle_10" data-name="Rectangle 10" width="110" height="65" rx="10" transform="translate(37 26)" fill="url(#linear-gradient-2)"/>
    <text id="Home" transform="translate(44 72)" fill="#a5a5a5" font-size="34" font-family="HelveticaNeue-Bold, Helvetica Neue" font-weight="700"><tspan x="0" y="0">Home</tspan></text>
    <g id="Text" transform="translate(59.159 466.782)">
      <text id="ALISSA_CORBETT" data-name="ALISSA CORBETT" transform="translate(3.902 238.647)" fill="#5f5f5f" font-size="34" font-family="ProximaNovaT-Thin, Proxima Nova" font-weight="200" letter-spacing="0.012em"><tspan x="0" y="0">ALISSA CORBETT</tspan></text>
      <text id="Solitaire" transform="translate(3.902 23)" fill="#5f5f5f" font-size="25" font-family="ProximaNovaT-Thin, Proxima Nova" font-weight="200" letter-spacing="0.012em"><tspan x="0" y="0">Solitaire</tspan></text>
      <text id="_5535_" data-name="5535 " transform="translate(0 135.182)" fill="#5f5f5f" font-size="45" font-family="ProximaNovaT-Thin, Proxima Nova" font-weight="200" letter-spacing="0.012em"><tspan x="0" y="0">5535 </tspan></text>
      <text id="_" data-name="••••" transform="translate(150.211 136.714)" fill="#5f5f5f" font-size="64" font-family="ProximaNovaT-Thin, Proxima Nova" font-weight="200" letter-spacing="0.012em"><tspan x="0" y="0">••••</tspan></text>
      <text id="_2" data-name="••••" transform="translate(278.964 136.714)" fill="#5f5f5f" font-size="64" font-family="ProximaNovaT-Thin, Proxima Nova" font-weight="200" letter-spacing="0.012em"><tspan x="0" y="0">••••</tspan></text>
      <text id="_2296" data-name="2296" transform="translate(403.815 135.182)" fill="#5f5f5f" font-size="45" font-family="ProximaNovaT-Thin, Proxima Nova" font-weight="200" letter-spacing="0.012em"><tspan x="0" y="0">2296</tspan></text>
      <g id="visalogo" transform="translate(451.803 158.949)">
        <g id="Group_46" data-name="Group 46" transform="translate(11.532 52.923)">
          <path id="Path_67" data-name="Path 67" d="M53.118,39.089h-10L49.369.686h10ZM34.709.686,25.177,27.1l-1.128-5.688v0L20.686,4.144S20.279.686,15.943.686H.185L0,1.336A37.4,37.4,0,0,1,10.458,5.726L19.145,39.09H29.562L45.469.686Zm78.641,38.4h9.181l-8-38.4h-8.037a4.594,4.594,0,0,0-4.615,2.862L86.962,39.089H97.384l2.084-5.7h12.71Zm-11-13.584L107.6,11.133,110.557,25.5ZM87.744,9.921l1.427-8.247A28.859,28.859,0,0,0,80.178,0C75.216,0,63.434,2.169,63.434,12.713c0,9.921,13.829,10.044,13.829,15.256s-12.4,4.277-16.5.991l-1.486,8.623a28.019,28.019,0,0,0,11.285,2.169c6.823,0,17.116-3.533,17.116-13.148,0-9.985-13.953-10.915-13.953-15.256s9.738-3.784,14.017-1.427Z" transform="translate(0 0)" fill="#5f5f5f"/>
        </g>
        <path id="Path_68" data-name="Path 68" d="M24.05,20.728,20.686,3.458S20.279,0,15.943,0H.185L0,.65A38.738,38.738,0,0,1,14.839,8.1,29.946,29.946,0,0,1,24.05,20.728Z" transform="translate(11.532 53.608)" fill="#5f5f5f"/>
        <path id="Path_69" data-name="Path 69" d="M0,0H145.594V145.594H0Z" fill="none"/>
      </g>
    </g>
    <g id="Text-2" data-name="Text" transform="translate(59.159 466.782)">
      <text id="ALISSA_CORBETT-2" data-name="ALISSA CORBETT" transform="translate(3.902 238.647)" fill="#5f5f5f" font-size="34" font-family="ProximaNovaT-Thin, Proxima Nova" font-weight="200" letter-spacing="0.012em"><tspan x="0" y="0">ALISSA CORBETT</tspan></text>
      <text id="Solitaire-2" data-name="Solitaire" transform="translate(3.902 23)" fill="#5f5f5f" font-size="25" font-family="ProximaNovaT-Thin, Proxima Nova" font-weight="200" letter-spacing="0.012em"><tspan x="0" y="0">Solitaire</tspan></text>
      <text id="_5535_2" data-name="5535 " transform="translate(0 135.182)" fill="#5f5f5f" font-size="45" font-family="ProximaNovaT-Thin, Proxima Nova" font-weight="200" letter-spacing="0.012em"><tspan x="0" y="0">5535 </tspan></text>
      <text id="_3" data-name="••••" transform="translate(150.211 136.714)" fill="#5f5f5f" font-size="64" font-family="ProximaNovaT-Thin, Proxima Nova" font-weight="200" letter-spacing="0.012em"><tspan x="0" y="0">••••</tspan></text>
      <text id="_4" data-name="••••" transform="translate(278.964 136.714)" fill="#5f5f5f" font-size="64" font-family="ProximaNovaT-Thin, Proxima Nova" font-weight="200" letter-spacing="0.012em"><tspan x="0" y="0">••••</tspan></text>
      <text id="_2296-2" data-name="2296" transform="translate(403.815 135.182)" fill="#5f5f5f" font-size="45" font-family="ProximaNovaT-Thin, Proxima Nova" font-weight="200" letter-spacing="0.012em"><tspan x="0" y="0">2296</tspan></text>
      <g id="visalogo-2" data-name="visalogo" transform="translate(451.803 158.949)">
        <g id="Group_46-2" data-name="Group 46" transform="translate(11.532 52.923)">
          <path id="Path_67-2" data-name="Path 67" d="M53.118,39.089h-10L49.369.686h10ZM34.709.686,25.177,27.1l-1.128-5.688v0L20.686,4.144S20.279.686,15.943.686H.185L0,1.336A37.4,37.4,0,0,1,10.458,5.726L19.145,39.09H29.562L45.469.686Zm78.641,38.4h9.181l-8-38.4h-8.037a4.594,4.594,0,0,0-4.615,2.862L86.962,39.089H97.384l2.084-5.7h12.71Zm-11-13.584L107.6,11.133,110.557,25.5ZM87.744,9.921l1.427-8.247A28.859,28.859,0,0,0,80.178,0C75.216,0,63.434,2.169,63.434,12.713c0,9.921,13.829,10.044,13.829,15.256s-12.4,4.277-16.5.991l-1.486,8.623a28.019,28.019,0,0,0,11.285,2.169c6.823,0,17.116-3.533,17.116-13.148,0-9.985-13.953-10.915-13.953-15.256s9.738-3.784,14.017-1.427Z" transform="translate(0 0)" fill="#5f5f5f"/>
        </g>
        <path id="Path_68-2" data-name="Path 68" d="M24.05,20.728,20.686,3.458S20.279,0,15.943,0H.185L0,.65A38.738,38.738,0,0,1,14.839,8.1,29.946,29.946,0,0,1,24.05,20.728Z" transform="translate(11.532 53.608)" fill="#5f5f5f"/>
        <path id="Path_69-2" data-name="Path 69" d="M0,0H145.594V145.594H0Z" fill="none"/>
      </g>
    </g>
    <rect id="Rectangle_1" data-name="Rectangle 1" width="619" height="103" rx="23" transform="translate(1265 228)" fill="rgba(165,165,165,0.8)"/>
    <rect id="Rectangle_2" data-name="Rectangle 2" width="619" height="103" rx="23" transform="translate(1265 419)" fill="rgba(165,165,165,0.8)"/>
    <rect id="Rectangle_3" data-name="Rectangle 3" width="246" height="103" rx="23" transform="translate(1056 961)" fill="rgba(165,165,165,0.8)"/>
    <text id="Account_Name" data-name="Account Name" transform="translate(815 291)" fill="#525252" font-size="50" font-family="HelveticaNeue, Helvetica Neue"><tspan x="0" y="0">Account Name</tspan></text>
    <text id="Account_Type" data-name="Account Type" transform="translate(815 482)" fill="#525252" font-size="50" font-family="HelveticaNeue, Helvetica Neue"><tspan x="0" y="0">Account Type</tspan></text>
    <text id="Submit" transform="translate(1108 1028)" fill="#525252" font-size="45" font-family="HelveticaNeue-Bold, Helvetica Neue" font-weight="700"><tspan x="0" y="0">Submit</tspan></text>
    <rect id="Rectangle_37" data-name="Rectangle 37" width="305" height="103" rx="23" transform="translate(1265 610)" fill="rgba(165,165,165,0.8)"/>
    <text id="Interest_Earned" data-name="Interest Earned" transform="translate(815 673)" fill="#525252" font-size="50" font-family="HelveticaNeue, Helvetica Neue"><tspan x="0" y="0">Interest Earned</tspan></text>
    <rect id="Rectangle_38" data-name="Rectangle 38" width="272" height="103" rx="23" transform="translate(1603 610)" fill="rgba(165,165,165,0.8)"/>
    <text id="_Week" data-name="/Week" transform="translate(1657 677)" fill="#525252" font-size="46" font-family="HelveticaNeue, Helvetica Neue"><tspan x="0" y="0">/Week</tspan></text>
    <path id="Polygon_1" data-name="Polygon 1" d="M13,0,26,23H0Z" transform="translate(1859 673) rotate(180)" fill="#525252"/>
    <rect id="Rectangle_39" data-name="Rectangle 39" width="619" height="103" rx="23" transform="translate(1256 795)" fill="rgba(165,165,165,0.8)"/>
    <text id="Savings_Goal" data-name="Savings Goal" transform="translate(806 858)" fill="#525252" font-size="50" font-family="HelveticaNeue, Helvetica Neue"><tspan x="0" y="0">Savings Goal</tspan></text>
  </g>
</svg>
