<svg xmlns="http://www.w3.org/2000/svg" xmlns:xlink="http://www.w3.org/1999/xlink" width="1920" height="1080" viewBox="0 0 1920 1080">
  <defs>
    <linearGradient id="linear-gradient" x1="3.558" y1="1" x2="-3.391" y2="0.014" gradientUnits="objectBoundingBox">
      <stop offset="0" stop-color="#f6c7cf" stop-opacity="0.051"/>
      <stop offset="0" stop-color="#f6bfc9" stop-opacity="0.188"/>
      <stop offset="0" stop-color="#c1e9ff" stop-opacity="0.729"/>
      <stop offset="1" stop-color="#f88fa5" stop-opacity="0.188"/>
    </linearGradient>
    <linearGradient id="linear-gradient-2" x1="1" y1="0.5" x2="0.042" y2="0.66" gradientUnits="objectBoundingBox">
      <stop offset="0" stop-color="#c1e9ff" stop-opacity="0.729"/>
      <stop offset="1" stop-color="#f6bfc9" stop-opacity="0.188"/>
    </linearGradient>
    <filter id="Rectangle_40" x="-8" y="131" width="688" height="445" filterUnits="userSpaceOnUse">
      <feOffset dx="30" dy="30" input="SourceAlpha"/>
      <feGaussianBlur stdDeviation="25" result="blur"/>
      <feFlood flood-opacity="0.161"/>
      <feComposite operator="in" in2="blur"/>
      <feComposite in="SourceGraphic"/>
    </filter>
    <clipPath id="clip-path">
      <rect width="1252.75" height="405" fill="none"/>
    </clipPath>
    <clipPath id="clip-Web_1920_6">
      <rect width="1920" height="1080"/>
    </clipPath>
  </defs>
  <g id="Web_1920_6" data-name="Web 1920 – 6" clip-path="url(#clip-Web_1920_6)">
    <rect width="1920" height="1080" fill="#fff"/>
    <rect id="Rectangle_6" data-name="Rectangle 6" width="1961" height="1106" transform="translate(0 117)" fill="#e6e6e6"/>
    <rect id="Rectangle_5" data-name="Rectangle 5" width="1920" height="101" fill="#f0f0f0"/>
    <rect id="Rectangle_4" data-name="Rectangle 4" width="16" height="1920" transform="translate(0 117) rotate(-90)" fill="url(#linear-gradient)"/>
    <text id="Welcome_User" data-name="Welcome, User" transform="translate(1570 75)" fill="#a5a5a5" font-size="45" font-family="HelveticaNeue-Bold, Helvetica Neue" font-weight="700"><tspan x="0" y="0">Welcome, User</tspan></text>
    <g id="Head_Front_Short-2" data-name="Head/Front/Short-2" transform="translate(1508 11)">
      <g id="Head" transform="translate(2.585 7)">
        <path id="Path_14" data-name="Path 14" d="M33.738,34.49c4.608-5.409,7.727-12.037,7.206-19.465C39.442-6.375,9.652-1.667,3.857,9.134s-5.106,38.2,2.383,40.13c2.987.77,9.349-1.116,15.825-5.019L18,73H42Z" fill="#b28b67" fill-rule="evenodd"/>
      </g>
      <path id="Hair" d="M88.167,70.308c3.012-13.4,11.594-22.536,10.283-28.526a9.085,9.085,0,0,0-6.986-7.45q-2.935-11.875-18.934-10.1C56.53,26,46.765,32.648,50.982,47.268c3.876,0,8.556-1.4,15.027,1q3.08,1.143,4.406,7.09h2.924q4.257-7.057,8.4-5.187t1.881,9.087l1.44,11.049Z" transform="translate(-50 -24)" fill="#191847" fill-rule="evenodd"/>
    </g>
    <rect id="Rectangle_10" data-name="Rectangle 10" width="110" height="65" rx="10" transform="translate(37 26)" fill="url(#linear-gradient-2)"/>
    <text id="Home" transform="translate(44 72)" fill="#a5a5a5" font-size="34" font-family="HelveticaNeue-Bold, Helvetica Neue" font-weight="700"><tspan x="0" y="0">Home</tspan></text>
    <g transform="matrix(1, 0, 0, 1, 0, 0)" filter="url(#Rectangle_40)">
      <rect id="Rectangle_40-2" data-name="Rectangle 40" width="538" height="295" rx="37" transform="translate(37 176)" fill="#b3e8c5"/>
    </g>
    <g id="Text" transform="translate(68.185 214.421)">
      <text id="ALISSA_CORBETT" data-name="ALISSA CORBETT" transform="translate(3.274 201.262)" fill="#5f5f5f" font-size="30" font-family="ProximaNovaT-Thin, Proxima Nova" font-weight="200" letter-spacing="0.012em"><tspan x="0" y="0">ALISSA CORBETT</tspan></text>
      <text id="Solitaire" transform="translate(3.274 20)" fill="#5f5f5f" font-size="22" font-family="ProximaNovaT-Thin, Proxima Nova" font-weight="200" letter-spacing="0.012em"><tspan x="0" y="0">Solitaire</tspan></text>
      <text id="_5535_" data-name="5535 " transform="translate(0 113.04)" fill="#5f5f5f" font-size="38" font-family="ProximaNovaT-Thin, Proxima Nova" font-weight="200" letter-spacing="0.012em"><tspan x="0" y="0">5535 </tspan></text>
      <text id="_" data-name="••••" transform="translate(126.06 115.058)" fill="#5f5f5f" font-size="54" font-family="ProximaNovaT-Thin, Proxima Nova" font-weight="200" letter-spacing="0.012em"><tspan x="0" y="0">••••</tspan></text>
      <text id="_2" data-name="••••" transform="translate(234.112 115.058)" fill="#5f5f5f" font-size="54" font-family="ProximaNovaT-Thin, Proxima Nova" font-weight="200" letter-spacing="0.012em"><tspan x="0" y="0">••••</tspan></text>
      <text id="_2296" data-name="2296" transform="translate(338.889 113.04)" fill="#5f5f5f" font-size="38" font-family="ProximaNovaT-Thin, Proxima Nova" font-weight="200" letter-spacing="0.012em"><tspan x="0" y="0">2296</tspan></text>
      <g id="visalogo" transform="translate(379.162 133.393)">
        <g id="Group_46" data-name="Group 46" transform="translate(9.678 44.414)">
          <path id="Path_67" data-name="Path 67" d="M44.578,32.8H36.187L41.431.576h8.392ZM29.128.576l-8,22.167-.947-4.773v0L17.36,3.478s-.341-2.9-3.98-2.9H.155L0,1.122A31.39,31.39,0,0,1,8.777,4.805l7.29,28h8.742L38.159.576Zm66,32.228h7.7L96.113.575H89.368a3.856,3.856,0,0,0-3.873,2.4L72.98,32.8h8.747l1.749-4.787H94.143ZM85.893,21.4,90.3,9.343,92.782,21.4ZM73.636,8.326l1.2-6.921A24.219,24.219,0,0,0,67.287,0C63.123,0,53.235,1.82,53.235,10.669c0,8.326,11.605,8.43,11.605,12.8S54.431,27.062,51,24.3L49.748,31.54a23.514,23.514,0,0,0,9.471,1.82c5.726,0,14.364-2.965,14.364-11.034,0-8.38-11.71-9.16-11.71-12.8s8.173-3.176,11.763-1.2Z" transform="translate(0 0)" fill="#5f5f5f"/>
        </g>
        <path id="Path_68" data-name="Path 68" d="M20.183,17.4,17.36,2.9S17.019,0,13.38,0H.155L0,.546A32.51,32.51,0,0,1,12.453,6.8,25.131,25.131,0,0,1,20.183,17.4Z" transform="translate(9.678 44.989)" fill="#5f5f5f"/>
        <path id="Path_69" data-name="Path 69" d="M0,0H122.186V122.186H0Z" fill="none"/>
      </g>
    </g>
    <g id="Text-2" data-name="Text" transform="translate(68.185 214.421)">
      <text id="ALISSA_CORBETT-2" data-name="ALISSA CORBETT" transform="translate(3.274 201.262)" fill="#5f5f5f" font-size="30" font-family="ProximaNovaT-Thin, Proxima Nova" font-weight="200" letter-spacing="0.012em"><tspan x="0" y="0">ALISSA CORBETT</tspan></text>
      <text id="Solitaire-2" data-name="Solitaire" transform="translate(3.274 20)" fill="#5f5f5f" font-size="22" font-family="ProximaNovaT-Thin, Proxima Nova" font-weight="200" letter-spacing="0.012em"><tspan x="0" y="0">Solitaire</tspan></text>
      <text id="_5535_2" data-name="5535 " transform="translate(0 113.04)" fill="#5f5f5f" font-size="38" font-family="ProximaNovaT-Thin, Proxima Nova" font-weight="200" letter-spacing="0.012em"><tspan x="0" y="0">5535 </tspan></text>
      <text id="_3" data-name="••••" transform="translate(126.06 115.058)" fill="#5f5f5f" font-size="54" font-family="ProximaNovaT-Thin, Proxima Nova" font-weight="200" letter-spacing="0.012em"><tspan x="0" y="0">••••</tspan></text>
      <text id="_4" data-name="••••" transform="translate(234.112 115.058)" fill="#5f5f5f" font-size="54" font-family="ProximaNovaT-Thin, Proxima Nova" font-weight="200" letter-spacing="0.012em"><tspan x="0" y="0">••••</tspan></text>
      <text id="_2296-2" data-name="2296" transform="translate(338.889 113.04)" fill="#5f5f5f" font-size="38" font-family="ProximaNovaT-Thin, Proxima Nova" font-weight="200" letter-spacing="0.012em"><tspan x="0" y="0">2296</tspan></text>
      <g id="visalogo-2" data-name="visalogo" transform="translate(379.162 133.393)">
        <g id="Group_46-2" data-name="Group 46" transform="translate(9.678 44.414)">
          <path id="Path_67-2" data-name="Path 67" d="M44.578,32.8H36.187L41.431.576h8.392ZM29.128.576l-8,22.167-.947-4.773v0L17.36,3.478s-.341-2.9-3.98-2.9H.155L0,1.122A31.39,31.39,0,0,1,8.777,4.805l7.29,28h8.742L38.159.576Zm66,32.228h7.7L96.113.575H89.368a3.856,3.856,0,0,0-3.873,2.4L72.98,32.8h8.747l1.749-4.787H94.143ZM85.893,21.4,90.3,9.343,92.782,21.4ZM73.636,8.326l1.2-6.921A24.219,24.219,0,0,0,67.287,0C63.123,0,53.235,1.82,53.235,10.669c0,8.326,11.605,8.43,11.605,12.8S54.431,27.062,51,24.3L49.748,31.54a23.514,23.514,0,0,0,9.471,1.82c5.726,0,14.364-2.965,14.364-11.034,0-8.38-11.71-9.16-11.71-12.8s8.173-3.176,11.763-1.2Z" transform="translate(0 0)" fill="#5f5f5f"/>
        </g>
        <path id="Path_68-2" data-name="Path 68" d="M20.183,17.4,17.36,2.9S17.019,0,13.38,0H.155L0,.546A32.51,32.51,0,0,1,12.453,6.8,25.131,25.131,0,0,1,20.183,17.4Z" transform="translate(9.678 44.989)" fill="#5f5f5f"/>
        <path id="Path_69-2" data-name="Path 69" d="M0,0H122.186V122.186H0Z" fill="none"/>
      </g>
    </g>
    <rect id="Rectangle_36" data-name="Rectangle 36" width="1253" height="529" rx="14" transform="translate(640 141)" fill="#fff"/>
    <g id="Line_Chart2" data-name="Line Chart2" transform="translate(653 189)">
      <g id="X_Axis" data-name="X Axis">
        <text id="Jan" transform="translate(24 27)" fill="#767676" font-size="30" font-family="ArialMT, Arial"><tspan x="-24.185" y="0">Jan</tspan></text>
        <text id="Feb" transform="translate(103.205 27)" fill="#767676" font-size="30" font-family="ArialMT, Arial"><tspan x="-25.847" y="0">Feb</tspan></text>
        <text id="Mar" transform="translate(259.461 27)" fill="#767676" font-size="30" font-family="ArialMT, Arial"><tspan x="-25.833" y="0">Mar</tspan></text>
        <text id="Apr" transform="translate(378.541 27)" fill="#767676" font-size="30" font-family="ArialMT, Arial"><tspan x="-23.342" y="0">Apr</tspan></text>
        <text id="May" transform="translate(495.95 27)" fill="#767676" font-size="30" font-family="ArialMT, Arial"><tspan x="-28.337" y="0">May</tspan></text>
        <text id="Jun" transform="translate(614.5 27)" fill="#767676" font-size="30" font-family="ArialMT, Arial"><tspan x="-24.185" y="0">Jun</tspan></text>
        <text id="Jul" transform="translate(732.18 27)" fill="#767676" font-size="30" font-family="ArialMT, Arial"><tspan x="-19.175" y="0">Jul</tspan></text>
        <text id="Aug" transform="translate(851.381 27)" fill="#767676" font-size="30" font-family="ArialMT, Arial"><tspan x="-26.689" y="0">Aug</tspan></text>
        <text id="Sep" transform="translate(969.824 27)" fill="#767676" font-size="30" font-family="ArialMT, Arial"><tspan x="-26.689" y="0">Sep</tspan></text>
        <text id="Oct" transform="translate(1127.256 27)" fill="#767676" font-size="30" font-family="ArialMT, Arial"><tspan x="-23.335" y="0">Oct</tspan></text>
        <text id="Nov" transform="translate(1206.71 27)" fill="#767676" font-size="30" font-family="ArialMT, Arial"><tspan x="-26.675" y="0">Nov</tspan></text>
      </g>
      <g id="X_Axis-2" data-name="X Axis" transform="translate(16 90)">
        <text id="_1" data-name="1" transform="translate(8 27)" fill="#767676" font-size="30" font-family="ArialMT, Arial"><tspan x="-8.342" y="0">1</tspan></text>
        <text id="_10" data-name="10" transform="translate(87.205 27)" fill="#767676" font-size="30" font-family="ArialMT, Arial"><tspan x="-16.685" y="0">10</tspan></text>
        <text id="_9" data-name="9" transform="translate(243.47 27)" fill="#767676" font-size="30" font-family="ArialMT, Arial"><tspan x="-8.342" y="0">9</tspan></text>
        <text id="_8" data-name="8" transform="translate(361.503 27)" fill="#767676" font-size="30" font-family="ArialMT, Arial"><tspan x="-8.342" y="0">8</tspan></text>
        <text id="_7" data-name="7" transform="translate(479.301 27)" fill="#767676" font-size="30" font-family="ArialMT, Arial"><tspan x="-8.342" y="0">7</tspan></text>
        <text id="_5" data-name="5" transform="translate(597.259 27)" fill="#767676" font-size="30" font-family="ArialMT, Arial"><tspan x="-8.342" y="0">5</tspan></text>
        <text id="_4-2" data-name="4" transform="translate(715.094 27)" fill="#767676" font-size="30" font-family="ArialMT, Arial"><tspan x="-8.342" y="0">4</tspan></text>
        <text id="_5-2" data-name="5" transform="translate(833.144 27)" fill="#767676" font-size="30" font-family="ArialMT, Arial"><tspan x="-8.342" y="0">5</tspan></text>
        <text id="_2-2" data-name="2" transform="translate(951.087 27)" fill="#767676" font-size="30" font-family="ArialMT, Arial"><tspan x="-8.342" y="0">2</tspan></text>
        <text id="_1-2" data-name="1" transform="translate(1111.256 27)" fill="#767676" font-size="30" font-family="ArialMT, Arial"><tspan x="-8.342" y="0">1</tspan></text>
        <text id="_18" data-name="18" transform="translate(1190.71 27)" fill="#767676" font-size="30" font-family="ArialMT, Arial"><tspan x="-16.685" y="0">18</tspan></text>
      </g>
      <g id="X_Axis-3" data-name="X Axis" transform="translate(16 180)">
        <text id="_8-2" data-name="8" transform="translate(8 27)" fill="#767676" font-size="30" font-family="ArialMT, Arial" opacity="0.8"><tspan x="-8.342" y="0">8</tspan></text>
        <text id="_2-3" data-name="2" transform="translate(87.205 27)" fill="#767676" font-size="30" font-family="ArialMT, Arial"><tspan x="-8.342" y="0">2</tspan></text>
        <text id="_16" data-name="16" transform="translate(241.9 27)" fill="#767676" font-size="30" font-family="ArialMT, Arial"><tspan x="-16.685" y="0">16</tspan></text>
        <text id="_3-2" data-name="3" transform="translate(362.624 27)" fill="#767676" font-size="30" font-family="ArialMT, Arial"><tspan x="-8.342" y="0">3</tspan></text>
        <text id="_32" data-name="32" transform="translate(480.022 27)" fill="#767676" font-size="30" font-family="ArialMT, Arial"><tspan x="-16.685" y="0">32</tspan></text>
        <text id="_8-3" data-name="8" transform="translate(599.127 27)" fill="#767676" font-size="30" font-family="ArialMT, Arial"><tspan x="-8.342" y="0">8</tspan></text>
        <text id="_0" data-name="0" transform="translate(717.336 27)" fill="#767676" font-size="30" font-family="ArialMT, Arial" opacity="0.9"><tspan x="-8.342" y="0">0</tspan></text>
        <text id="_6" data-name="6" transform="translate(835.76 27)" fill="#767676" font-size="30" font-family="ArialMT, Arial"><tspan x="-8.342" y="0">6</tspan></text>
        <text id="_3-3" data-name="3" transform="translate(954.077 27)" fill="#767676" font-size="30" font-family="ArialMT, Arial"><tspan x="-8.342" y="0">3</tspan></text>
        <text id="_4-3" data-name="4" transform="translate(1111.256 27)" fill="#767676" font-size="30" font-family="ArialMT, Arial"><tspan x="-8.342" y="0">4</tspan></text>
        <text id="_0-2" data-name="0" transform="translate(1190.71 27)" fill="#767676" font-size="30" font-family="ArialMT, Arial"><tspan x="-8.342" y="0">0</tspan></text>
      </g>
      <g id="X_Axis-4" data-name="X Axis" transform="translate(16 270)">
        <text id="_0-3" data-name="0" transform="translate(8 27)" fill="#767676" font-size="30" font-family="ArialMT, Arial"><tspan x="-8.342" y="0">0</tspan></text>
        <text id="_0-4" data-name="0" transform="translate(87.205 27)" fill="#767676" font-size="30" font-family="ArialMT, Arial"><tspan x="-8.342" y="0">0</tspan></text>
        <text id="_9-2" data-name="9" transform="translate(244.218 27)" fill="#767676" font-size="30" font-family="ArialMT, Arial"><tspan x="-8.342" y="0">9</tspan></text>
        <text id="_10-2" data-name="10" transform="translate(361.08 27)" fill="#767676" font-size="30" font-family="ArialMT, Arial"><tspan x="-16.685" y="0">10</tspan></text>
        <text id="_12" data-name="12" transform="translate(480.022 27)" fill="#767676" font-size="30" font-family="ArialMT, Arial"><tspan x="-16.685" y="0">12</tspan></text>
        <text id="_3-4" data-name="3" transform="translate(599.127 27)" fill="#767676" font-size="30" font-family="ArialMT, Arial"><tspan x="-8.342" y="0">3</tspan></text>
        <text id="_3-5" data-name="3" transform="translate(717.336 27)" fill="#767676" font-size="30" font-family="ArialMT, Arial"><tspan x="-8.342" y="0">3</tspan></text>
        <text id="_3-6" data-name="3" transform="translate(835.76 27)" fill="#767676" font-size="30" font-family="ArialMT, Arial"><tspan x="-8.342" y="0">3</tspan></text>
        <text id="_2-4" data-name="2" transform="translate(954.077 27)" fill="#767676" font-size="30" font-family="ArialMT, Arial"><tspan x="-8.342" y="0">2</tspan></text>
        <text id="_2-5" data-name="2" transform="translate(1111.256 27)" fill="#767676" font-size="30" font-family="ArialMT, Arial"><tspan x="-8.342" y="0">2</tspan></text>
        <text id="_0-5" data-name="0" transform="translate(1190.71 27)" fill="#767676" font-size="30" font-family="ArialMT, Arial"><tspan x="-8.342" y="0">0</tspan></text>
      </g>
      <g id="X_Axis-5" data-name="X Axis" transform="translate(16 345)">
        <text id="_5-3" data-name="5" transform="translate(8 27)" fill="#767676" font-size="30" font-family="ArialMT, Arial"><tspan x="-8.342" y="0">5</tspan></text>
        <text id="_16-2" data-name="16" transform="translate(87.205 27)" fill="#767676" font-size="30" font-family="ArialMT, Arial"><tspan x="-16.685" y="0">16</tspan></text>
        <text id="_4-4" data-name="4" transform="translate(244.218 27)" fill="#767676" font-size="30" font-family="ArialMT, Arial"><tspan x="-8.342" y="0">4</tspan></text>
        <text id="_7-2" data-name="7" transform="translate(362.624 27)" fill="#767676" font-size="30" font-family="ArialMT, Arial"><tspan x="-8.342" y="0">7</tspan></text>
        <text id="_7-3" data-name="7" transform="translate(480.795 27)" fill="#767676" font-size="30" font-family="ArialMT, Arial"><tspan x="-8.342" y="0">7</tspan></text>
        <text id="_5-4" data-name="5" transform="translate(599.127 27)" fill="#767676" font-size="30" font-family="ArialMT, Arial"><tspan x="-8.342" y="0">5</tspan></text>
        <text id="_8-4" data-name="8" transform="translate(717.336 27)" fill="#767676" font-size="30" font-family="ArialMT, Arial"><tspan x="-8.342" y="0">8</tspan></text>
        <text id="_4-5" data-name="4" transform="translate(835.76 27)" fill="#767676" font-size="30" font-family="ArialMT, Arial"><tspan x="-8.342" y="0">4</tspan></text>
        <text id="_6-2" data-name="6" transform="translate(954.077 27)" fill="#767676" font-size="30" font-family="ArialMT, Arial"><tspan x="-8.342" y="0">6</tspan></text>
        <text id="_2-6" data-name="2" transform="translate(1111.256 27)" fill="#767676" font-size="30" font-family="ArialMT, Arial"><tspan x="-8.342" y="0">2</tspan></text>
        <text id="_5-5" data-name="5" transform="translate(1190.71 27)" fill="#767676" font-size="30" font-family="ArialMT, Arial"><tspan x="-8.342" y="0">5</tspan></text>
      </g>
    </g>
    <g id="Repeat_Grid_1" data-name="Repeat Grid 1" transform="translate(640.25 252)" clip-path="url(#clip-path)">
      <g transform="translate(-981.5 -641)">
        <line id="Line_3" data-name="Line 3" x2="903" transform="translate(981.5 641.5)" fill="none" stroke="#707070" stroke-width="1"/>
      </g>
      <g transform="translate(-58.5 -641)">
        <line id="Line_3-2" data-name="Line 3" x2="903" transform="translate(981.5 641.5)" fill="none" stroke="#707070" stroke-width="1"/>
      </g>
      <g transform="translate(-981.5 -557)">
        <line id="Line_3-3" data-name="Line 3" x2="903" transform="translate(981.5 641.5)" fill="none" stroke="#707070" stroke-width="1"/>
      </g>
      <g transform="translate(-58.5 -557)">
        <line id="Line_3-4" data-name="Line 3" x2="903" transform="translate(981.5 641.5)" fill="none" stroke="#707070" stroke-width="1"/>
      </g>
      <g transform="translate(-981.5 -473)">
        <line id="Line_3-5" data-name="Line 3" x2="903" transform="translate(981.5 641.5)" fill="none" stroke="#707070" stroke-width="1"/>
      </g>
      <g transform="translate(-58.5 -473)">
        <line id="Line_3-6" data-name="Line 3" x2="903" transform="translate(981.5 641.5)" fill="none" stroke="#707070" stroke-width="1"/>
      </g>
      <g transform="translate(-981.5 -389)">
        <line id="Line_3-7" data-name="Line 3" x2="903" transform="translate(981.5 641.5)" fill="none" stroke="#707070" stroke-width="1"/>
      </g>
      <g transform="translate(-58.5 -389)">
        <line id="Line_3-8" data-name="Line 3" x2="903" transform="translate(981.5 641.5)" fill="none" stroke="#707070" stroke-width="1"/>
      </g>
      <g transform="translate(-981.5 -305)">
        <line id="Line_3-9" data-name="Line 3" x2="903" transform="translate(981.5 641.5)" fill="none" stroke="#707070" stroke-width="1"/>
      </g>
      <g transform="translate(-58.5 -305)">
        <line id="Line_3-10" data-name="Line 3" x2="903" transform="translate(981.5 641.5)" fill="none" stroke="#707070" stroke-width="1"/>
      </g>
    </g>
    <g id="X_Axis-6" data-name="X Axis" transform="translate(669 612)">
      <text id="_1-3" data-name="1" transform="translate(8 27)" fill="#767676" font-size="30" font-family="ArialMT, Arial"><tspan x="-8.342" y="0">1</tspan></text>
      <text id="_10-3" data-name="10" transform="translate(87.205 27)" fill="#767676" font-size="30" font-family="ArialMT, Arial"><tspan x="-16.685" y="0">10</tspan></text>
      <text id="_5-6" data-name="5" transform="translate(244.218 27)" fill="#767676" font-size="30" font-family="ArialMT, Arial"><tspan x="-8.342" y="0">5</tspan></text>
      <text id="_2-7" data-name="2" transform="translate(362.624 27)" fill="#767676" font-size="30" font-family="ArialMT, Arial"><tspan x="-8.342" y="0">2</tspan></text>
      <text id="_22" data-name="22" transform="translate(480.022 27)" fill="#767676" font-size="30" font-family="ArialMT, Arial"><tspan x="-16.685" y="0">22</tspan></text>
      <text id="_3-7" data-name="3" transform="translate(599.127 27)" fill="#767676" font-size="30" font-family="ArialMT, Arial"><tspan x="-8.342" y="0">3</tspan></text>
      <text id="_6-3" data-name="6" transform="translate(717.336 27)" fill="#767676" font-size="30" font-family="ArialMT, Arial"><tspan x="-8.342" y="0">6</tspan></text>
      <text id="_8-5" data-name="8" transform="translate(835.76 27)" fill="#767676" font-size="30" font-family="ArialMT, Arial"><tspan x="-8.342" y="0">8</tspan></text>
      <text id="_19" data-name="19" transform="translate(956.393 27)" fill="#767676" font-size="30" font-family="ArialMT, Arial"><tspan x="-16.685" y="0">19</tspan></text>
      <text id="_1-4" data-name="1" transform="translate(1111.256 27)" fill="#767676" font-size="30" font-family="ArialMT, Arial"><tspan x="-8.342" y="0">1</tspan></text>
      <text id="_0-6" data-name="0" transform="translate(1190.71 27)" fill="#767676" font-size="30" font-family="ArialMT, Arial"><tspan x="-8.342" y="0">0</tspan></text>
    </g>
    <g id="Path_72" data-name="Path 72" transform="translate(640 718)" fill="none">
      <path d="M1253,319h0Z" stroke="none"/>
      <path d="M 0 319 L 1253 319 L 0 319 Z" stroke="none" fill="#707070"/>
    </g>
    <g id="Line_Chart4" data-name="Line Chart4" transform="translate(1266.5 877.5)">
      <g id="Chart">
        <g id="m1">
          <path id="Path_71" data-name="Path 71" d="M0,257c37.97-43.471,75.939-86.943,113.909-104s75.939-7.7,113.909,21,75.939,76.745,113.909,83,75.939-29.278,113.909-75S531.576,80.367,569.545,91s75.939,87.809,113.909,104,75.939-28.6,113.909-62S873.3,77.605,911.273,70s75.939-.817,113.909,21,75.939,58.662,113.909,46S1215.03,62.169,1253,0" transform="translate(-626.5 -159.5)" fill="none" stroke="#bdd4e5" stroke-width="5"/>
          <g id="Marks" transform="translate(-5 -5)">
            <g id="Ellipse_13" data-name="Ellipse 13" transform="translate(-626.5 97.5)" fill="#fff" stroke="#bdd4e5" stroke-width="5">
              <circle cx="5" cy="5" r="5" stroke="none"/>
              <circle cx="5" cy="5" r="2.5" fill="none"/>
            </g>
            <g id="Ellipse_14" data-name="Ellipse 14" transform="translate(-512.591 -6.5)" fill="#fff" stroke="#bdd4e5" stroke-width="5">
              <circle cx="5" cy="5" r="5" stroke="none"/>
              <circle cx="5" cy="5" r="2.5" fill="none"/>
            </g>
            <g id="Ellipse_15" data-name="Ellipse 15" transform="translate(-398.682 14.5)" fill="#fff" stroke="#bdd4e5" stroke-width="5">
              <circle cx="5" cy="5" r="5" stroke="none"/>
              <circle cx="5" cy="5" r="2.5" fill="none"/>
            </g>
            <g id="Ellipse_16" data-name="Ellipse 16" transform="translate(-284.773 97.5)" fill="#fff" stroke="#bdd4e5" stroke-width="5">
              <circle cx="5" cy="5" r="5" stroke="none"/>
              <circle cx="5" cy="5" r="2.5" fill="none"/>
            </g>
            <g id="Ellipse_17" data-name="Ellipse 17" transform="translate(-170.864 22.5)" fill="#fff" stroke="#bdd4e5" stroke-width="5">
              <circle cx="5" cy="5" r="5" stroke="none"/>
              <circle cx="5" cy="5" r="2.5" fill="none"/>
            </g>
            <g id="Ellipse_18" data-name="Ellipse 18" transform="translate(-56.955 -68.5)" fill="#fff" stroke="#bdd4e5" stroke-width="5">
              <circle cx="5" cy="5" r="5" stroke="none"/>
              <circle cx="5" cy="5" r="2.5" fill="none"/>
            </g>
            <g id="Ellipse_19" data-name="Ellipse 19" transform="translate(56.955 35.5)" fill="#fff" stroke="#bdd4e5" stroke-width="5">
              <circle cx="5" cy="5" r="5" stroke="none"/>
              <circle cx="5" cy="5" r="2.5" fill="none"/>
            </g>
            <g id="Ellipse_20" data-name="Ellipse 20" transform="translate(170.864 -26.5)" fill="#fff" stroke="#bdd4e5" stroke-width="5">
              <circle cx="5" cy="5" r="5" stroke="none"/>
              <circle cx="5" cy="5" r="2.5" fill="none"/>
            </g>
            <g id="Ellipse_21" data-name="Ellipse 21" transform="translate(284.773 -89.5)" fill="#fff" stroke="#bdd4e5" stroke-width="5">
              <circle cx="5" cy="5" r="5" stroke="none"/>
              <circle cx="5" cy="5" r="2.5" fill="none"/>
            </g>
            <g id="Ellipse_22" data-name="Ellipse 22" transform="translate(398.682 -68.5)" fill="#fff" stroke="#bdd4e5" stroke-width="5">
              <circle cx="5" cy="5" r="5" stroke="none"/>
              <circle cx="5" cy="5" r="2.5" fill="none"/>
            </g>
            <g id="Ellipse_23" data-name="Ellipse 23" transform="translate(512.591 -22.5)" fill="#fff" stroke="#bdd4e5" stroke-width="5">
              <circle cx="5" cy="5" r="5" stroke="none"/>
              <circle cx="5" cy="5" r="2.5" fill="none"/>
            </g>
            <g id="Ellipse_24" data-name="Ellipse 24" transform="translate(626.5 -159.5)" fill="#fff" stroke="#bdd4e5" stroke-width="5">
              <circle cx="5" cy="5" r="5" stroke="none"/>
              <circle cx="5" cy="5" r="2.5" fill="none"/>
            </g>
          </g>
        </g>
      </g>
      <g id="X_Axis_Line" data-name="X Axis Line">
        <line id="Line_4" data-name="Line 4" x2="1253" transform="translate(-626.5 159.5)" fill="none" stroke="#d3d3d3" stroke-width="1"/>
      </g>
      <g id="X_Axis-7" data-name="X Axis">
        <text id="Jan-2" data-name="Jan" transform="translate(-626.5 176.5)" fill="#444" font-size="12" font-family="ArialMT, Arial"><tspan x="-9.674" y="0">Jan</tspan></text>
        <text id="Feb-2" data-name="Feb" transform="translate(-512.591 176.5)" fill="#444" font-size="12" font-family="ArialMT, Arial"><tspan x="-10.339" y="0">Feb</tspan></text>
        <text id="Mar-2" data-name="Mar" transform="translate(-398.682 176.5)" fill="#444" font-size="12" font-family="ArialMT, Arial"><tspan x="-10.333" y="0">Mar</tspan></text>
        <text id="Apr-2" data-name="Apr" transform="translate(-284.773 176.5)" fill="#444" font-size="12" font-family="ArialMT, Arial"><tspan x="-9.337" y="0">Apr</tspan></text>
        <text id="May-2" data-name="May" transform="translate(-170.864 176.5)" fill="#444" font-size="12" font-family="ArialMT, Arial"><tspan x="-11.335" y="0">May</tspan></text>
        <text id="Jun-2" data-name="Jun" transform="translate(-56.955 176.5)" fill="#444" font-size="12" font-family="ArialMT, Arial"><tspan x="-9.674" y="0">Jun</tspan></text>
        <text id="Jul-2" data-name="Jul" transform="translate(56.955 176.5)" fill="#444" font-size="12" font-family="ArialMT, Arial"><tspan x="-7.67" y="0">Jul</tspan></text>
        <text id="Aug-2" data-name="Aug" transform="translate(170.864 176.5)" fill="#444" font-size="12" font-family="ArialMT, Arial"><tspan x="-10.676" y="0">Aug</tspan></text>
        <text id="Sep-2" data-name="Sep" transform="translate(284.773 176.5)" fill="#444" font-size="12" font-family="ArialMT, Arial"><tspan x="-10.676" y="0">Sep</tspan></text>
        <text id="Oct-2" data-name="Oct" transform="translate(398.682 176.5)" fill="#444" font-size="12" font-family="ArialMT, Arial"><tspan x="-9.334" y="0">Oct</tspan></text>
        <text id="Nov-2" data-name="Nov" transform="translate(512.591 176.5)" fill="#444" font-size="12" font-family="ArialMT, Arial"><tspan x="-10.67" y="0">Nov</tspan></text>
        <text id="Dec" transform="translate(626.5 176.5)" fill="#444" font-size="12" font-family="ArialMT, Arial"><tspan x="-10.67" y="0">Dec</tspan></text>
      </g>
    </g>
    <path id="Path_73" data-name="Path 73" d="M37,0H501c20.434,0,37,29.032,37,64.844V452.156C538,487.968,521.434,517,501,517H37c-20.435,0-37-29.032-37-64.844V64.844C0,29.032,16.565,0,37,0Z" transform="translate(37 540)" fill="#b2b2b2"/>
    <text id="Account_Name" data-name="Account Name" transform="translate(74 609)" fill="#525252" font-size="35" font-family="HelveticaNeue, Helvetica Neue"><tspan x="0" y="0">Account Name</tspan></text>
    <text id="Account_Type" data-name="Account Type" transform="translate(74 725)" fill="#525252" font-size="35" font-family="HelveticaNeue, Helvetica Neue"><tspan x="0" y="0">Account Type</tspan></text>
    <text id="Interest_Earned" data-name="Interest Earned" transform="translate(74 842)" fill="#525252" font-size="35" font-family="HelveticaNeue, Helvetica Neue"><tspan x="0" y="0">Interest Earned</tspan></text>
    <text id="Savings_Goal" data-name="Savings Goal" transform="translate(77 958)" fill="#525252" font-size="35" font-family="HelveticaNeue, Helvetica Neue"><tspan x="0" y="0">Savings Goal</tspan></text>
    <text id="HSBC_Super_Saver" data-name="HSBC Super Saver" transform="translate(74 655)" fill="rgba(221,221,221,0.85)" font-size="35" font-family="HelveticaNeue, Helvetica Neue"><tspan x="0" y="0">HSBC Super Saver</tspan></text>
    <text id="ISA" transform="translate(74 772)" fill="rgba(221,221,221,0.85)" font-size="35" font-family="HelveticaNeue, Helvetica Neue"><tspan x="0" y="0">ISA</tspan></text>
    <text id="_0.5_" data-name="0.5%" transform="translate(74 888)" fill="rgba(221,221,221,0.85)" font-size="35" font-family="HelveticaNeue, Helvetica Neue"><tspan x="0" y="0">0.5%</tspan></text>
    <text id="_3_000_year" data-name="£3,000 / year" transform="translate(77 1004)" fill="rgba(221,221,221,0.85)" font-size="35" font-family="HelveticaNeue, Helvetica Neue"><tspan x="0" y="0">£3,000 / year</tspan></text>
  </g>
</svg>
