<svg xmlns="http://www.w3.org/2000/svg" xmlns:xlink="http://www.w3.org/1999/xlink" width="1920" height="1080" viewBox="0 0 1920 1080">
  <defs>
    <linearGradient id="linear-gradient" x1="-0.307" y1="0.161" x2="1.349" y2="1" gradientUnits="objectBoundingBox">
      <stop offset="0" stop-color="#f6c7cf" stop-opacity="0.051"/>
      <stop offset="0.153" stop-color="#c1e9ff" stop-opacity="0.733"/>
      <stop offset="0.931" stop-color="#f6bfc9" stop-opacity="0.188"/>
      <stop offset="1" stop-color="#f88fa5"/>
    </linearGradient>
    <clipPath id="clip-Web_1920_1">
      <rect width="1920" height="1080"/>
    </clipPath>
  </defs>
  <g id="Web_1920_1" data-name="Web 1920 – 1" clip-path="url(#clip-Web_1920_1)">
    <rect width="1920" height="1080" fill="url(#linear-gradient)"/>
    <g id="Bottom_Standing_Skinny-Jeans-Walk" data-name="Bottom/Standing/Skinny-Jeans-Walk" transform="translate(579.271 991.724)">
      <path id="Leg" d="M450.357,0,296.9,406.064,189.333,705.356H128L275.858,0Z" transform="translate(-0.334)" fill="#1f28cf" fill-rule="evenodd"/>
      <path id="Leg-2" data-name="Leg" d="M246.085,0c1.668,139.329.462,326.913,4.349,335.6q3.887,8.685,241.781,197.91L460.6,587.265q-282.435-182.136-296.875-206.4C149.287,356.6,76.743,133.294,39,0Z" transform="translate(241.866)" fill="#2b44ff" fill-rule="evenodd"/>
      <g id="Accessories_Shoe_Flat-Pointy" data-name="Accessories/Shoe/Flat-Pointy" transform="matrix(-0.643, 0.766, -0.766, -0.643, 789.698, 569.683)">
        <path id="Shoe" d="M0,0,3.192,67.025H70.216q47.672-33.512,124.474-54.258V0H73.408L31.916,6.383V0Z" transform="translate(0 0)" fill="#191847" fill-rule="evenodd"/>
      </g>
      <g id="Accessories_Shoe_Flat-Pointy-2" data-name="Accessories/Shoe/Flat-Pointy" transform="translate(0 695.781)">
        <path id="Shoe-2" data-name="Shoe" d="M194.691,86.025,191.5,19H124.475Q76.8,52.512,0,73.258V86.025H121.283l41.492-6.383v6.383Z" transform="translate(0 -19)" fill="#191847" fill-rule="evenodd"/>
      </g>
    </g>
    <g id="Bottom_Standing_Skinny-Jeans" data-name="Bottom/Standing/Skinny-Jeans" transform="matrix(0.966, 0.259, -0.259, 0.966, 1475.746, 809.732)">
      <path id="Leg-3" data-name="Leg" d="M0,0,62.421,219.05,107.964,380.5h33.217L92.785,0Z" transform="translate(96.417 0)" fill="#191847" fill-rule="evenodd"/>
      <path id="Leg-4" data-name="Leg" d="M76.648,0C75.2,112.9,70.281,174.48,68.765,184.737S44.327,260.249,0,380.5H34.411q84.648-173.041,94.505-195.764c6.572-15.148,26.852-76.727,57.4-184.737Z" transform="translate(3.076 0)" fill="#2f3676" fill-rule="evenodd"/>
      <g id="Accessories_Shoe_Flat-Pointy-3" data-name="Accessories/Shoe/Flat-Pointy" transform="translate(0 375.336)">
        <path id="Shoe-3" data-name="Shoe" d="M0,36.156,1.722,0H37.878q25.716,18.078,67.147,29.269v6.887H39.6L17.217,32.713v3.443Z" fill="#191847" fill-rule="evenodd"/>
      </g>
      <g id="Accessories_Shoe_Flat-Pointy-4" data-name="Accessories/Shoe/Flat-Pointy" transform="translate(199.72 375.336)">
        <path id="Shoe-4" data-name="Shoe" d="M0,36.156,1.722,0H37.878q25.716,18.078,67.147,29.269v6.887H39.6L17.217,32.713v3.443Z" fill="#191847" fill-rule="evenodd"/>
      </g>
    </g>
    <g id="Head_Front_Wavy" data-name="Head/Front/Wavy" transform="matrix(0.966, 0.259, -0.259, 0.966, 1628.717, 504.924)">
      <g id="Head" transform="translate(65.426 13.774)">
        <path id="Path_20" data-name="Path 20" d="M14.225,59.382C6.292,50.07.922,38.658,1.819,25.87,4.4-10.976,55.7-2.87,65.672,15.726s8.792,65.768-4.1,69.092c-5.142,1.325-16.1-1.921-27.246-8.642l7,49.509H0Z" fill="#b28b67" fill-rule="evenodd"/>
      </g>
      <path id="hair" d="M135,37.85a47.246,47.246,0,0,0-2.217-7.368,34.478,34.478,0,0,0-4.348-8.089,61.135,61.135,0,0,0-11.5-12.476C109.042,3.478,98.993-.236,89.112.97A28.561,28.561,0,0,0,75.158,6.65c-3.724,2.862-7.307,7.075-12.129,7.378-5.247.329-10.057-4.3-14.266-7.163A38.335,38.335,0,0,0,33.424.377C24.134-1.153,15.406,1.986,9,9.608,2.19,17.719-2.762,29.614,1.712,40.361a13.789,13.789,0,0,0,3.437,5.078c1.408,1.28,3.559,2.642,4.13,4.687.606,2.174-1.205,4.979-1.908,6.941a20.427,20.427,0,0,0-1.539,8.816c.483,5.017,3.635,9.806,6.965,13.1a23.151,23.151,0,0,0,12.011,6.167,33.7,33.7,0,0,0,9.035.7,28.119,28.119,0,0,0,4.278-.859,3.869,3.869,0,0,1,3.4.828,27.92,27.92,0,0,0,18,4.46c5.43-.452,11.688-1.768,16.117-5.488,4.919-4.132,4.821-9.829,3.664-15.916,1.226.608,4.619.984,2.592-1.438-.8-.959-2.321-1.35-3.351-1.914a12.192,12.192,0,0,1-3.35-2.578c-3.762-4.328.038-13.135,4.766-14.586,7.025-2.156,8.6,7.779,13.614,10.349,2.884,1.478,5.9-.542,8.061-2.6,2.894-2.763,4.866-6.423,6.569-10.147,1.4-3.067,2.708-6.178,4.138-9.23.668-1.425,2.979-5.454,1.818-7.066,5.032-1,10.637,1.088,14.97,3.83a10.237,10.237,0,0,1,4.112,4.385c.2.429.65,1.7,1.21,1.756,1.042.1.652-1.176.55-1.781" fill="#191847" fill-rule="evenodd"/>
    </g>
    <g id="Body_Pointing-Forward" data-name="Body/Pointing-Forward" transform="matrix(0.966, 0.259, -0.259, 0.966, 1598.416, 618.012)">
      <path id="Skin" d="M0,60.97,59.761,28.239q14.907-17.7,29.375-27.5c2.947-1.23,8.1-1.975,3.281,6.58s-9.505,17.77-7.05,20.406,8.579-1.046,11.508,3.333Q99.8,35.441,65.492,44.9L22.069,84.656ZM93.6,88.586l26.25-14.421q5.525-21.023,13.209-21.155c3.935-1.831-2.918,15.879,4.542,14.343s25.667-15.077,28.8-12.328c4.641,4.068.5,16.558-4.373,22.771-9.113,11.612-16.659,15.583-35.309,20.783q-14.627,4.078-31.628,16.349Z" transform="translate(140.173 12.548)" fill="#997659" fill-rule="evenodd"/>
      <path id="Sleeve" d="M9.478,10.957C30.187,14.013,58.448,14.013,90.822,0l7.472,27.593c-23.48,16.923-54.632,28.949-79.468,24.3C-.746,48.224-7.027,22.853,9.478,10.957Z" transform="translate(99.994 56.888) rotate(-9)" fill="#2026a2" fill-rule="evenodd"/>
      <path id="Clothes" d="M139.254,108.058q33.333,8.313,111.794-19.607,19.462,40.263,17.993,57.409c-44.872,23.44-83.332,33.89-115.017,34.58,1.007,18.8-1.281,36.69-8.969,53.037-15.8,33.605-108.346,2.483-139.462,8.609-19.485-63.281,18.19-89,18.221-129.49C23.847,68.253,59.452,0,64.691,0h47.772C115.1,33.865,128.366,71.186,139.254,108.058Z" transform="translate(0 0)" fill="#1f28cf" fill-rule="evenodd"/>
    </g>
    <g id="Head_Front_Turban-1" data-name="Head/Front/Turban-1" transform="translate(1252.546 489.767)">
      <g id="Head-2" data-name="Head" transform="translate(41.243 13.028)">
        <path id="Path_17" data-name="Path 17" d="M14.827,61.9C6.558,52.189.961,40.294,1.9,26.964c2.695-38.4,56.156-29.956,66.555-10.573s9.164,68.552-4.277,72.016c-5.36,1.382-16.778-2-28.4-9.007L43.07,131H0Z" transform="translate(0 0)" fill="#b28b67" fill-rule="evenodd"/>
      </g>
      <g id="Turban" transform="translate(0 0)">
        <path id="Path_18" data-name="Path 18" d="M106.9,22.644c-.377-2.342.37-3.492-9.047-10.09S73.231-1.827,57.918,1.56c-19.874,4.4-27.767,17.5-35.431,23.878-6.909,5.745-13.84,6.415-17.948,13.544S-1.755,66.621,1.817,74.775C6.745,86.024,16.462,89.053,23.555,92.293c12.165,5.558,29.361-.312,29.777-1.284,3.222-7.521,20.566-28.739,31-37.653C92,46.8,108.671,33.637,106.9,22.644Z" transform="translate(-0.018 -0.74)" fill="#5c63ab"/>
        <path id="SHade" d="M19.177,12q4.846,30.633,25.441,56.032Q20.6,49.4,12.973,15.924Zm-8,7.792q7.949,32.911,41.278,62.2Q13.888,58.71,4,21.908Z" transform="translate(3.146 8.206)" fill="rgba(0,0,0,0.2)" fill-rule="evenodd"/>
      </g>
    </g>
    <g id="Body_Long-Sleeve" data-name="Body/Long-Sleeve" transform="translate(1117.952 602.826)">
      <path id="Skin-2" data-name="Skin" d="M330.129,76.682l70.855-9.665Q422.245,55.191,440.1,51.005c3.35-.1,8.679,1.12.74,7.739s-15.995,13.94-14.58,17.473,8.8,2.218,10.021,7.651q1.223,5.433-35.949,1.766l-57.493,22.794Zm-222.583,16.4,39.3.147q-64.635,145.453-67.4,152.313c-4.153,10.291,4.635,25.964,8.393,34.387-12.239,5.477-10.935-14.806-26.374-7.623-14.092,6.556-24.812,18.436-41.094,8.39-2-1.235-4.2-5.886,1.1-9.52,13.2-9.054,32.232-24.9,34.8-30.116Q61.53,230.392,107.546,93.082Z" transform="translate(-18.163 40.524)" fill="#997659" fill-rule="evenodd"/>
      <path id="Clothes-Back" d="M0,.64,30.83,0c13.524,67.634,58.415,107.174,149.2,84.516l19.925,86.878C114.881,190.042,36.407,162.2,12.781,70.279,6.666,46.485,1.306,21.634,0,.64Z" transform="translate(197.076 8.337) rotate(5)" fill="#afb9c5" fill-rule="evenodd"/>
      <path id="Clothes-2" data-name="Clothes" d="M180.745.029l46.618,10.677c0,80.181,25.541,131.337,38.642,190.288H140.1c-1.774,20.37-2.863,41.307-3.43,62.811H42.4Q74.445,93.311,177.667,0h3.053Z" transform="translate(1.097)" fill="#c5cfd6" fill-rule="evenodd"/>
      <path id="Shade-2" data-name="Shade" d="M116.708,48.259q-4.867,74.945,5.725,114.388H96.844c3.513-40.353,9.713-78.483,19.864-114.388Z" transform="translate(44.356 38.346)" fill="rgba(0,0,0,0.1)" fill-rule="evenodd"/>
    </g>
    <g id="Bottom_Standing_Skirt" data-name="Bottom/Standing/Skirt" transform="translate(101 931.558)">
      <path id="Skirt-Shadow" d="M316.5,113.555q-71.287,19.939-123.009,19.939T97.408,102.788q69.761-20.466,114.9-20.466T316.5,113.555Z" transform="translate(19.475 90.349)" fill="#1f28cf" fill-rule="evenodd"/>
      <path id="Leg-5" data-name="Leg" d="M214.114,233.419a11.209,11.209,0,0,0,1.152-2.25C221.618,214.369,323.37,33.135,333.507,0H218.949c-7.707,25.193-42.4,183.288-47.279,214.831-15.4,49.755-47.118,210.892-51.166,222.056-4.259,11.743,19.705,23.977,26.091,9.54,10.161-22.972,34.372-86.534,45.152-125.345C201.853,284.7,210.082,251.962,214.114,233.419Z" transform="translate(-42.289 9.585)" fill="#997659" fill-rule="evenodd"/>
      <path id="Leg-6" data-name="Leg" d="M79.549,255.546C126.068,267.3,296.225,288.559,307.9,291.892c12.012,3.429,22.544-21.33,7.7-26.693-23.625-8.534-88.721-28.252-128.19-36.3-31.746-6.472-60.714-11.753-80.163-14.846C108.893,159.424,116.425,28.317,111.488,0H10.126c4.734,27.154,44.752,225.283,52.19,245.115C64.677,252.2,71.72,255.325,79.549,255.546Z" transform="translate(186 9.585)" fill="#b28b67" fill-rule="evenodd"/>
      <g id="Accessories_Shoe_Flat-Sneaker" data-name="Accessories/Shoe/Flat-Sneaker" transform="translate(529.578 269.94) rotate(100)">
        <path id="shoe-5" data-name="shoe" d="M3.325,28.92Q0,20.045,0,15.639A99.405,99.405,0,0,1,1.785,0H113.522q4.355,14.4-5.028,15.547T92.9,17.62L40.969,40.773a1.981,1.981,0,0,1-2.616-1l-.022-.052-3.338-8.1q-8.687-4.053-14.118-4.053-4.413,0-12.188,3.564h0a3.962,3.962,0,0,1-5.253-1.951Q3.374,29.053,3.325,28.92Z" transform="translate(0 0)" fill="#e4e4e4" fill-rule="evenodd"/>
      </g>
      <g id="Accessories_Shoe_Flat-Sneaker-2" data-name="Accessories/Shoe/Flat-Sneaker" transform="translate(0 442.116)">
        <path id="shoe-6" data-name="shoe" d="M112.578,31.357q3.324,8.875,3.324,13.281a99.406,99.406,0,0,1-1.785,15.639H2.381q-4.355-14.4,5.028-15.547T23,42.657L74.934,19.5a1.981,1.981,0,0,1,2.616,1l.022.052,3.338,8.1q8.687,4.053,14.118,4.053,4.413,0,12.188-3.564h0a3.962,3.962,0,0,1,5.253,1.951Q112.528,31.224,112.578,31.357Z" transform="translate(-1 -19.332)" fill="#e4e4e4" fill-rule="evenodd"/>
      </g>
      <path id="Skirt" d="M273.918,4.746q-67-19.169-126.789,0C133.262,68.017,99.566,93.129,93.64,190.133,161,223.6,244.2,166.264,313.54,198.9,333.35,153.25,305.615,43.307,273.918,4.746Z" transform="translate(23.243 4.838)" fill="#2b44ff" fill-rule="evenodd"/>
    </g>
    <g id="Head_Front_Pony" data-name="Head/Front/Pony" transform="translate(277.947 559.116)">
      <g id="Head-3" data-name="Head" transform="translate(0 21.792)">
        <path id="Path_11" data-name="Path 11" d="M66.837,68.327c9.129-10.715,15.307-23.847,14.275-38.561C78.137-12.629,19.12-3.3,7.64,18.095s-10.116,75.675,4.721,79.5c5.917,1.525,18.522-2.211,31.35-9.943l-8.052,56.967H83.205Z" transform="translate(0 0)" fill="#b28b67" fill-rule="evenodd"/>
      </g>
      <path id="hair-2" data-name="hair" d="M55.4,107.138c5.9,11.317,14.05,19.84,22.2,19.84,15.474,0,26.476-20.688,26.476-42.931q0-1.172-.046-2.328c16.368,11.232,28.983,33.373,50.641,33.373,29.466,0,41.168-59.432,0-59.432-28,0-41.769,4.082-53.637,10.118A38.554,38.554,0,0,0,90.756,49.756a15.971,15.971,0,0,0-4.737-3.361,21.943,21.943,0,0,0-3.934-1.686c-7.158-2.63-17.525-4.486-29.106-4.89-2.162-.076-4.286-.1-6.358-.07A19.811,19.811,0,1,0,25.737,59.593,99.99,99.99,0,0,0,47.9,63.36a41.313,41.313,0,0,0-1.275,10.627,60.09,60.09,0,0,0,1.1,11.052,9.256,9.256,0,0,1,6.82-3.626A11.881,11.881,0,0,1,66.432,93.3C66.432,101.069,61.947,106.689,55.4,107.138Z" transform="translate(-5.019 -20)" fill="#191847" fill-rule="evenodd"/>
    </g>
    <g id="Body_Hoodie" data-name="Body/Hoodie" transform="translate(102.558 687.887)">
      <path id="Skin-3" data-name="Skin" d="M142.951,92.211l-63.193,46.4Q54.049,145.552,36.8,155.877c-2.716,2.475-6,7.488,5.266,6.621s23.154-1.271,24.708,2.572-5.263,8.438-2.121,13.622q3.142,5.184,29.689-26l62.578-25.949Zm242.629,1.6-41.4.163q38.343,123.778,41.4,131.352c4.584,11.361-5.116,28.662-9.265,37.96,13.511,6.046,12.071-16.344,29.115-8.415,15.557,7.238,27.391,20.352,45.364,9.261,2.21-1.363,4.631-6.5-1.219-10.509-14.576-9.995-35.582-27.487-38.42-33.245Q405.349,208.6,385.579,93.813Z" transform="translate(-34.163 97.426)" fill="#b28b67" fill-rule="evenodd"/>
      <path id="Coat-Back" d="M0,221.206l16.809,4.42c68.1-49.158,103.3-151.962,185.784-200.837L185.939,0C49.839,4.891,5.253,130.143,0,221.206Z" transform="translate(253.048 237.888) rotate(175)" fill="#e87613" fill-rule="evenodd"/>
      <path id="Shirt" d="M247,225.842H95.425c-6.926,0-5.621-10-4.62-15.048C102.36,152.55,147.468,89.765,147.468,6.856L191.189,0C227.352,58.161,239.858,129.769,247,225.842Z" transform="translate(61.443 6.96)" fill="#dde3e9" fill-rule="evenodd"/>
      <path id="Coat-Front" d="M164.589,60.617q9.525-2.738,15.086-12.772c15.98-28.835,10.209-44.71-6.869-49.929S140.5,3.447,113.288,3.447a27.382,27.382,0,0,0-4.066.278l-13.687.781Q36.631,204.14,63.044,270.892h119.3a406.924,406.924,0,0,0,20.292,41.6h32.507Q239.733,164.113,164.589,60.617Z" transform="translate(142.636 3.513)" fill="#ff9b21" fill-rule="evenodd"/>
      <path id="Shade-3" data-name="Shade" d="M99.947,100.5q-5.628,47.089-18.295,68.352h44.273Q113.557,140.01,99.947,100.5Z" transform="translate(199.056 105.556)" fill="rgba(0,0,0,0.1)" fill-rule="evenodd"/>
    </g>
    <g id="Bottom_Standing_Sweatpants" data-name="Bottom/Standing/Sweatpants" transform="translate(1008.077 850.614) rotate(-13)">
      <path id="Leg-7" data-name="Leg" d="M147.373,0,71.5,261.442,35.817,457.736H0L35.754,0Z" transform="translate(80.462 0)" fill="#997659" fill-rule="evenodd"/>
      <path id="Leg-8" data-name="Leg" d="M131.927,0c-5.294,135.818-3.206,209.9-2.021,222.236s7.911,94.982,53.748,239.643H146.4C85.7,323.1,64.507,240.459,57.544,222.236S30.02,129.934,0,0Z" transform="translate(130.005 0)" fill="#b28b67" fill-rule="evenodd"/>
      <path id="Pant" d="M155.346,0q-29.6,134.944-102.4,430.811H.56C-3.31,228.358,13.15,95.111,41.655,0Z" transform="translate(74.118 0)" fill="#69a1ac" fill-rule="evenodd"/>
      <path id="Pant-2" data-name="Pant" d="M140.212,0c-5.185,135.818,8.252,269.624,49.873,432.925H134.191C73.377,296.219,29.789,163.073,0,0Z" transform="translate(121.985 0)" fill="#89c5cc" fill-rule="evenodd"/>
      <g id="Accessories_Shoe_Flat-Simple" data-name="Accessories/Shoe/Flat-Simple" transform="translate(194.693 451.523)">
        <path id="Shoe-7" data-name="Shoe" d="M124.275,37.282,122.219,4.142Q104.167,9.422,77,0,47.785,20.693,3.446,28.26h0A4.142,4.142,0,0,0,.158,33.473L3,43.5H120.164Z" fill="#191847" fill-rule="evenodd"/>
      </g>
      <g id="Accessories_Shoe_Flat-Simple-2" data-name="Accessories/Shoe/Flat-Simple" transform="translate(0 451.523)">
        <path id="Shoe-8" data-name="Shoe" d="M124.275,37.282,122.219,4.142Q104.167,9.422,77,0,47.785,20.693,3.446,28.26h0A4.142,4.142,0,0,0,.158,33.473L3,43.5H120.164Z" fill="#191847" fill-rule="evenodd"/>
      </g>
    </g>
    <g id="Bottom_Standing_Jogging" data-name="Bottom/Standing/Jogging" transform="translate(1008.077 895.265)">
      <path id="Leg-9" data-name="Leg" d="M504.227,0,308.419,327.356l-146.8,276.752H130L375.965,0Z" transform="translate(-32.536 0)" fill="#997659" fill-rule="evenodd"/>
      <g id="Accessories_Shoe_Flat-Sneaker-3" data-name="Accessories/Shoe/Flat-Sneaker" transform="translate(0 575.336)">
        <path id="shoe-9" data-name="shoe" d="M149.416,35.327q4.422,11.8,4.422,17.665,0,7.128-2.375,20.8H2.837q-5.793-19.153,6.689-20.68t20.738-2.758l69.08-30.8a2.635,2.635,0,0,1,3.48,1.334l.029.069,4.44,10.771q11.555,5.391,18.779,5.391,5.87,0,16.212-4.741h0a5.27,5.27,0,0,1,6.987,2.595Q149.35,35.151,149.416,35.327Z" transform="translate(-1 -19.332)" fill="#e4e4e4" fill-rule="evenodd"/>
      </g>
      <path id="Pant-3" data-name="Pant" d="M178.621,559.791l-60.977-18.446q40.074-119.8,98.232-263.669T340.8,0H513.018Q438.794,169.259,355.643,307.588T178.621,559.791Z" transform="translate(-8.768 0)" fill="#db2721" fill-rule="evenodd"/>
      <path id="Leg-10" data-name="Leg" d="M140.2,0c18.481,115.035,54.125,262.006,57.488,266.541q3.364,4.536,242.2,81.158l-6.83,27.882q-284.809-41.093-300.14-63.763C117.589,289.148,41.039,110.052,11.39,0Z" transform="translate(344.355 0)" fill="#b28b67" fill-rule="evenodd"/>
      <path id="Pant-4" data-name="Pant" d="M415.172,323.6,403.141,368.5q-213.021,18.683-261.045-27T32.629,0H196.854q38.929,242.238,43.527,252.407T415.172,323.6Z" transform="translate(313.104 0)" fill="#ff4133" fill-rule="evenodd"/>
      <g id="Accessories_Shoe_Flat-Sneaker-4" data-name="Accessories/Shoe/Flat-Sneaker" transform="translate(815.1 338.408) rotate(100)">
        <path id="shoe-10" data-name="shoe" d="M4.422,38.468Q0,26.663,0,20.8,0,13.675,2.375,0H151q5.793,19.153-6.689,20.68t-20.738,2.758l-69.08,30.8a2.635,2.635,0,0,1-3.48-1.334l-.029-.069L46.545,42.06Q34.99,36.669,27.766,36.669q-5.87,0-16.212,4.741h0a5.27,5.27,0,0,1-6.987-2.595Q4.488,38.644,4.422,38.468Z" transform="translate(0 0)" fill="#e4e4e4" fill-rule="evenodd"/>
      </g>
    </g>
    <g id="Bottom_Standing_Shorts" data-name="Bottom/Standing/Shorts" transform="translate(375.129 934.596) rotate(8)">
      <path id="Leg-11" data-name="Leg" d="M0,0,93.077,304.29l45.089,258.779h35.353L125.874,0Z" transform="translate(106.357 0)" fill="#997659" fill-rule="evenodd"/>
      <path id="Leg-12" data-name="Leg" d="M69.191,0c6.322,167.071-1.118,253.25-2.533,268.429S45.868,382.031,0,568.164l37.671-12.938c72.49-170.712,97.193-259.434,105.507-281.85S173.574,159.834,209.423,0Z" transform="translate(3.868 0)" fill="#b28b67" fill-rule="evenodd"/>
      <g id="Accessories_Shoe_Flat-Sneaker-5" data-name="Accessories/Shoe/Flat-Sneaker" transform="translate(0 540.026)">
        <path id="shoe-11" data-name="shoe" d="M4.151,15.013Q0,26.094,0,31.595q0,6.69,2.229,19.526H141.734q5.438-17.977-6.278-19.411t-19.465-2.589L51.15.215a2.473,2.473,0,0,0-3.266,1.252l-.028.064-4.168,10.11Q32.843,16.7,26.062,16.7q-5.509,0-15.217-4.45h0a4.947,4.947,0,0,0-6.558,2.435Q4.213,14.848,4.151,15.013Z" transform="translate(0 0)" fill="#e4e4e4" fill-rule="evenodd"/>
      </g>
      <g id="Accessories_Shoe_Flat-Sneaker-6" data-name="Accessories/Shoe/Flat-Sneaker" transform="translate(232.501 540.025)">
        <path id="shoe-12" data-name="shoe" d="M4.151,15.013Q0,26.094,0,31.595q0,6.69,2.229,19.526H141.734q5.438-17.977-6.278-19.411t-19.465-2.589L51.15.215a2.473,2.473,0,0,0-3.266,1.252l-.028.064-4.168,10.11Q32.843,16.7,26.062,16.7q-5.509,0-15.217-4.45h0a4.947,4.947,0,0,0-6.558,2.435Q4.213,14.848,4.151,15.013Z" transform="translate(0 0)" fill="#e4e4e4" fill-rule="evenodd"/>
      </g>
      <path id="Bottom" d="M0,0,39.575,155.032H160.451L142.428,0Z" transform="translate(93.99 0)" fill="#69a1ac" fill-rule="evenodd"/>
      <path id="Bottom-2" data-name="Bottom" d="M12.056,0Q-7.476,58.548,4.636,155.032h123.35L161.9,0Z" transform="translate(59.673 0)" fill="#89c5cc" fill-rule="evenodd"/>
    </g>
    <g id="Head_Front_Airy" data-name="Head/Front/Airy" transform="translate(257.097 405.974) rotate(8)">
      <g id="Head-4" data-name="Head" transform="translate(304.23 93.99)">
        <path id="Path_3" data-name="Path 3" d="M20.436,85.308C9.039,71.93,1.325,55.535,2.614,37.164c3.714-52.932,77.4-41.288,91.73-14.572s12.63,94.482-5.894,99.257c-7.387,1.9-23.125-2.76-39.142-12.414l10.054,71.125H0Z" transform="translate(0 0)" fill="#b28b67" fill-rule="evenodd"/>
      </g>
      <path id="hair-3" data-name="hair" d="M364.739,85.791c-7.824-1.283-28.889-2.165-32.774-2.165-2.483,0-5.173.567-6.643-1.712-1.2-1.867-.763-5.024-1.122-7.19-.417-2.516-1.01-5-1.609-7.478a76.037,76.037,0,0,0-7.9-20.056,61.647,61.647,0,0,0-29.221-26.456c-13.832-5.946-29.485-7.308-44.364-6.1-15.922,1.29-30.335,6.547-45.369,11.493-14.326,4.713-29.331,6.569-44.314,4.267-15.1-2.319-26.5-10.5-39.236-18.267C99.156,4.175,84.259-1.025,68.848.171,54.464,1.287,41.206,7.226,29.311,15.161,18.182,22.584,9,31.516,3.815,44.086-1.763,57.608-1.758,72.451,7.414,84.4c13.294,17.322,37.973,21.8,58.505,21.356a111.78,111.78,0,0,0,34.752-6.368c14.953-5.26,27.875-14.174,41.864-21.407A108.939,108.939,0,0,1,163,69.792c6.9-1.949,13.7-2.843,19.95,1.326,6.611,4.411,12.535,8.744,20.1,11.505A64.818,64.818,0,0,0,225.719,86.7c15.04-.116,29.866-4.8,44.473-7.941,11.912-2.559,24.657-5.11,36.8-2.65,5.067,1.027,12.469,3.146,14.3,8.413-30.8,5.583-42.9,43.68-34.219,71.647,4.687,15.095,32.862,32.741,43.817,24.8,6.94-5.027,2.727-11.627,0-15.984-5.222-8.344-7.009-19.062,2.654-24.871,8.335-5.01,17.1,6.888,17.264,6.875,2.291-.181,22.085-11.375,35.722-27.71,13.454.8,15.495-8.073,12.282-15.328S375.549,87.565,364.739,85.791Z" transform="translate(0 0)" fill="#191847" fill-rule="evenodd"/>
    </g>
    <g id="Body_Trench-Coat" data-name="Body/Trench-Coat" transform="translate(225.428 631.314) rotate(8)">
      <path id="Skin-4" data-name="Skin" d="M496.179,48.979l74.664,63.3q31.416,10.879,52,25.241c3.168,3.319,6.82,9.848-7.135,7.788s-28.727-3.6-31,1.051,5.82,10.967,1.455,17.151q-4.365,6.183-34.713-34.968L475.773,90.771ZM141.694,0l42.9,10.907Q98.45,155.736,92.46,163.988c-8.985,12.378-2.459,36.268-.242,48.785-18.194,3.243-9.687-23.446-32.73-18.988-21.032,4.069-39.329,16.381-57.753-2.483-2.265-2.319-3.648-9.27,4.651-12.363,20.677-7.705,51.407-22.552,56.584-28.67Q73.562,137.755,141.694,0Z" transform="translate(0 196.317) rotate(-4)" fill="#b28b67" fill-rule="evenodd"/>
      <path id="Back-Arm" d="M187.364,211.814c10.151-.729,21.193.953,33.032,4.942a11.131,11.131,0,0,1,.119,21.055q3.4,2.479,6.856,4.93l-19.9,40.633C123.71,241.613,44.986,210.127,9.114,141.183-2.926,118.043,1.149,39.443,0,10.849L26.453,0C63.328,76.223,113.233,149.349,187.364,211.814Z" transform="translate(329.402 5.049)" fill="#69a1ac" fill-rule="evenodd"/>
      <path id="Shirt-2" data-name="Shirt" d="M0,277.535q116.64,12.813,183.617,0c5.532-1.058,5.289-24.906,2.724-31.419C146.39,144.693,120.11,70.446,120.11,0q-11,5.744-38.487,1.722C32.368,74.319,9.727,157.616,0,277.535Z" transform="translate(236.478 4.211)" fill="#191847" fill-rule="evenodd"/>
      <path id="Coat-Front-2" data-name="Coat-Front" d="M150.336,293.737a11.121,11.121,0,0,1-3.341-10.047l1.288-7.307a11.135,11.135,0,0,1,9.644-9.122q1.245-5.566,2.137-11.056c4.993-30.908-3.538-61.214-3.137-90.975Q97.267,216.13,49.889,341.012L3.174,327.266q2.674-9.933,5.539-19.622c-5.392-3.063-11.692-17.1-7.158-19.451a54.553,54.553,0,0,1,14.869-5.139Q80.673,89.536,226.559,0h28.13C246.407,109.525,360.8,348.64,321.08,552.853c-73.418,16.4-178.231-34.616-280.257,6.139,3.8-82.239,79.843-178.851,109.512-265.254Z" transform="translate(71.694 0)" fill="#89c5cc" fill-rule="evenodd"/>
      <path id="Shade-Lapel" d="M22.81,0,10.05,39.242l25.7,29.418L12.523,91.777l56.185,96.2L0,91.969,22.81,68.66,0,42.663Z" transform="translate(285.658 2.473)" fill="rgba(0,0,0,0.1)" fill-rule="evenodd"/>
      <path id="Buttons" d="M9.894,19.787a9.894,9.894,0,1,1,9.894-9.894A9.894,9.894,0,0,1,9.894,19.787ZM22.261,76.676a9.894,9.894,0,1,1,9.894-9.894A9.894,9.894,0,0,1,22.261,76.676Zm2.473,56.889a9.894,9.894,0,1,1,9.894-9.894A9.894,9.894,0,0,1,24.734,133.564Z" transform="translate(327.994 207.767)" fill="rgba(0,0,0,0.4)" fill-rule="evenodd"/>
    </g>
    <g id="Head_Front_Rad" data-name="Head/Front/Rad" transform="translate(1382.121 420.369)">
      <g id="Head-5" data-name="Head" transform="translate(17.314 39.575)">
        <path id="Path_12" data-name="Path 12" d="M83.447,85.308c11.4-13.378,19.111-29.773,17.822-48.144-3.714-52.932-77.4-41.288-91.73-14.572s-12.63,94.482,5.894,99.257c7.387,1.9,23.125-2.76,39.142-12.414L44.521,180.559h59.362Z" fill="#b28b67" fill-rule="evenodd"/>
      </g>
      <path id="hair-4" data-name="hair" d="M144.464,59.119c1.917-1.9,2.963-4.612,3.868-7.187a72.688,72.688,0,0,0,2.476-8.162c1.246-5.563,1.258-11.961-2.71-16.281-3.183-3.464-7.959-5.018-12.366-5.356a22.724,22.724,0,0,0-8.768,1.111c-2.793.918-5.2,2.748-7.908,3.883-.1-6-1.13-12.268-4.172-17.387a17.335,17.335,0,0,0-12.907-8.42A25.593,25.593,0,0,0,86.253,4.487c-1.223.661-2.434,1.354-3.593,2.138a10.07,10.07,0,0,1-3.118,1.714c-1.269.3-1.9-.435-2.724-1.361a20.7,20.7,0,0,0-3.21-2.89c-5.1-3.748-11.79-5.29-17.7-3.043a16.446,16.446,0,0,0-7.216,5.216c-1.646,2.159-2.82,5.585-5.092,7.089-.964.639-1.645-.207-2.523-.833-1.319-.94-2.576-1.977-3.911-2.891A17.912,17.912,0,0,0,31.09,6.879c-3.182-.736-7.579-.564-8.488,3.6a17.2,17.2,0,0,0,.031,4.817c.151,2.166.309,4.33.5,6.493a46.882,46.882,0,0,0,.633,4.84c.165.859.683,2.462.314,3.322-.461,1.076-2.586.464-3.494.5a13.807,13.807,0,0,0-5.253,1.155,5.653,5.653,0,0,0-3.179,2.941,5.283,5.283,0,0,0-.088,2.766,8.249,8.249,0,0,1-.168,2.838c-2.409-1.186-10.757-3.822-11.808.5-.35,1.438.447,3.062,1.054,4.274a37.048,37.048,0,0,0,3.891,5.924A52.96,52.96,0,0,0,15.394,60.9a6.792,6.792,0,0,0-1.772,11.376A8.415,8.415,0,0,0,19.8,74.071a13.665,13.665,0,0,1,2.555-.2,6.109,6.109,0,0,0,1.158.39,34.45,34.45,0,0,0,9.479-1.2A31.254,31.254,0,0,0,47.45,65.5a4.457,4.457,0,0,1,3.344-1.536c1.243.013,2.463.353,3.705.385,3.286.084,6.25-1.523,9.3-2.592a35.1,35.1,0,0,0,3.047,12.372c1.375,3.025,4.247,3.464,7.069,3.729,9.024.849,18.081-.1,27.116-.086-8.747,1.977-17.785,2.792-26.455,5.119-3.919,1.051-.926,3.693.749,5.523A31.832,31.832,0,0,1,81.561,99.1C85.84,93.519,93.4,89.844,100.1,91.557c7.4,1.893,12.617,11.9,7.882,19.1-2.749,4.178-7.712,5.791-11.842,7.587,3.222,3.35,4,8.3,5.94,12.464.956,2.055,2.3,4.379,4.438,5.095a5.19,5.19,0,0,1,2.344.933c.773.8.958,1.692,1.945,2.378,3.941,2.74,10.1,2.529,13.589-1.047,3.159-3.233,2.337-8.35-.3-11.629,4.2-1.75,11.85-4,10.181-10.544,9.1-.6,31.193-15.362,18.98-26.146,6.7-3.788,12.86-13.046,8.555-21.206-3.315-6.284-11.025-9.093-17.351-9.426" transform="translate(0 0)" fill="#191847" fill-rule="evenodd"/>
    </g>
    <g id="Body_Jacket" data-name="Body/Jacket" transform="translate(1181.774 618.242)">
      <path id="Skin-5" data-name="Skin" d="M156.894,89.123,86.827,157.475q-30.58,13.044-50.112,28.807c-2.928,3.532-6.116,10.3,7.661,7.272s28.406-5.594,31-1.114-5.041,11.346-.255,17.21q4.786,5.864,32.189-37.3l72.86-42.956Zm311,9.64-51.688.2q47.872,154.54,51.688,164c5.723,14.184-6.388,35.786-11.567,47.394,16.869,7.548,15.071-20.406,36.351-10.506,19.423,9.036,34.2,25.409,56.638,11.563,2.759-1.7,5.782-8.112-1.522-13.121-18.2-12.479-44.424-34.319-47.968-41.507Q492.576,242.08,467.892,98.762Z" transform="translate(-34.163 131.314)" fill="#b28b67" fill-rule="evenodd"/>
      <path id="Coat-Back-2" data-name="Coat-Back" d="M0,317.419l20.987,5.519Q88.037,190.3,234.974,89.958L173.244,0C72.52,98.638,6.558,203.725,0,317.419Z" transform="translate(314.509 329.401) rotate(175)" fill="#191847" fill-rule="evenodd"/>
      <path id="Shirt-3" data-name="Shirt" d="M280.453,281.969H90Q156.185,121.043,156.185,8.56L213.636,0C258.786,72.616,271.537,162.02,280.453,281.969Z" transform="translate(99.623 0)" fill="#dde3e9" fill-rule="evenodd"/>
      <path id="Coat-Front-3" data-name="Coat-Front" d="M118.885.041,118.862,0h-3.75q-6.731.232-20.5.835L80.726,40.507Q78.523,113.06,55,332.936H179.846q-.491,15.186-1.619,30.656h92.829Q250.227,128.608,118.931,0l-.046.041Z" transform="translate(195.59 0)" fill="#2f3676" fill-rule="evenodd"/>
      <path id="Shade-4" data-name="Shade" d="M118.411,82.233q-5.33,94.663-26.688,130.514h34.9A652.582,652.582,0,0,0,118.411,82.233Z" transform="translate(248.778 121.163)" fill="rgba(0,0,0,0.1)" fill-rule="evenodd"/>
      <path id="Light" d="M164.672,121.049,103.111,92.429v28.619Z" transform="translate(182.975 136.187)" fill="rgba(255,255,255,0.2)" fill-rule="evenodd"/>
    </g>
    <g id="Head_Front_Chongo" data-name="Head/Front/Chongo" transform="translate(1044.629 432.055) rotate(-13)">
      <g id="Head-6" data-name="Head" transform="translate(0 55.616)">
        <path id="Path_5" data-name="Path 5" d="M69.494,71.044C78.986,59.9,85.41,46.249,84.336,30.95,81.243-13.132,19.88-3.434,7.944,18.814S-2.574,97.5,12.853,101.475c6.152,1.586,19.258-2.3,32.6-10.339l-8.372,59.232H86.513Z" fill="#b28b67" fill-rule="evenodd"/>
      </g>
      <path id="hair-5" data-name="hair" d="M24.381,50.2c6.755-2.06,16.561-2.758,20.686-2.286a35.579,35.579,0,0,1-2.519-17.985c.738-5.926,3.386-10.972,5.835-16.26A22.244,22.244,0,0,1,52.7,6.942a14.739,14.739,0,0,1,6.982-3.751,18.682,18.682,0,0,1,8.043-.006c1.169.246,2.219.78,3.366,1.078,1.174.3,1.744-.431,2.6-1.169A14.706,14.706,0,0,1,81.351.121a19.766,19.766,0,0,1,8.723,1.046,17.073,17.073,0,0,1,7.264,4.656,12.182,12.182,0,0,1,2.176,3.336c.211.507.246.807.751.993.468.172,1.015.177,1.5.34a18.838,18.838,0,0,1,10.83,9.817c1.268,2.7,1.868,7.457,1.7,12.788s-4.978,19.24-9.48,24.313a30.242,30.242,0,0,1-15.625,8.825c3.784,4.325,6.3,9.729,8.165,15.225a74.508,74.508,0,0,1,3.737,18.494c.439,6.005.48,12.356-.928,18.233-1.317,5.5-4.133,10-8.835,12.865a42.2,42.2,0,0,1-6.8,3.194,44.769,44.769,0,0,1-7.007,2.246c-4.554.941-9.8.78-13.308-2.845a24.984,24.984,0,0,1-3.577-4.545c-.332-.574-.532-.949-.129-1.511a10.8,10.8,0,0,1,1.883-1.713,17.751,17.751,0,0,0,6.276-11.754c.56-4.825-.736-11.052-5.427-13.158-5.79-2.6-12.167.384-17.314,3.165-2.187-7.72-6.678-14.671-13.72-18.212C24.419,82,15.48,81.545,7.475,78.183a14.756,14.756,0,0,1-5.747-3.655,7.431,7.431,0,0,1-1.651-2.7c-.337-1.3.5-2.382,1.145-3.392C4.645,63.08,17.626,52.258,24.381,50.2Z" transform="translate(3.09 0)" fill="#191847" fill-rule="evenodd"/>
    </g>
    <g id="Body_Jacket-2" data-name="Body/Jacket-2" transform="translate(888.251 652.078) rotate(-13)">
      <path id="Skin-6" data-name="Skin" d="M118.782,63.066,44.145,30.288Q24.533,10.745,6.269.581C2.628-.578-3.593-.929,3.044,8.765S16.225,28.953,13.574,32.35,3.24,32,.205,37.523Q-2.83,43.047,39.051,50.74L94.95,93.6Zm301.749,9.028-42.21,8.375Q442,199.132,446.616,206.252c6.931,10.68.464,30.253-1.924,40.56,14.985,3.488,9.075-19.066,28.039-14.357,17.309,4.3,31.985,15.329,48.125.452,1.984-1.829,3.437-7.546-3.329-10.478-16.855-7.305-41.758-20.984-45.8-26.3Q463.471,185.271,420.532,72.094Z" transform="translate(0 96.812)" fill="#b28b67" fill-rule="evenodd"/>
      <path id="Coat-Back-3" data-name="Coat-Back" d="M0,203.512l17.478,4.6C59.405,174,83.057,85.31,109.856,75.641c25.337-9.141,58.9,4.786,98.646,23.1l15.022-26.976c-33.753-43.6-110.2-84.62-144.091-67.984C25.24,30.384,3.639,140.431,0,203.512Z" transform="translate(281.339 213.721) rotate(175)" fill="#db2721" fill-rule="evenodd"/>
      <path id="Shirt-4" data-name="Shirt" d="M163.241,234.822H5.64c-7.2,0-5.845-10.4-4.8-15.646C12.851,158.615,59.752,93.334,59.752,7.129L105.212,0C142.813,60.474,155.816,134.929,163.241,234.822Z" transform="translate(178.004 0)" fill="#dde3e9" fill-rule="evenodd"/>
      <path id="Coat-Front-4" data-name="Coat-Front" d="M131.073,173.507q48.192,86.929,81.016,125.17l33.035-6.47Q213.2,94.251,60.257,0h-18Q-18.958,208.673,8.505,278.078H150.371C148.127,244.221,140.93,208.417,131.073,173.507Z" transform="translate(225.891 0)" fill="#ff4133" fill-rule="evenodd"/>
    </g>
    <g id="Head_Front_Long" data-name="Head/Front/Long" transform="translate(848.519 420.418)">
      <path id="Hair-Back" d="M67.928,85.376c-11,40.541-25.339,131.667-10.709,145.962h92.558q.014-.246.028-.491a68.631,68.631,0,0,0,60.988-68.2V95.621A68.621,68.621,0,0,0,142.172,27h-6.383A68.637,68.637,0,0,0,67.928,85.376Z" transform="translate(-51 -27)" fill="#191847" fill-rule="evenodd"/>
      <g id="Head-7" data-name="Head" transform="translate(16.168 12.767)">
        <path id="Path_9" data-name="Path 9" d="M107.679,110.081c14.707-17.263,24.661-38.419,23-62.125-4.792-68.3-99.873-53.277-118.368-18.8s-16.3,121.918,7.606,128.08c9.533,2.457,29.84-3.562,50.508-16.019L57.45,232.991h76.6Z" transform="translate(0 0)" fill="#b28b67" fill-rule="evenodd"/>
      </g>
      <path id="Hair-Front" d="M109.127,136.117c-3.529,37.911-2.115,81.2,8.4,91.48h92.558c5.157-89.6-44.683-54.9-44.683-139.266-3.107-3.036-6.044-6.041-8.949-8.633l.1-2.481Q132.518,28,95.558,28C58.6,28,46.933,45.2,37,59.8c7.427,25.486,36.252,29.265,61.864,45.151a17.554,17.554,0,1,1,11.061,31.185Q109.524,136.135,109.127,136.117Z" transform="translate(-5.986 -24.808)" fill="#191847" fill-rule="evenodd"/>
    </g>
    <g id="Bottom_Standing_Baggy-Pants" data-name="Bottom/Standing/Baggy-Pants" transform="translate(407.093 967.158)">
      <path id="Leg-13" data-name="Leg" d="M134,0,250.706,295.385l78.275,249.724H359.89L240.225,0Z" transform="translate(143.685)" fill="#997659" fill-rule="evenodd"/>
      <path id="Leg-14" data-name="Leg" d="M252.858,0c-1.243,103.8-19.367,243.551-22.262,250.021q-2.9,6.47-199.92,164.565l21.289,22.782Q284.436,301.822,295.193,283.743C305.951,265.665,340.974,99.3,369.093,0Z" transform="translate(1.326)" fill="#b28b67" fill-rule="evenodd"/>
      <g id="Accessories_Shoe_Flat-Sneaker-7" data-name="Accessories/Shoe/Flat-Sneaker" transform="matrix(0.643, 0.766, -0.766, 0.643, 37.646, 394.647)">
        <path id="shoe-13" data-name="shoe" d="M3.99,14.433Q0,25.085,0,30.373A119.311,119.311,0,0,0,2.143,49.144H136.255q5.228-17.282-6.035-18.66T111.507,28L49.173.207a2.378,2.378,0,0,0-3.14,1.2l-.027.062L42,11.192q-10.427,4.865-16.945,4.865-5.3,0-14.629-4.278h0a4.756,4.756,0,0,0-6.3,2.341Q4.05,14.274,3.99,14.433Z" transform="translate(0 0)" fill="#e4e4e4" fill-rule="evenodd"/>
      </g>
      <g id="Accessories_Shoe_Flat-Sneaker-8" data-name="Accessories/Shoe/Flat-Sneaker" transform="translate(456.02 519.148)">
        <path id="shoe-14" data-name="shoe" d="M4.99,33.765Q1,44.417,1,49.705A119.311,119.311,0,0,0,3.143,68.476H137.255q5.228-17.282-6.035-18.66t-18.713-2.488L50.173,19.539a2.378,2.378,0,0,0-3.14,1.2l-.027.062L43,30.524q-10.427,4.865-16.945,4.865-5.3,0-14.629-4.278h0a4.756,4.756,0,0,0-6.3,2.341Q5.05,33.606,4.99,33.765Z" transform="translate(-1 -19.332)" fill="#e4e4e4" fill-rule="evenodd"/>
      </g>
      <path id="Pant-5" data-name="Pant" d="M221.224,519.388l146.958-15.949L259.269,0H127.644Z" transform="translate(134.928 0)" fill="#69a1ac" fill-rule="evenodd"/>
      <path id="Pant-6" data-name="Pant" d="M43.46,377.832l96.4,114.1Q292.153,325.6,317.435,274.863T362.89,0H214.7q-11.019,197.18-14.856,206.356T43.46,377.832Z" transform="translate(18.94)" fill="#89c5cc" fill-rule="evenodd"/>
    </g>
    <g id="Head_Front_Short-2" data-name="Head/Front/Short-2" transform="translate(704.317 603.356)">
      <g id="Head-8" data-name="Head" transform="translate(9.511 16.645)">
        <path id="Path_14" data-name="Path 14" d="M19.646,82.01C8.689,69.149,1.274,53.388,2.513,35.727,6.083-15.158,76.918-3.964,90.7,21.719s12.142,90.829-5.666,95.42c-7.1,1.831-22.231-2.654-37.628-11.934l9.665,68.375H0Z" transform="translate(0 0)" fill="#b28b67" fill-rule="evenodd"/>
      </g>
      <path id="Hair-6" data-name="Hair" d="M74.772,134.11C67.61,102.245,47.2,80.523,50.321,66.281q3.116-14.242,16.612-17.714,6.98-28.236,45.022-24.02C150,28.764,173.216,44.563,163.189,79.326c-9.217,0-20.344-3.333-35.731,2.378q-7.323,2.718-10.475,16.859h-6.953Q99.907,81.782,90.068,86.23t-4.473,21.608L82.169,134.11Z" transform="translate(-50 -24)" fill="#191847" fill-rule="evenodd"/>
    </g>
    <g id="Body_Long-Sleeve-2" data-name="Body/Long-Sleeve" transform="translate(478.427 750.779)">
      <path id="Skin-7" data-name="Skin" d="M431.511,85.028l93.882-12.806q28.17-15.669,51.831-21.215c4.439-.13,11.5,1.484.981,10.254s-21.193,18.471-19.319,23.151,11.657,2.939,13.278,10.137q1.621,7.2-47.631,2.339l-76.177,30.2Zm-294.918,21.73,52.067.2q-85.64,192.722-89.308,201.812c-5.5,13.636,6.141,34.4,11.12,45.562-16.217,7.256-14.489-19.617-34.946-10.1-18.672,8.687-32.876,24.427-54.449,11.116-2.652-1.637-5.559-7.8,1.464-12.613,17.5-12,42.707-32.992,46.113-39.9Q75.624,288.691,136.593,106.758Z" transform="translate(-18.163 70.267)" fill="#997659" fill-rule="evenodd"/>
      <path id="Clothes-Back-2" data-name="Clothes-Back" d="M0,.848,40.849,0c17.919,89.614,77.4,142,197.684,111.982l26.4,115.112C152.215,251.8,48.238,214.906,16.935,93.119,8.832,61.592,1.731,28.665,0,.848Z" transform="translate(261.122 11.046) rotate(5)" fill="#afb9c5" fill-rule="evenodd"/>
      <path id="Clothes-3" data-name="Clothes" d="M225.7.038l61.767,14.146c0,106.238,33.842,174.019,51.2,252.128H171.853c-2.35,26.99-3.793,54.731-4.545,83.223H42.4Q84.858,123.635,221.626,0h4.045Z" transform="translate(15.233)" fill="#c5cfd6" fill-rule="evenodd"/>
      <path id="Shade-5" data-name="Shade" d="M123.163,48.259q-6.449,99.3,7.585,151.562h-33.9c4.655-53.467,12.869-103.988,26.319-151.562Z" transform="translate(90.243 66.491)" fill="rgba(0,0,0,0.1)" fill-rule="evenodd"/>
    </g>
    <g id="Body_Lab-Coat" data-name="Body/Lab-Coat" transform="translate(592.801 647.025)">
      <path id="Skin-8" data-name="Skin" d="M171.78,112.881,75.435,194.56Q34.9,208.6,8.335,227.131c-4.087,4.283-8.8,12.708,9.207,10.05s37.069-4.645,40,1.356-7.51,14.152-1.877,22.131q5.633,7.979,44.793-45.122l97.655-48.737ZM608.053,77.536l-56.53,8.21q91.02,197.481,97.594,208.879c9.861,17.1-1.736,46.875-6.27,62.639,22.911,6.616,15.594-28.782,44.563-19.953,26.442,8.059,48.262,26.327,74.451,4.6,3.22-2.671,5.932-11.4-4.3-16.493-25.5-12.677-62.93-35.875-68.749-44.425Q676.908,263.509,608.053,77.536Z" transform="translate(-4.564 171.587)" fill="#b28b67" fill-rule="evenodd"/>
      <path id="Coat-Back-4" data-name="Coat-Back" d="M0,346.936l33.885,14.593c57.68-114.1,138.284-222.338,264.687-308.656L273.808,0c-109,51.994-211.279,90.843-259.114,178.986C-1.361,208.57,2.127,310.07,0,346.936Z" transform="translate(397.458 364.29) rotate(175)" fill="#c5cfd6" fill-rule="evenodd"/>
      <path id="Shirt-5" data-name="Shirt" d="M333.669,347.351q-150.51,15.958-236.937,0c-7.138-1.318-8.265-13.27-4.954-21.381,51.552-126.315,86.9-236.532,86.9-324.267q14.189,7.153,49.663,2.144C291.9,94.261,321.117,198,333.669,347.351Z" transform="translate(153.858 5.387)" fill="#323337" fill-rule="evenodd"/>
      <path id="Coat-Front-5" data-name="Coat-Front" d="M140.951,1.137H114.464C108.3,37.41,88.844,528.6,28.793,689.277H353.72c-7.044-147.2-62.612-324.012-118.9-471.975q74.663,68.323,130.149,231.537l60.862-15.623Q357.948,140.717,146.706,3.24l-.911-2.1h-2.344q-1.294-.831-2.594-1.655Z" transform="translate(257.052 0.519)" fill="#dde3e9" fill-rule="evenodd"/>
    </g>
    <line id="Line_1" data-name="Line 1" x2="1920" transform="translate(0.5 373.5)" fill="none" stroke="#fff" stroke-width="2"/>
    <rect id="Rectangle_1" data-name="Rectangle 1" width="690" height="103" rx="23" transform="translate(868 484)" fill="rgba(255,255,255,0.8)"/>
    <rect id="Rectangle_2" data-name="Rectangle 2" width="690" height="103" rx="23" transform="translate(868 675)" fill="rgba(255,255,255,0.8)"/>
    <rect id="Rectangle_3" data-name="Rectangle 3" width="246" height="103" rx="23" transform="translate(753 865)" fill="rgba(255,255,255,0.8)"/>
    <text id="User_Name" data-name="User Name" transform="translate(452 549)" fill="#fff" font-size="68" font-family="HelveticaNeue, Helvetica Neue"><tspan x="0" y="0">User Name</tspan></text>
    <text id="Password" transform="translate(452 740)" fill="#fff" font-size="68" font-family="HelveticaNeue, Helvetica Neue"><tspan x="0" y="0">Password</tspan></text>
    <text id="Log_In" data-name="Log In" transform="translate(629 267)" fill="#fff" font-size="237" font-family="HelveticaNeue, Helvetica Neue"><tspan x="0" y="0">Log In</tspan></text>
    <text id="Submit" transform="translate(805 932)" fill="#525252" font-size="45" font-family="HelveticaNeue-Bold, Helvetica Neue" font-weight="700"><tspan x="0" y="0">Submit</tspan></text>
  </g>
</svg>
